<svg height="511pt" viewBox="-61 0 511 511.99944" width="511pt" xmlns="http://www.w3.org/2000/svg"><path d="m390.027344 194.761719c0 68.550781-35.421875 128.828125-88.953125 163.53125-8.066407 5.234375-14.800781 12.265625-19.539063 20.625l-69.945312 123.5625c-.15625.273437-.316406.535156-.496094.800781-7.472656 11.882812-25.128906 11.621094-32.160156-.800781l-69.945313-123.5625c-4.726562-8.351563-11.449219-15.378907-19.503906-20.59375-54.300781-35.1875-89.976563-96.679688-88.964844-166.433594 1.511719-104.859375 87.109375-190.417969 191.96875-191.8710938 109.136719-1.4648432 197.539063 86.4804688 197.539063 194.7421878zm0 0" fill="#44bfd7"/><path d="m390.027344 194.761719c0 68.550781-35.421875 128.828125-88.953125 163.53125-8.066407 5.234375-14.800781 12.265625-19.539063 20.625l-69.945312 123.5625c-.15625.273437-.316406.535156-.496094.800781-.179688-.265625-.335938-.527344-.496094-.800781l-69.945312-123.5625c-4.726563-8.351563-11.449219-15.378907-19.503906-20.59375-54.304688-35.1875-89.976563-96.679688-88.964844-166.433594 1.445312-100.480469 80.097656-183.226563 178.933594-191.25 100.152343 8.054687 178.910156 91.886719 178.910156 194.121094zm0 0" fill="#7cd2e3"/><path d="m339.070312 194.527344c0 79.441406-64.414062 143.808594-143.808593 143.808594-79.421875 0-143.804688-64.382813-143.804688-143.808594 0-85.367188 74.105469-152.316406 159.636719-142.929688 71.972656 7.886719 127.976562 68.867188 127.976562 142.929688zm0 0" fill="#c2eaf2"/><path d="m339.070312 194.527344c0 74.074218-56.003906 135.058594-127.976562 142.941406-71.96875-7.882812-127.972656-68.867188-127.972656-142.941406 0-74.0625 56.003906-135.042969 127.972656-142.929688 71.972656 7.886719 127.976562 68.867188 127.976562 142.929688zm0 0" fill="#def4f8"/><path d="m305.03125 193.527344c0 13.414062-10.871094 24.273437-24.277344 24.273437h-55.390625c-3.21875 0-5.824219 2.617188-5.824219 5.828125v55.386719c0 2.113281-.265624 4.160156-.78125 6.101563-1.097656 4.253906-3.324218 8.054687-6.332031 11.074218-4.390625 4.390625-10.460937 7.101563-17.164062 7.101563-13.402344 0-24.273438-10.859375-24.273438-24.277344v-55.386719c0-3.210937-2.609375-5.828125-5.828125-5.828125h-55.390625c-6.699219 0-12.769531-2.710937-17.160156-7.101562-4.390625-4.402344-7.113281-10.460938-7.113281-17.171875 0-13.40625 10.871094-24.277344 24.273437-24.277344h55.390625c3.21875 0 5.828125-2.605469 5.828125-5.824219v-55.390625c0-6.703125 2.722657-12.773437 7.113281-17.164062 4.390626-4.390625 10.460938-7.113282 17.160157-7.113282 13.40625 0 24.277343 10.871094 24.277343 24.277344v55.390625c0 3.21875 2.605469 5.824219 5.824219 5.824219h55.390625c6.703125 0 12.773438 2.722656 17.164063 7.113281s7.113281 10.460938 7.113281 17.164063zm0 0" fill="#5ca33b"/><path d="m305.03125 193.527344c0 13.414062-10.871094 24.273437-24.277344 24.273437h-55.390625c-3.21875 0-5.824219 2.617188-5.824219 5.828125v55.386719c0 2.113281-.265624 4.160156-.78125 6.101563-18.597656-7.492188-34.957031-19.386719-47.769531-34.40625v-27.082032c0-3.210937-2.609375-5.828125-5.828125-5.828125h-14.351562c-6.050782-14.554687-9.375-30.511719-9.375-47.242187 0-.433594 0-.875.023437-1.308594h23.703125c3.21875 0 5.828125-2.605469 5.828125-5.824219v-55.390625c0-6.703125 2.722657-12.773437 7.113281-17.164062 4.390626-4.390625 10.460938-7.113282 17.160157-7.113282 13.40625 0 24.277343 10.871094 24.277343 24.277344v55.390625c0 3.21875 2.605469 5.824219 5.824219 5.824219h55.390625c6.703125 0 12.773438 2.722656 17.164063 7.113281s7.113281 10.460938 7.113281 17.164063zm0 0" fill="#5db33a"/></svg>