<svg enable-background="new 0 0 511.999 511.999" viewBox="0 0 511.999 511.999" xmlns="http://www.w3.org/2000/svg"><path d="m511.879 475.685-40.224-221.611c-.401-2.212-1.773-4.128-3.739-5.221l-101.242-56.31c-1.314-.732-2.787-1.023-4.234-.911l18.419 237.608-.617.276 121.164 54.357c.986.441 2.034.659 3.077.659 1.651 0 3.287-.543 4.632-1.596 2.198-1.716 3.261-4.508 2.764-7.251z" fill="#44c868"/><path d="m256 246.375-103.545-53.931c-1.241-.647-2.617-.911-3.972-.82.359-.022.72-.02 1.078.008l-18.419 237.608 121.781 54.634c.983.44 2.032.659 3.077.659z" fill="#44c868"/><path d="m149.56 191.633c-1.447-.112-2.92.179-4.234.91l-101.243 56.31c-1.966 1.093-3.338 3.008-3.739 5.221l-40.223 221.611c-.498 2.742.566 5.534 2.763 7.252 1.347 1.053 2.982 1.596 4.632 1.596 1.043 0 2.092-.217 3.077-.659l120.504-54.061z" fill="#4ce166"/><path d="m362.439 191.628c-.996.077-1.981.342-2.894.818l-103.545 53.93v238.158h.001c1.045 0 2.095-.218 3.077-.659l121.781-54.634z" fill="#4ce166"/><path d="m28.154 321.233-8.171 45.019 120.994-63.906 2.809-36.239.466-6.01z" fill="#ffdb56"/><path d="m142.066 288.294-1.089 14.052-120.994 63.906-19.862 109.433c-.498 2.742.566 5.534 2.763 7.252 1.347 1.053 2.982 1.596 4.632 1.596 1.043 0 2.092-.217 3.077-.659l120.504-54.061z" fill="#a8eefc"/><path d="m256.03 276.08-111.778-15.983-3.275 42.249 115.023 174.679v-63.518l-68.637-108.078 68.667 8.213z" fill="#ffbb24"/><path d="m459.946 244.421-48.635-27.051-46.042 10.758.576 7.436 2.274 29.334z" fill="#ffbb24"/><path d="m372.202 317.576-4.36-56.249-2.573-33.199-109.239 47.952v37.562l71.356-31.03z" fill="#ffdb56"/><path d="m511.879 475.685-10.103-55.666-133.657-155.121 4.084 52.678 137.07 165.221c2.084-1.727 3.091-4.439 2.606-7.112z" fill="#ffbb24"/><path d="m256.481 27.465c-57.963 0-105.12 47.118-105.12 105.034 0 35.826 17.009 74.29 50.556 114.322 24.639 29.403 48.943 48.314 49.966 49.105 1.354 1.047 2.976 1.57 4.599 1.57 1.622 0 3.245-.523 4.599-1.57 1.022-.791 25.327-19.702 49.966-49.105 33.547-40.032 50.556-78.495 50.556-114.322-.002-57.916-47.159-105.034-105.122-105.034zm38.93 105.033c0 21.482-17.43 38.898-38.93 38.898s-38.93-17.415-38.93-38.898 17.43-38.898 38.93-38.898 38.93 17.416 38.93 38.898z" fill="#ff4a4a"/><path d="m256.481 27.465c-4.594 0-9.119.298-13.559.872 51.583 6.667 91.562 50.836 91.562 104.162 0 35.826-17.009 74.29-50.556 114.322-15.845 18.908-31.54 33.467-41.005 41.669 5.254 4.552 8.596 7.154 8.96 7.436 1.354 1.047 2.976 1.57 4.599 1.57 1.622 0 3.245-.523 4.599-1.57 1.022-.791 25.327-19.702 49.966-49.105 33.547-40.032 50.556-78.495 50.556-114.322-.002-57.916-47.159-105.034-105.122-105.034z" fill="#e7343f"/><path d="m259.078 483.874 45.285-20.316-48.363-50.051v71.026h.001c1.045 0 2.094-.217 3.077-.659z" fill="#ffdb56"/><g fill="#1ea4e9"><path d="m471.654 254.074c-.401-2.212-1.773-4.128-3.739-5.221l-7.97-4.433-91.827 20.477 133.656 155.121z"/><path d="m255.999 484.533c.001 0 .001 0 0 0v-7.508l-115.022-174.679-9.837 126.895 121.781 54.634c.983.441 2.032.658 3.078.658z"/></g></svg>