<svg enable-background="new 0 0 468.293 468.293" viewBox="0 0 468.293 468.293" xmlns="http://www.w3.org/2000/svg"><g fill="#44c4a1"><path d="m113.129 184.779-113.129-31.011v229.119l113.129-174.444z"/><path d="m113.129 10.709-87.43 21.677c-14.193 3.52-25.699 17.879-25.699 32.072v41.456l113.129 31.011z"/><path d="m442.594 8.632-145.687 32.855v222.16l22.055 6.54 149.331-226.917v-14.734c0-14.193-11.506-23.105-25.699-19.904z"/><path d="m468.293 314.471v-230.622l-126.987 192.965z"/><path d="m296.907 352.08v108.232l145.687-32.855c14.193-3.201 25.699-17.302 25.699-31.495v-33.637l-149.042-44.198z"/><path d="m0 423.466v8.418c0 14.193 11.506 22.846 25.699 19.327l87.43-21.677v-180.511z"/></g><path d="m113.129 136.925-113.129-31.011v47.854l113.129 31.011z" fill="#f6c358"/><path d="m113.129 208.443-113.129 174.444v40.579l113.129-174.443z" fill="#f6c358"/><path d="m296.907 263.647v47.854 40.579l22.344-33.954 149.042 44.199v-47.854l-126.987-37.657 126.987-192.965v-40.579l-149.331 226.917z" fill="#f6c358"/><path d="m113.129 184.779v23.664l13.03-14.741z" fill="#3ea69b"/><path d="m151.091 162.921 112.85-127.672-150.812-24.54v126.216z" fill="#3ea69b"/><path d="m173.434 178.222 123.473 84.55v-222.16l-1.607-.261z" fill="#3ea69b"/><path d="m213.269 445.828 83.638 13.609v-108.232z" fill="#3ea69b"/><path d="m296.907 310.626-148.404-101.623-35.374 40.02v180.511l68.783 11.192z" fill="#3ea69b"/><path d="m295.3 40.351-31.359-5.102-112.85 127.672-37.962-25.996v47.854l13.03 8.923-13.03 14.741v40.58l35.374-40.02 148.404 101.623v-47.854l-123.473-84.55z" fill="#f6c358"/><path d="m213.269 445.828 83.638-94.623v-40.579l-114.995 130.1z" fill="#f6c358"/><path d="m105.466 72.149c0 20.379-36.9 82.045-36.9 82.045 1.411 0-36.9-61.665-36.9-82.045s16.521-36.9 36.9-36.9 36.9 16.52 36.9 36.9z" fill="#ce412d"/><circle cx="68.564" cy="72.18" fill="#fff" r="21.317"/><path d="m378.206 307.087c0 20.379-36.9 82.044-36.9 82.044 1.411 0-36.9-61.665-36.9-82.044s16.521-36.9 36.9-36.9c20.38 0 36.9 16.521 36.9 36.9z" fill="#ce412d"/><circle cx="341.292" cy="307.088" fill="#fff" r="21.317"/></svg>