<svg height="512pt" viewBox="-19 0 512 512.00028" width="512pt" xmlns="http://www.w3.org/2000/svg"><path d="m473.484375 201.859375c0 67.019531-34.628906 125.949219-86.964844 159.875-7.882812 5.117187-14.464843 11.988281-19.097656 20.160156l-68.378906 120.796875c-.15625.269532-.308594.527344-.484375.785156-7.308594 11.617188-24.570313 11.359376-31.441406-.785156l-68.378907-120.796875c-4.621093-8.160156-11.195312-15.03125-19.070312-20.128906-53.085938-34.402344-87.960938-94.515625-86.972657-162.710937 1.5625-108.570313 95.324219-195.910157 205.882813-186.96875 97.910156 7.875 174.90625 89.832031 174.90625 189.773437zm0 0" fill="#44bfd7"/><path d="m473.484375 201.859375c0 67.019531-34.628906 125.949219-86.964844 159.875-7.882812 5.117187-14.464843 11.988281-19.097656 20.160156l-68.378906 120.796875c-.15625.269532-.308594.527344-.484375.785156-.175782-.257812-.332032-.515624-.484375-.785156l-68.382813-120.796875c-4.621094-8.160156-11.195312-15.035156-19.066406-20.132812-53.089844-34.398438-87.964844-94.515625-86.972656-162.707031 1.414062-98.230469 78.304687-179.128907 174.925781-186.96875 97.910156 7.875 174.90625 89.832031 174.90625 189.773437zm0 0" fill="#7cd2e3"/><path d="m423.667969 201.632812c0 77.664063-62.972657 140.585938-140.585938 140.585938-77.648437 0-140.589843-62.941406-140.589843-140.585938 0-83.457031 72.445312-148.910156 156.066406-139.730468 70.359375 7.707031 125.109375 67.328125 125.109375 139.730468zm0 0" fill="#c2eaf2"/><path d="m423.667969 201.632812c0 72.414063-54.75 132.035157-125.109375 139.742188-70.363282-7.707031-125.109375-67.328125-125.109375-139.742188 0-72.402343 54.746093-132.023437 125.109375-139.730468 70.359375 7.707031 125.109375 67.328125 125.109375 139.730468zm0 0" fill="#def4f8"/><path d="m365.757812 260.246094c0 6.054687-2.316406 12.121094-6.941406 16.746094-1.648437 1.648437-3.480468 3.007812-5.425781 4.058593-8.992187 4.910157-20.472656 3.550781-28.074219-4.058593l-38.21875-38.21875c-2.210937-2.210938-5.816406-2.210938-8.042968 0l-12.59375 12.597656-25.609376 25.621094c-1.648437 1.648437-3.472656 2.996093-5.417968 4.058593-3.523438 1.925781-7.425782 2.882813-11.339844 2.882813-6.054688 0-12.121094-2.308594-16.746094-6.941406-9.246094-9.246094-9.246094-24.242188 0-33.488282l38.21875-38.21875c2.214844-2.222656 2.214844-5.820312 0-8.042968l-38.21875-38.21875c-4.621094-4.621094-6.9375-10.675782-6.9375-16.742188s2.316406-12.121094 6.9375-16.746094c7.601563-7.609375 19.09375-8.96875 28.085938-4.058594 1.945312 1.0625 3.769531 2.410157 5.417968 4.058594l34.324219 34.324219 3.878907 3.882813c2.226562 2.222656 5.832031 2.222656 8.042968 0l7.3125-7.300782 30.90625-30.90625c4.625-4.625 10.679688-6.941406 16.746094-6.941406 3.902344 0 7.804688.957031 11.328125 2.882812 1.945313 1.0625 3.777344 2.410157 5.425781 4.058594 9.25 9.246094 9.25 24.242188 0 33.488282l-38.214844 38.21875c-2.226562 2.222656-2.226562 5.820312 0 8.042968l38.214844 38.21875c4.625 4.621094 6.941406 10.6875 6.941406 16.742188zm0 0" fill="#f44545"/><path d="m89.269531 14.117188c3.25-3.1875 3.296875-8.402344.109375-11.648438-3.1875-3.25-8.402344-3.296875-11.648437-.109375-28.25 27.71875-51.257813 67.476563-64.789063 111.949219-13.535156 44.472656-16.570312 90.308594-8.550781 129.066406.804687 3.890625 4.234375 6.570312 8.058594 6.570312.550781 0 1.113281-.054687 1.675781-.171874 4.457031-.921876 7.320312-5.28125 6.398438-9.738282-7.46875-36.101562-4.5625-79.050781 8.179687-120.929687 12.742187-41.878907 34.253906-79.164063 60.566406-104.988281zm0 0" fill="#269ab1"/><path d="m120.566406 33.605469c-3.109375-3.320313-8.324218-3.492188-11.644531-.382813-24.519531 22.949219-44.410156 56.582032-56.007813 94.703125-11.601562 38.117188-13.816406 77.128907-6.238281 109.84375.882813 3.808594 4.273438 6.382813 8.019531 6.382813.617188 0 1.242188-.070313 1.867188-.214844 4.433594-1.027344 7.191406-5.453125 6.167969-9.886719-6.9375-29.945312-4.824219-65.929687 5.949219-101.328125 10.769531-35.402344 29.0625-66.464844 51.503906-87.46875 3.320312-3.109375 3.492187-8.324218.382812-11.648437zm0 0" fill="#44bfd7"/><path d="m365.757812 260.246094c0 6.054687-2.316406 12.121094-6.941406 16.746094-1.648437 1.648437-3.480468 3.007812-5.425781 4.058593-8.992187 4.910157-20.472656 3.550781-28.074219-4.058593l-38.21875-38.21875c-2.210937-2.210938-5.816406-2.210938-8.042968 0l-12.59375 12.597656c-2.203126-10.308594-3.367188-21.007813-3.367188-31.988282 0-21.121093 4.304688-41.242187 12.082031-59.523437l3.878907 3.882813c2.226562 2.222656 5.832031 2.222656 8.042968 0l7.3125-7.300782 30.90625-30.90625c4.625-4.625 10.679688-6.941406 16.746094-6.941406 3.902344 0 7.804688.957031 11.328125 2.882812 1.945313 1.0625 3.777344 2.410157 5.425781 4.058594 9.25 9.246094 9.25 24.242188 0 33.488282l-38.214844 38.21875c-2.226562 2.222656-2.226562 5.820312 0 8.042968l38.214844 38.21875c4.625 4.621094 6.941406 10.6875 6.941406 16.742188zm0 0" fill="#fb5858"/></svg>