<svg height="512" viewBox="0 0 58 58" width="512" xmlns="http://www.w3.org/2000/svg"><g fill="none" fill-rule="evenodd"><path d="m4 15.851h50v38.149h-50z" fill="#f5efca"/><rect fill="#95a5a5" height="4" rx="1" width="58" y="54"/><rect fill="#b0d3f0" height="22" rx="2" width="24" x="8" y="27"/><path d="m38 27h10c1.1045695 0 2 .8954305 2 2v25h-14v-25c0-1.1045695.8954305-2 2-2z" fill="#b0d3f0"/><path d="m36 40h14v2h-14z" fill="#95a5a5"/><path d="m20 37c-1.1045695 0-2-.8954305-2-2s.8954305-2 2-2 2 .8954305 2 2c0 .5522847.4477153 1 1 1s1-.4477153 1-1c-.0068148-1.8184116-1.2393149-3.4034067-3-3.858v-.142c0-.5522847-.4477153-1-1-1s-1 .4477153-1 1v.142c-1.9482742.5014457-3.2190002 2.3742805-2.9650329 4.3699561.2539674 1.9956755 1.953264 3.4905487 3.9650329 3.4880439 1.1045695 0 2 .8954305 2 2s-.8954305 2-2 2-2-.8954305-2-2c0-.5522847-.4477153-1-1-1s-1 .4477153-1 1c.0068148 1.8184116 1.2393149 3.4034067 3 3.858v.142c0 .5522847.4477153 1 1 1s1-.4477153 1-1v-.142c1.9482742-.5014457 3.2190002-2.3742805 2.9650329-4.3699561-.2539674-1.9956755-1.953264-3.4905487-3.9650329-3.4880439z" fill="#f0c419"/><path d="m41 13.46v3.54c0 2.209139-1.790861 4-4 4s-4-1.790861-4-4v-4h7.98c.01.15.02.3.02.46z" fill="#c03a2b"/><path d="m57 13.88v3.12c0 2.209139-1.790861 4-4 4s-4-1.790861-4-4v-3.4c0-.2-.02-.4-.04-.6h7.93c.0764949.2869699.1135025.5830304.11.88z" fill="#c03a2b"/><g fill="#e64c3c"><path d="m13 0-3.82 12.43c-.06.19-.1.38-.14.57h-7.93c.05321754-.276401.14055245-.5451238.26-.8l4.56-9.88c.65464024-1.4145281 2.07133275-2.31996243 3.63-2.32z"/><path d="m26 0-.99 12.85c-.0099933.0495007-.0099933.1004993 0 .15h-7.99c.0160698-.1483969.0428056-.2954439.08-.44l2.9-12.56z"/><path d="m40.98 13h-7.98c.001652-.0502079-.0016979-.1004557-.01-.15l-.99-12.85h6l2.9 12.56c.0371944.1445561.0639302.2916031.08.44z"/><path d="m56.89 13h-7.93c-.04-.19-.08-.38-.14-.57l-3.82-12.43h3.44c1.5586672.00003757 2.9753598.9054719 3.63 2.32l4.56 9.88c.1194476.2548762.2067825.523599.26.8z"/></g><path d="m9.04 13c-.02.2-.04.4-.04.6v3.4c0 2.209139-1.790861 4-4 4s-4-1.790861-4-4v-3.12c-.00350247-.2969696.03350509-.5930301.11-.88z" fill="#c03a2b"/><path d="m20 0-2.9 12.56c-.0371944.1445561-.0639302.2916031-.08.44h-7.98c.04-.19.08-.38.14-.57l3.82-12.43z" fill="#ecf0f1"/><path d="m17.02 13c-.01.15-.02.3-.02.46v3.54c0 2.209139-1.790861 4-4 4s-4-1.790861-4-4v-3.4c0-.2.02-.4.04-.6z" fill="#d1d4d1"/><path d="m33 13h-7.99c-.0099933-.0495007-.0099933-.1004993 0-.15l.99-12.85h6l.99 12.85c.0083021.0495443.011652.0997921.01.15z" fill="#ecf0f1"/><path d="m25.01 13c-.0083021.0495443-.011652.0997921-.01.15v3.85c0 2.209139-1.790861 4-4 4s-4-1.790861-4-4v-3.54c0-.16.01-.31.02-.46z" fill="#c03a2b"/><path d="m33 13v4c0 2.209139-1.790861 4-4 4s-4-1.790861-4-4v-3.85c-.001652-.0502079.0016979-.1004557.01-.15z" fill="#d1d4d1"/><path d="m49 13.6v3.4c0 2.209139-1.790861 4-4 4s-4-1.790861-4-4v-3.54c0-.16-.01-.31-.02-.46h7.98c.02.2.04.4.04.6z" fill="#d1d4d1"/><path d="m48.96 13h-7.98c-.0160698-.1483969-.0428056-.2954439-.08-.44l-2.9-12.56h7l3.82 12.43c.06.19.1.38.14.57z" fill="#ecf0f1"/></g></svg>