<svg enable-background="new 0 0 512 512" viewBox="0 0 512 512" xmlns="http://www.w3.org/2000/svg"><path d="m450.1 58h-380.1c-22.6 0-41 18.5-41 41.1v269.3c0 22.6 18.5 41.1 41.1 41.1h380.1c22.6 0 41.1-18.5 41.1-41.1v-269.3c-.1-22.6-18.6-41.1-41.2-41.1z" fill="#75798a"/><path d="m59.9 368.4v-269.3c0-22.6 18.5-41.1 41.1-41.1h-31c-22.6 0-41 18.5-41 41.1v269.3c0 22.6 18.5 41.1 41.1 41.1h30.9c-22.6 0-41.1-18.5-41.1-41.1z" fill="#7e8292"/><path d="m183.3 132v239.9h264c3.6 0 6.4-2.9 6.4-6.4v-233.5z" fill="#e4eaf8"/><path d="m447.3 95.2h-334.3v39.9h340.8v-33.5c0-3.5-2.9-6.4-6.5-6.4z" fill="#00c3ff"/><path d="m66.4 135.1h119v120.5h-119z" fill="#8ef"/><path d="m506 409.5h-500c-3.3 0-6 2.7-6 6v12.5c0 15.3 12.5 27.8 27.8 27.8h456.4c15.3 0 27.8-12.5 27.8-27.8v-12.5c0-3.4-2.7-6-6-6z" fill="#e4eaf8"/><path d="m484.2 432.6h-456.4c-12.8 0-23.6-8.7-26.8-20.5-.6.9-1 2.1-1 3.3v12.5c0 15.3 12.5 27.8 27.8 27.8h456.4c15.3 0 27.8-12.5 27.8-27.8v-12.5c0-1.2-.4-2.4-1-3.3-3.3 11.8-14.1 20.5-26.8 20.5z" fill="#d8dce5"/><path d="m185.4 409.5v10.8c0 6.8 5.6 12.4 12.4 12.4h124.6c6.8 0 12.4-5.6 12.4-12.4v-10.8z" fill="#c3c8d1"/><path d="m216.3 420.2v-10.8h-30.9v10.8c0 6.8 5.6 12.4 12.4 12.4h30.9c-6.8 0-12.4-5.6-12.4-12.4z" fill="#b8bdc4"/><path d="m115.1 95.2h-42.3c-3.6 0-6.4 2.9-6.4 6.4v33.5h48.7z" fill="#f25c5c"/><path d="m103.7 95.2h-30.9c-3.6 0-6.4 2.9-6.4 6.4v33.5h30.9v-33.5c0-3.5 2.9-6.4 6.4-6.4z" fill="#e54a4a"/><path d="m66.4 135.1h30.9v120.5h-30.9z" fill="#5bddfc"/><path d="m152.3 195.6c0 14.6-11.8 26.4-26.4 26.4s-26.4-11.8-26.4-26.4 11.8-26.4 26.4-26.4 26.4 11.8 26.4 26.4z" fill="#e4eaf8"/><path d="m66.4 365.4c0 3.6 2.9 6.4 6.4 6.4h112.6v-39.5h-119z" fill="#5bddfc"/><path d="m66.4 292.9h119v39.5h-119z" fill="#8ef"/><path d="m66.4 253.5h119v39.5h-119z" fill="#5bddfc"/><path d="m66.4 292.9h30.9v39.5h-30.9z" fill="#5bddfc"/><g fill="#00c3ff"><path d="m97.3 332.4h-30.9v33c0 3.6 2.9 6.4 6.4 6.4h24.5z"/><path d="m66.4 253.5h30.9v39.5h-30.9z"/></g></svg>