<svg xmlns="http://www.w3.org/2000/svg" viewBox="0 0 500 500"><g id="freepik--background-simple--inject-215"><path d="M181.3,206.75c13.16-46.42-25.53-103.23,10.52-143.95,28.72-32.44,95.4-30.28,127.42-7.27,18.43,13.25,30.77,33.83,50.34,47.1,21,14.22,49.07,12,66.83,34.85,24,30.77,10.51,88-22.11,112.54-24.77,18.61-45.48,17.76-71.84,26.26-38.32,12.36-54.72,27-88.4,46.22-47.22,27-110.86,44.35-163.5,13.3-28.82-17-56.44-62-12.88-84.42C114.36,232.49,161.56,276.35,181.3,206.75Z" style="fill:#57E0F1"></path><path d="M181.3,206.75c13.16-46.42-25.53-103.23,10.52-143.95,28.72-32.44,95.4-30.28,127.42-7.27,18.43,13.25,30.77,33.83,50.34,47.1,21,14.22,49.07,12,66.83,34.85,24,30.77,10.51,88-22.11,112.54-24.77,18.61-45.48,17.76-71.84,26.26-38.32,12.36-54.72,27-88.4,46.22-47.22,27-110.86,44.35-163.5,13.3-28.82-17-56.44-62-12.88-84.42C114.36,232.49,161.56,276.35,181.3,206.75Z" style="fill:#fff;opacity:0.9"></path></g><g id="freepik--Shadow--inject-215"><ellipse cx="250" cy="416.24" rx="193.89" ry="11.32" style="fill:#f5f5f5"></ellipse></g></svg>