<svg xmlns="http://www.w3.org/2000/svg" viewBox="0 0 500 500"><g id="freepik--Items--inject-164"><g id="freepik--Item--inject-164"><path d="M48.37,329.12l-3-1.72a3.73,3.73,0,0,1-1.7-2.94V243.85a3.77,3.77,0,0,1,1.7-2.94l98.47-56.85a3.77,3.77,0,0,1,3.4,0l3,1.72a3.73,3.73,0,0,1,1.7,2.94v80.61a3.73,3.73,0,0,1-1.7,2.93L51.76,329.12A3.75,3.75,0,0,1,48.37,329.12Z" style="fill:#e0e0e0"></path><path d="M151.92,188.44c-.11-.88-.83-1.2-1.68-.7L51.77,244.59a3.55,3.55,0,0,0-1.2,1.26l-6.37-3.67a3.32,3.32,0,0,1,1.2-1.26l98.48-56.86a3.75,3.75,0,0,1,3.39,0l3,1.72A3.77,3.77,0,0,1,151.92,188.44Z" style="fill:#ebebeb"></path><path d="M51,329c-.5,0-.55-.58-.55-.82V247.53a3.38,3.38,0,0,1,1.5-2.6l98.48-56.85a1.11,1.11,0,0,1,.56-.18c.49,0,.54.57.54.82v80.61a3.34,3.34,0,0,1-1.5,2.59L51.57,328.78A1.17,1.17,0,0,1,51,329Z" style="fill:#fafafa"></path><path d="M151,188.29c.15,0,.15.38.15.43v80.61a3,3,0,0,1-1.3,2.26L51.37,328.44a.87.87,0,0,1-.36.13c-.15,0-.16-.39-.16-.43V247.53a3,3,0,0,1,1.31-2.26l98.47-56.86a.78.78,0,0,1,.37-.12m0-.79a1.52,1.52,0,0,0-.76.24L51.76,244.59a3.77,3.77,0,0,0-1.69,2.94v80.61c0,.77.38,1.21.94,1.21a1.5,1.5,0,0,0,.75-.23l98.48-56.86a3.73,3.73,0,0,0,1.7-2.93V188.72c0-.77-.39-1.22-.94-1.22Z" style="fill:#e0e0e0"></path><path d="M99.33,289.66l-.74-.42a1.83,1.83,0,0,1-.83-1.45V280a1.83,1.83,0,0,1,.83-1.45l28.65-16.54a1.84,1.84,0,0,1,1.68,0l.73.42a1.84,1.84,0,0,1,.84,1.45v7.75a1.84,1.84,0,0,1-.84,1.45L101,289.66A1.82,1.82,0,0,1,99.33,289.66Z" style="fill:#77D0D2"></path><path d="M99.33,289.66l-.74-.42a1.83,1.83,0,0,1-.83-1.45V280a1.83,1.83,0,0,1,.83-1.45l28.65-16.54a1.84,1.84,0,0,1,1.68,0l.73.42a1.84,1.84,0,0,1,.84,1.45v7.75a1.84,1.84,0,0,1-.84,1.45L101,289.66A1.82,1.82,0,0,1,99.33,289.66Z" style="opacity:0.2"></path><path d="M130.48,263.78c-.06-.43-.41-.59-.83-.35L101,280a1.76,1.76,0,0,0-.59.62L98,279.21a1.68,1.68,0,0,1,.59-.62l28.65-16.54a1.84,1.84,0,0,1,1.68,0l.73.42A1.83,1.83,0,0,1,130.48,263.78Z" style="fill:#77D0D2"></path><path d="M130.48,263.78c-.06-.43-.41-.59-.83-.35L101,280a1.76,1.76,0,0,0-.59.62L98,279.21a1.68,1.68,0,0,1,.59-.62l28.65-16.54a1.84,1.84,0,0,1,1.68,0l.73.42A1.83,1.83,0,0,1,130.48,263.78Z" style="fill:#fff;opacity:0.6000000000000001"></path><path d="M100.16,281.42v7.76c0,.54.38.75.84.48l28.65-16.54a1.84,1.84,0,0,0,.84-1.45v-7.75c0-.54-.38-.75-.84-.49L101,280A1.84,1.84,0,0,0,100.16,281.42Z" style="fill:#77D0D2"></path><path d="M134.35,269.45l-.74-.42a1.87,1.87,0,0,1-.84-1.45v-7.76a1.87,1.87,0,0,1,.84-1.45l7.29-4.21a1.82,1.82,0,0,1,1.67,0l.74.42a1.86,1.86,0,0,1,.83,1.45v7.76a1.86,1.86,0,0,1-.83,1.45L136,269.45A1.89,1.89,0,0,1,134.35,269.45Z" style="fill:#e0e0e0"></path><path d="M144.14,255.9c-.06-.44-.41-.59-.83-.35L136,259.76a1.68,1.68,0,0,0-.59.62L133,259a1.68,1.68,0,0,1,.59-.62l7.29-4.21a1.89,1.89,0,0,1,1.67,0l.74.42A1.93,1.93,0,0,1,144.14,255.9Z" style="fill:#ebebeb"></path><path d="M135.65,269.37c-.25,0-.27-.28-.27-.41v-7.75a1.66,1.66,0,0,1,.74-1.29l7.28-4.2a.57.57,0,0,1,.28-.09c.25,0,.27.28.27.4v7.76a1.67,1.67,0,0,1-.74,1.28l-7.29,4.21A.54.54,0,0,1,135.65,269.37Z" style="fill:#fafafa"></path><path d="M143.68,255.82c.08,0,.08.19.08.21v7.76a1.43,1.43,0,0,1-.65,1.11l-7.28,4.21a.4.4,0,0,1-.18.07c-.08,0-.08-.19-.08-.22v-7.75a1.48,1.48,0,0,1,.64-1.12l7.29-4.21a.48.48,0,0,1,.18-.06m0-.38a.71.71,0,0,0-.37.11L136,259.76a1.84,1.84,0,0,0-.84,1.45V269c0,.38.19.6.47.6a.73.73,0,0,0,.37-.11l7.29-4.21a1.86,1.86,0,0,0,.83-1.45V256c0-.38-.18-.59-.46-.59Z" style="fill:#e0e0e0"></path><path d="M100.19,229.48l39-22.52c1.31-.76,2.38-.15,2.38,1.37v0a5.26,5.26,0,0,1-2.38,4.11l-39,22.52c-1.31.76-2.37.15-2.37-1.37v0A5.25,5.25,0,0,1,100.19,229.48Z" style="fill:#77D0D2"></path><path d="M100.19,229.48l39-22.52c1.31-.76,2.38-.15,2.38,1.37v0a5.26,5.26,0,0,1-2.38,4.11l-39,22.52c-1.31.76-2.37.15-2.37-1.37v0A5.25,5.25,0,0,1,100.19,229.48Z" style="opacity:0.25"></path><path d="M101.53,241.33a1.77,1.77,0,0,1,.75-.11,1.17,1.17,0,0,1,.55.21,1,1,0,0,1,.34.43,1.59,1.59,0,0,1,.13.52.5.5,0,0,1-.07.27.53.53,0,0,1-.17.19l-.62.36c-.1.05-.17.07-.22.05a.34.34,0,0,1-.14-.13.62.62,0,0,0-.4-.28,1.24,1.24,0,0,0-.8.25,2.61,2.61,0,0,0-.43.31,2.79,2.79,0,0,0-.37.4,2.11,2.11,0,0,0-.24.44,1.2,1.2,0,0,0-.09.45.65.65,0,0,0,.1.39.42.42,0,0,0,.31.11,2.28,2.28,0,0,0,.56-.09l.82-.23a3.17,3.17,0,0,1,.9-.16,1.11,1.11,0,0,1,.6.15.83.83,0,0,1,.33.47,2.6,2.6,0,0,1,.1.8,3.37,3.37,0,0,1-.13.93,4.41,4.41,0,0,1-.38.94,5.13,5.13,0,0,1-.61.88,5.45,5.45,0,0,1-.82.77v.8a.63.63,0,0,1-.07.26.46.46,0,0,1-.17.19l-.72.42a.15.15,0,0,1-.16,0,.21.21,0,0,1-.07-.18v-.8a2.43,2.43,0,0,1-.75.15,1.33,1.33,0,0,1-.61-.12,1.1,1.1,0,0,1-.42-.41,1.66,1.66,0,0,1-.17-.72.45.45,0,0,1,.06-.27.5.5,0,0,1,.17-.18l.62-.36a.29.29,0,0,1,.23-.06.21.21,0,0,1,.13.13,1.7,1.7,0,0,0,.15.22.36.36,0,0,0,.24.13.72.72,0,0,0,.38,0,2,2,0,0,0,.56-.24c.17-.11.34-.22.51-.35a2.5,2.5,0,0,0,.43-.43,2.41,2.41,0,0,0,.3-.48,1.31,1.31,0,0,0,.11-.52.42.42,0,0,0-.12-.35.52.52,0,0,0-.37-.06,4.17,4.17,0,0,0-.63.13l-.85.23a3.39,3.39,0,0,1-.77.11,1,1,0,0,1-.55-.16,1,1,0,0,1-.32-.48,2.83,2.83,0,0,1-.11-.85,3.33,3.33,0,0,1,.14-.93,4.91,4.91,0,0,1,.36-.91,5.58,5.58,0,0,1,.56-.84,5.36,5.36,0,0,1,.72-.71v-.8a.54.54,0,0,1,.07-.26.39.39,0,0,1,.16-.19l.72-.42a.17.17,0,0,1,.17,0,.26.26,0,0,1,.07.19Z" style="fill:#455a64"></path><path d="M106.67,238.71a.54.54,0,0,1,.07-.26.44.44,0,0,1,.16-.19l3.32-1.92a.17.17,0,0,1,.17,0,.25.25,0,0,1,.07.18v.84a.68.68,0,0,1-.07.26.53.53,0,0,1-.17.19l-2.48,1.43-.1,1.56a2.58,2.58,0,0,1,.48-.42c.15-.11.28-.19.38-.25a2.78,2.78,0,0,1,.92-.35,1.17,1.17,0,0,1,.73.1,1.1,1.1,0,0,1,.48.57,2.66,2.66,0,0,1,.18,1.06,5.16,5.16,0,0,1-.18,1.4,5.25,5.25,0,0,1-.49,1.16,4.33,4.33,0,0,1-.74.94,4.78,4.78,0,0,1-.9.67,3.13,3.13,0,0,1-1,.42,1.11,1.11,0,0,1-.72-.1,1,1,0,0,1-.43-.49,2,2,0,0,1-.16-.78.45.45,0,0,1,.06-.27.5.5,0,0,1,.17-.18l.72-.42a.18.18,0,0,1,.16,0s.08.07.1.15a.64.64,0,0,0,.16.34.47.47,0,0,0,.27.12.68.68,0,0,0,.33-.06,2.78,2.78,0,0,0,.39-.19,2.09,2.09,0,0,0,.81-.83,2.29,2.29,0,0,0,.31-1.18.73.73,0,0,0-.31-.7.83.83,0,0,0-.81.1,1.9,1.9,0,0,0-.42.3,2.05,2.05,0,0,0-.25.27,2.13,2.13,0,0,1-.18.22.67.67,0,0,1-.2.17l-.81.47a.13.13,0,0,1-.17,0s-.07-.09-.07-.18Z" style="fill:#455a64"></path><path d="M112.73,241.34a.15.15,0,0,1,.17,0,.21.21,0,0,1,.07.18v1.16a.54.54,0,0,1-.07.26.46.46,0,0,1-.17.19l-.82.47a.15.15,0,0,1-.17,0,.25.25,0,0,1-.07-.18v-1.16a.68.68,0,0,1,.07-.26.46.46,0,0,1,.17-.19Z" style="fill:#455a64"></path><path d="M114.49,241.79a.36.36,0,0,1,0-.11l0-.07,1.16-2.9a2.35,2.35,0,0,1-.91.33,1.27,1.27,0,0,1-.74-.15,1.36,1.36,0,0,1-.49-.6,2.69,2.69,0,0,1-.18-1.06,4.58,4.58,0,0,1,.18-1.27,5.89,5.89,0,0,1,.5-1.18,5,5,0,0,1,.75-1,4.21,4.21,0,0,1,.93-.73,2.61,2.61,0,0,1,.92-.34,1.22,1.22,0,0,1,.75.14,1.29,1.29,0,0,1,.5.61,2.69,2.69,0,0,1,.18,1.06,3.71,3.71,0,0,1-.06.67,3.5,3.5,0,0,1-.15.64,6.21,6.21,0,0,1-.2.61c-.07.2-.15.39-.22.58l-1.66,4.1a1,1,0,0,1-.09.21.47.47,0,0,1-.18.19l-.8.46c-.06,0-.12,0-.16,0A.22.22,0,0,1,114.49,241.79Zm.09-5.25c0,.44.11.71.33.82a.89.89,0,0,0,.83-.14,2.36,2.36,0,0,0,.83-.83,2.3,2.3,0,0,0,.32-1.18c0-.44-.11-.71-.32-.82a.87.87,0,0,0-.83.12,2.4,2.4,0,0,0-1.16,2Z" style="fill:#455a64"></path><path d="M119.82,238.71a.31.31,0,0,1,0-.1l0-.08,1.17-2.89a2.21,2.21,0,0,1-.92.32,1.16,1.16,0,0,1-.73-.14,1.27,1.27,0,0,1-.49-.61,2.67,2.67,0,0,1-.18-1.05,4.65,4.65,0,0,1,.18-1.28,5.58,5.58,0,0,1,.5-1.18,4.93,4.93,0,0,1,.75-1,4.16,4.16,0,0,1,.92-.73,2.26,2.26,0,0,1,.93-.34,1.16,1.16,0,0,1,.75.14,1.21,1.21,0,0,1,.5.6,2.75,2.75,0,0,1,.18,1.07,3.71,3.71,0,0,1-.06.67c0,.22-.09.43-.15.64s-.13.41-.2.61-.15.39-.23.57L121.12,238a1.65,1.65,0,0,1-.09.21.45.45,0,0,1-.18.18l-.79.46a.13.13,0,0,1-.17,0S119.82,238.8,119.82,238.71Zm.09-5.24c0,.43.11.71.32.81a.88.88,0,0,0,.83-.13,2.28,2.28,0,0,0,.83-.83,2.25,2.25,0,0,0,.33-1.19c0-.43-.11-.7-.33-.82a.88.88,0,0,0-.83.12,2.47,2.47,0,0,0-.83.84A2.37,2.37,0,0,0,119.91,233.47Z" style="fill:#455a64"></path><path d="M104.29,280.38a.11.11,0,0,1,.12,0,.26.26,0,0,1,.07.13l1.21,3.47a.09.09,0,0,1,0,0,.31.31,0,0,1,0,.15.24.24,0,0,1-.1.1l-.35.21c-.07,0-.11,0-.14,0a.19.19,0,0,1-.06-.07l-.21-.62-1.56.91-.22.86s0,.08,0,.14a.36.36,0,0,1-.14.13l-.36.21a.07.07,0,0,1-.09,0,.11.11,0,0,1,0-.1v0l1.22-4.88a.86.86,0,0,1,.07-.21.23.23,0,0,1,.12-.12Zm.27,2.75-.54-1.57-.55,2.2Z" style="fill:#455a64"></path><path d="M107.07,279.9a1,1,0,0,1,.27-.12.82.82,0,0,1,.21,0,.34.34,0,0,1,.16,0,.26.26,0,0,1,.1.07v-1.41a.42.42,0,0,1,0-.15.24.24,0,0,1,.1-.1l.37-.22a.09.09,0,0,1,.1,0,.11.11,0,0,1,0,.1v4.33a.28.28,0,0,1,0,.15.27.27,0,0,1-.1.11l-.37.22a.09.09,0,0,1-.1,0,.16.16,0,0,1,0-.11v-.15a1.18,1.18,0,0,1-.1.19,1,1,0,0,1-.16.22,1.45,1.45,0,0,1-.21.22,1.35,1.35,0,0,1-.27.2.78.78,0,0,1-.45.13.55.55,0,0,1-.34-.14,1,1,0,0,1-.23-.37,2.09,2.09,0,0,1-.09-.53v-.47a3.68,3.68,0,0,1,.09-.63,3.38,3.38,0,0,1,.23-.63,2.34,2.34,0,0,1,.34-.54A1.67,1.67,0,0,1,107.07,279.9Zm-.46,1.87a1.15,1.15,0,0,0,0,.37c0,.27.08.44.19.5a.39.39,0,0,0,.41-.05,1,1,0,0,0,.41-.42,1.45,1.45,0,0,0,.19-.66,2,2,0,0,0,0-.26,1.63,1.63,0,0,0,0-.24.51.51,0,0,0-.19-.44.41.41,0,0,0-.41,0,1.22,1.22,0,0,0-.41.43A1.66,1.66,0,0,0,106.61,281.77Z" style="fill:#455a64"></path><path d="M110.13,278.13a1.23,1.23,0,0,1,.28-.12.82.82,0,0,1,.21,0,.38.38,0,0,1,.16,0,.26.26,0,0,1,.1.07v-1.41a.28.28,0,0,1,0-.15.36.36,0,0,1,.1-.11l.37-.21a.09.09,0,0,1,.1,0,.13.13,0,0,1,0,.1v4.33a.42.42,0,0,1,0,.15.27.27,0,0,1-.1.11l-.37.22a.09.09,0,0,1-.1,0,.12.12,0,0,1,0-.11v-.15a1.18,1.18,0,0,1-.1.19,1.53,1.53,0,0,1-.16.22,2.13,2.13,0,0,1-.21.22,1.18,1.18,0,0,1-.28.2.74.74,0,0,1-.44.13.56.56,0,0,1-.35-.15.92.92,0,0,1-.22-.36,1.78,1.78,0,0,1-.09-.53c0-.07,0-.14,0-.23s0-.17,0-.24a3,3,0,0,1,.09-.64,3.52,3.52,0,0,1,.22-.62,2.5,2.5,0,0,1,.35-.54A1.79,1.79,0,0,1,110.13,278.13Zm-.46,1.87a2.28,2.28,0,0,0,0,.37c0,.27.09.44.2.5a.4.4,0,0,0,.41-.05,1.07,1.07,0,0,0,.41-.43,1.41,1.41,0,0,0,.19-.65,2,2,0,0,0,0-.26,1.85,1.85,0,0,0,0-.25.5.5,0,0,0-.19-.43.39.39,0,0,0-.41,0,1.18,1.18,0,0,0-.41.42A1.75,1.75,0,0,0,109.67,280Z" style="fill:#455a64"></path><path d="M114.11,278.1a.41.41,0,0,0,.08.28c0,.05.16,0,.3-.06l.31-.17a.07.07,0,0,1,.09,0,.11.11,0,0,1,0,.1v.44a.31.31,0,0,1,0,.15.22.22,0,0,1-.09.1l-.37.21q-.47.27-.72.12c-.16-.11-.25-.37-.25-.78v-1.42l-.32.19a.09.09,0,0,1-.1,0,.13.13,0,0,1,0-.1v-.44a.42.42,0,0,1,0-.15.24.24,0,0,1,.1-.1l.32-.19V275.2a.42.42,0,0,1,0-.15.36.36,0,0,1,.1-.11l.37-.21a.12.12,0,0,1,.1,0,.18.18,0,0,1,0,.11v1.07l.64-.36a.06.06,0,0,1,.09,0,.12.12,0,0,1,0,.11v.43a.28.28,0,0,1,0,.15.35.35,0,0,1-.09.11l-.64.37Z" style="fill:#455a64"></path><path d="M116.55,274.43a1.11,1.11,0,0,1,.49-.17.7.7,0,0,1,.39.08.81.81,0,0,1,.25.32,1.27,1.27,0,0,1,.11.5.66.66,0,0,1,0,.15v.37a.66.66,0,0,1,0,.15,2.78,2.78,0,0,1-.11.63,3,3,0,0,1-.25.61,2.9,2.9,0,0,1-.39.53,2.09,2.09,0,0,1-.49.4,1.25,1.25,0,0,1-.49.17.58.58,0,0,1-.38-.09.67.67,0,0,1-.26-.31,1.47,1.47,0,0,1-.11-.5.66.66,0,0,1,0-.15v-.36a.71.71,0,0,1,0-.16,2.32,2.32,0,0,1,.11-.63,2.81,2.81,0,0,1,.26-.62,2.45,2.45,0,0,1,.38-.53A2.05,2.05,0,0,1,116.55,274.43Zm.6,1.14a.73.73,0,0,0-.07-.3.29.29,0,0,0-.14-.13.31.31,0,0,0-.19,0l-.2.09a1,1,0,0,0-.2.15,1.29,1.29,0,0,0-.19.21,2.09,2.09,0,0,0-.14.3,2,2,0,0,0-.07.38.76.76,0,0,1,0,.14v.33a.62.62,0,0,1,0,.12.82.82,0,0,0,.07.3.31.31,0,0,0,.14.14.31.31,0,0,0,.19,0l.2-.09.2-.14a1,1,0,0,0,.19-.22,1.4,1.4,0,0,0,.14-.3,1.43,1.43,0,0,0,.07-.38s0-.07,0-.13v-.33C117.16,275.64,117.15,275.6,117.15,275.57Z" style="fill:#455a64"></path><path d="M119.67,276.13a.07.07,0,0,1-.09,0,.12.12,0,0,1,0-.1v-4.27a.28.28,0,0,1,0-.15.35.35,0,0,1,.09-.11l1.46-.84a1.18,1.18,0,0,1,.53-.18.55.55,0,0,1,.35.13.64.64,0,0,1,.18.31,1.34,1.34,0,0,1,.06.4,1.5,1.5,0,0,1,0,.37,2,2,0,0,1-.1.32,2,2,0,0,1-.11.25l-.09.15a.65.65,0,0,1,.28.23,1,1,0,0,1,.13.57,2.11,2.11,0,0,1-.07.54,2.88,2.88,0,0,1-.2.56,2.22,2.22,0,0,1-.34.52,1.71,1.71,0,0,1-.46.39Zm1.91-4.39c0-.17,0-.28-.12-.31s-.2,0-.38.08l-.87.51v1l.87-.51a.93.93,0,0,0,.38-.35A.83.83,0,0,0,121.58,271.74ZM120.21,275l.91-.53a.92.92,0,0,0,.4-.38.91.91,0,0,0,.13-.48.37.37,0,0,0-.13-.34c-.09-.05-.22,0-.4.07l-.91.53Z" style="fill:#455a64"></path><path d="M122.89,271.68a2.13,2.13,0,0,1,.1-.35,1.77,1.77,0,0,1,.2-.42,2.4,2.4,0,0,1,.32-.41,2.19,2.19,0,0,1,.44-.35,1.45,1.45,0,0,1,.46-.17.52.52,0,0,1,.35.06.54.54,0,0,1,.22.3,1.49,1.49,0,0,1,.08.55v1.95a.27.27,0,0,1,0,.14.17.17,0,0,1-.09.11l-.38.22a.08.08,0,0,1-.09,0,.11.11,0,0,1,0-.1V273a2,2,0,0,1-.3.5,1.58,1.58,0,0,1-.5.42,1,1,0,0,1-.38.15A.49.49,0,0,1,123,274a.47.47,0,0,1-.18-.23,1,1,0,0,1-.06-.38,1.61,1.61,0,0,1,.24-.85,2.78,2.78,0,0,1,.65-.73l.81-.65c0-.18,0-.28-.13-.3a.43.43,0,0,0-.34.08.74.74,0,0,0-.19.15,1.07,1.07,0,0,0-.13.21l-.09.12a.24.24,0,0,1-.08.06l-.46.27a.08.08,0,0,1-.08,0S122.89,271.73,122.89,271.68Zm.83,1.38a1.33,1.33,0,0,0,.3-.23,1.29,1.29,0,0,0,.22-.3,1,1,0,0,0,.13-.31,1.17,1.17,0,0,0,0-.3v-.07l-.67.55a1.22,1.22,0,0,0-.3.31.52.52,0,0,0-.09.29c0,.09,0,.14.11.14A.48.48,0,0,0,123.72,273.06Z" style="fill:#455a64"></path><path d="M126.85,272.65a1,1,0,0,0,.21-.17,1.29,1.29,0,0,0,.2-.25,1.57,1.57,0,0,0,.15-.32,1.5,1.5,0,0,0,0-.37v-.24a1.82,1.82,0,0,1-.1.19,2.39,2.39,0,0,1-.16.22,2.13,2.13,0,0,1-.21.22,1.55,1.55,0,0,1-.28.2.81.81,0,0,1-.44.13.56.56,0,0,1-.35-.15.92.92,0,0,1-.22-.36,2.17,2.17,0,0,1-.09-.54c0-.06,0-.14,0-.23s0-.16,0-.23a3.65,3.65,0,0,1,.09-.64,3.26,3.26,0,0,1,.22-.62,2.5,2.5,0,0,1,.35-.54,1.61,1.61,0,0,1,.44-.39,1.23,1.23,0,0,1,.28-.12.53.53,0,0,1,.21,0,.27.27,0,0,1,.16,0l.1.06v-.15a.42.42,0,0,1,0-.15.24.24,0,0,1,.1-.1l.37-.22a.09.09,0,0,1,.1,0,.13.13,0,0,1,0,.1v3.1a2.77,2.77,0,0,1-.34,1.4,2.44,2.44,0,0,1-.92.94,1.86,1.86,0,0,1-.47.18.75.75,0,0,1-.37,0,.55.55,0,0,1-.26-.19.68.68,0,0,1-.1-.33.28.28,0,0,1,0-.15.25.25,0,0,1,.09-.11l.34-.19a.11.11,0,0,1,.12,0l.08.07a.23.23,0,0,0,.18.08A.67.67,0,0,0,126.85,272.65Zm-.6-2.22a2.16,2.16,0,0,0,0,.36c0,.28.09.45.2.51a.42.42,0,0,0,.41-.05,1.14,1.14,0,0,0,.41-.43,1.41,1.41,0,0,0,.19-.66,1.85,1.85,0,0,0,0-.25,1.7,1.7,0,0,0,0-.25.5.5,0,0,0-.19-.43.37.37,0,0,0-.41,0,1.1,1.1,0,0,0-.41.42A1.71,1.71,0,0,0,126.25,270.43Z" style="fill:#455a64"></path><path d="M99.58,268.66a2.5,2.5,0,0,1,.07-.54,2.33,2.33,0,0,1,.2-.52,2.26,2.26,0,0,1,.31-.45,2,2,0,0,1,.45-.37,1.11,1.11,0,0,1,.45-.16.55.55,0,0,1,.32.09.65.65,0,0,1,.19.3,1.4,1.4,0,0,1,.08.45c0,.06,0,.12,0,.19v.45c0,.07,0,.14,0,.2a3.09,3.09,0,0,1-.07.52,2.3,2.3,0,0,1-.18.5l.26.36,0,0a.29.29,0,0,1,0,.09l-.06.06-.33.19s-.08,0-.1,0l0-.05-.12-.15a1.54,1.54,0,0,1-.19.17,1.1,1.1,0,0,1-.21.14,1.07,1.07,0,0,1-.45.16.41.41,0,0,1-.31-.09.58.58,0,0,1-.2-.29,1.52,1.52,0,0,1-.07-.45,1.21,1.21,0,0,1,0-.2v-.44A1.21,1.21,0,0,1,99.58,268.66Zm1.59-.9a.48.48,0,0,0-.16-.43c-.1-.07-.23-.05-.4,0a1.06,1.06,0,0,0-.39.42,1.35,1.35,0,0,0-.17.61v.8a.53.53,0,0,0,.17.43.36.36,0,0,0,.39-.05,1,1,0,0,0,.4-.41,1.27,1.27,0,0,0,.16-.62c0-.12,0-.25,0-.4S101.18,267.87,101.17,267.76Z" style="fill:#455a64"></path><path d="M102.7,268a.27.27,0,0,0,.06.2s.11,0,.22,0l.22-.12a0,0,0,0,1,.06,0s0,0,0,.07v.31a.19.19,0,0,1,0,.1.18.18,0,0,1-.06.08l-.27.15c-.22.13-.39.16-.51.08s-.17-.26-.17-.55v-1l-.24.13a0,0,0,0,1-.06,0,.08.08,0,0,1,0-.07v-.31a.26.26,0,0,1,0-.11.22.22,0,0,1,.06-.07l.24-.14V266a.23.23,0,0,1,0-.11.14.14,0,0,1,.06-.07l.27-.16h.07s0,0,0,.07v.77l.46-.26s0,0,.07,0,0,0,0,.07v.31a.19.19,0,0,1,0,.1s0,.07-.07.08l-.46.26Z" style="fill:#455a64"></path><path d="M104.19,267.92l-.7-1.75v0a.19.19,0,0,1,0-.1s0-.07.07-.08l.26-.15a.08.08,0,0,1,.08,0,.1.1,0,0,1,0,.05l.47,1.19.47-1.73a.26.26,0,0,1,0-.1.27.27,0,0,1,.07-.08l.27-.15a0,0,0,0,1,.06,0,.08.08,0,0,1,0,.07v0l-1,3.63a.42.42,0,0,1,0,.1s0,.07-.08.08l-.26.16h-.07a.1.1,0,0,1,0-.08v0Z" style="fill:#455a64"></path><path d="M112.21,262.3h-.06a.1.1,0,0,1,0-.08v-.31a.19.19,0,0,1,0-.1.17.17,0,0,1,.06-.08l1.08-.62s0,0,.07,0a.12.12,0,0,1,0,.07v.31a.43.43,0,0,1,0,.11.19.19,0,0,1-.07.08Z" style="fill:#455a64"></path><path d="M115.3,259.41a.15.15,0,0,1,0-.08.49.49,0,0,1,0-.11l.77-1.24a.41.41,0,0,1,0-.09.19.19,0,0,1,.07-.06l.27-.16s0,0,.07,0,0,0,0,.07v3a.19.19,0,0,1,0,.1.19.19,0,0,1-.07.08l-.28.16s0,0-.07,0,0,0,0-.07v-2.32l-.5.81a.16.16,0,0,1-.07.07s0,0-.06,0Z" style="fill:#455a64"></path><path d="M119.74,257.94v.86a.23.23,0,0,1,0,.11.14.14,0,0,1-.06.07l-.27.16h-.07a.09.09,0,0,1,0-.07v-.86l-.63.36a0,0,0,0,1-.06,0,.1.1,0,0,1,0-.08v-.31a.19.19,0,0,1,0-.1.18.18,0,0,1,.06-.08l.63-.36v-.86a.19.19,0,0,1,0-.1.19.19,0,0,1,.07-.08l.27-.15s0,0,.06,0a.08.08,0,0,1,0,.07v.85l.63-.36s0,0,.07,0a.08.08,0,0,1,0,.07v.31a.26.26,0,0,1,0,.11.16.16,0,0,1-.07.07Z" style="fill:#455a64"></path><path d="M109.16,254l.67-1.94a.45.45,0,0,1,0-.1.23.23,0,0,1,.1-.12l.24-.13a.06.06,0,0,1,.07,0,.1.1,0,0,1,0,.08v3a.2.2,0,0,1,0,.11.19.19,0,0,1-.07.08l-.29.16a0,0,0,0,1-.06,0,.08.08,0,0,1,0-.07V253.2l-.46,1.32a.54.54,0,0,1,0,.11.24.24,0,0,1-.08.09l-.18.1s-.06,0-.08,0a.08.08,0,0,1,0-.05l-.46-.79v1.84a.19.19,0,0,1,0,.1.19.19,0,0,1-.07.08l-.28.16s0,0-.07,0,0,0,0-.07v-3a.19.19,0,0,1,0-.1.19.19,0,0,1,.07-.08l.24-.14s.08,0,.1,0l0,.05Z" style="fill:#455a64"></path><path d="M100.51,257.21a1.07,1.07,0,0,1,.42-.15.56.56,0,0,1,.3,0,.33.33,0,0,1,.18.17.72.72,0,0,1,.07.25.23.23,0,0,1,0,.11.16.16,0,0,1-.07.07l-.24.14s-.07,0-.09,0l-.06-.05a.25.25,0,0,0-.16-.12.56.56,0,0,0-.32.1,1.09,1.09,0,0,0-.17.13.75.75,0,0,0-.15.16.56.56,0,0,0-.09.17.39.39,0,0,0,0,.18.32.32,0,0,0,0,.16.15.15,0,0,0,.12,0l.21,0,.32-.09a1.35,1.35,0,0,1,.37-.06.4.4,0,0,1,.25,0,.37.37,0,0,1,.14.18.93.93,0,0,1,0,.32,1.33,1.33,0,0,1-.07.43,2.39,2.39,0,0,1-.2.43,3.66,3.66,0,0,1-.32.39,2.29,2.29,0,0,1-.43.32,1.07,1.07,0,0,1-.38.15.58.58,0,0,1-.32,0,.32.32,0,0,1-.22-.16.58.58,0,0,1-.1-.32.19.19,0,0,1,0-.1.19.19,0,0,1,.07-.08l.25-.14.09,0a.1.1,0,0,1,0,.06l.06.09.1.05a.41.41,0,0,0,.15,0,.8.8,0,0,0,.22-.1l.2-.14a1,1,0,0,0,.18-.17.76.76,0,0,0,.12-.19.52.52,0,0,0,0-.21c0-.07,0-.11,0-.14a.22.22,0,0,0-.15,0,1,1,0,0,0-.25.05l-.34.09a1.25,1.25,0,0,1-.31,0,.35.35,0,0,1-.21-.06.38.38,0,0,1-.13-.19,1.06,1.06,0,0,1,0-.34,1.31,1.31,0,0,1,.08-.43,1.59,1.59,0,0,1,.19-.42,2.06,2.06,0,0,1,.29-.37A2,2,0,0,1,100.51,257.21Z" style="fill:#455a64"></path><path d="M118,249.88s0,0,.07,0,0,0,0,.07v.33a.22.22,0,0,1,0,.11.19.19,0,0,1-.07.08l-1.54.89h-.07a.08.08,0,0,1,0-.07v-3a.23.23,0,0,1,0-.11.16.16,0,0,1,.07-.07l.28-.17a.08.08,0,0,1,.07,0,.09.09,0,0,1,0,.07v2.58Z" style="fill:#455a64"></path><path d="M126.27,245.68s-.08,0-.1,0l0,0-.56-.72-.56,1.36-.05.1a.19.19,0,0,1-.1.1l-.3.18a.06.06,0,0,1-.06,0,.1.1,0,0,1,0-.08.11.11,0,0,1,0-.05l.81-2-.78-1s0,0,0,0a.23.23,0,0,1,0-.11.19.19,0,0,1,.07-.08l.3-.17s.08,0,.1,0l0,0,.54.69.53-1.3a.31.31,0,0,1,0-.09.27.27,0,0,1,.1-.11l.3-.17a0,0,0,0,1,.07,0s0,0,0,.07a.15.15,0,0,1,0,.06l-.77,1.9.8,1a.43.43,0,0,1,0,.05.22.22,0,0,1,0,.1.19.19,0,0,1-.07.08Z" style="fill:#455a64"></path><path d="M128.66,243.72a0,0,0,0,1,.06,0s0,0,0,.07v.33a.23.23,0,0,1,0,.11.22.22,0,0,1-.06.07l-1.55.89a.06.06,0,0,1-.07,0s0,0,0-.08v-3a.22.22,0,0,1,0-.11.19.19,0,0,1,.07-.08l.29-.16s0,0,.06,0a.08.08,0,0,1,0,.07v2.58Z" style="fill:#455a64"></path><path d="M106.51,259a.73.73,0,0,1-.33-.08.77.77,0,0,1-.34-.7v-5.17a1.8,1.8,0,0,1,.82-1.43l4.49-2.59a.7.7,0,0,1,1.12.65v5.17a1.79,1.79,0,0,1-.83,1.43L107,258.89A.89.89,0,0,1,106.51,259Zm5.09-9.51a.32.32,0,0,0-.16.05L107,252.15a1.18,1.18,0,0,0-.53.92v5.17c0,.12,0,.18,0,.19a.22.22,0,0,0,.18-.05h0l4.48-2.59a1.21,1.21,0,0,0,.53-.92V249.7a.26.26,0,0,0-.05-.19Z" style="fill:#77D0D2"></path><path id="freepik--heart--inject-164" d="M142.37,260.13a1.36,1.36,0,0,0-.35-1h0a.85.85,0,0,0-1,0,4.09,4.09,0,0,0-1.39,2.75c-.09-.86-.68-1.56-1.39-1.14a2.94,2.94,0,0,0-1,1.22h0a3.43,3.43,0,0,0-.35,1.44,2.52,2.52,0,0,0,2.79,2.64S142.37,263,142.37,260.13Z" style="fill:#77D0D2"></path><path id="freepik--heart--inject-164" d="M142.37,260.13a1.36,1.36,0,0,0-.35-1h0a.85.85,0,0,0-1,0,4.09,4.09,0,0,0-1.39,2.75c-.09-.86-.68-1.56-1.39-1.14a2.94,2.94,0,0,0-1,1.22h0a3.43,3.43,0,0,0-.35,1.44,2.52,2.52,0,0,0,2.79,2.64S142.37,263,142.37,260.13Z" style="opacity:0.25"></path><path d="M79.3,236.29v2.76c0,4-2.43,8.62-5.42,10.35h0c-3,1.72-5.41-.11-5.41-4.1v-2.76C71.24,245.93,76.94,242.64,79.3,236.29Z" style="fill:#77D0D2"></path><path d="M79.3,236.29v2.76c0,4-2.43,8.62-5.42,10.35h0c-3,1.72-5.41-.11-5.41-4.1v-2.76C71.24,245.93,76.94,242.64,79.3,236.29Z" style="opacity:0.45"></path><path d="M68.47,242.54a14.1,14.1,0,0,0-1.8,2.06,44.35,44.35,0,0,1,.7,5.87c0,2.08-.23,4.82.64,7.24a20.13,20.13,0,0,1,.36,10.3,78.13,78.13,0,0,0-2.27,16.76c0,6.79,1.68,27.38,1.68,27.38,0,2.14,12-4.77,12-6.92,0,0,1.78-22.23,1.84-29.79a47.28,47.28,0,0,0-1.82-13.72A29.46,29.46,0,0,1,80.14,251a19.78,19.78,0,0,0,.48-7.75,32.86,32.86,0,0,1,.64-6.82,2.2,2.2,0,0,0-2-.1s-.37,9-5,11.64S68.47,242.54,68.47,242.54Z" style="fill:#77D0D2"></path><path d="M68.47,242.54a14.1,14.1,0,0,0-1.8,2.06,44.35,44.35,0,0,1,.7,5.87c0,2.08-.23,4.82.64,7.24a20.13,20.13,0,0,1,.36,10.3,78.13,78.13,0,0,0-2.27,16.76c0,6.79,1.68,27.38,1.68,27.38,0,2.14,12-4.77,12-6.92,0,0,1.78-22.23,1.84-29.79a47.28,47.28,0,0,0-1.82-13.72A29.46,29.46,0,0,1,80.14,251a19.78,19.78,0,0,0,.48-7.75,32.86,32.86,0,0,1,.64-6.82,2.2,2.2,0,0,0-2-.1s-.37,9-5,11.64S68.47,242.54,68.47,242.54Z" style="opacity:0.25"></path><path d="M83.52,251.8a4.36,4.36,0,0,1-2.91,2.48L80.14,251a19.85,19.85,0,0,0,.48-7.76,32.86,32.86,0,0,1,.64-6.82c1,.43,1.51,3.06,1.51,4.87S83.52,251.8,83.52,251.8Z" style="fill:#37474f"></path><path d="M68.06,257.9l-.25,4a3.37,3.37,0,0,1-3.17,1.5s.32-7.36.43-10.6c.13-4.08.34-6.06,1.6-8.18a44.1,44.1,0,0,1,.7,5.87c0,2.08-.23,4.82.63,7.24A.7.7,0,0,1,68.06,257.9Z" style="fill:#37474f"></path><path d="M67.84,280.67S67,290,71.42,292.11C71.42,292.11,69,289.62,67.84,280.67Z" style="opacity:0.15"></path><path d="M81.42,280.79c-.26,4.67-2.2,14.23-3.94,17.42,0,0,2-2.52,3.55-10.65C81.18,285.19,81.32,282.86,81.42,280.79Z" style="opacity:0.15"></path></g><g id="freepik--item--inject-164"><path d="M159.58,165.66l-3-1.71a3.75,3.75,0,0,1-1.7-2.94V80.4a3.75,3.75,0,0,1,1.7-2.94L255.08,20.6a3.77,3.77,0,0,1,3.4,0l3,1.72a3.75,3.75,0,0,1,1.7,2.94v80.61a3.75,3.75,0,0,1-1.7,2.94L163,165.66A3.77,3.77,0,0,1,159.58,165.66Z" style="fill:#e0e0e0"></path><path d="M263.13,25c-.11-.88-.83-1.2-1.68-.71L163,81.14a3.47,3.47,0,0,0-1.2,1.26l-6.37-3.68a3.39,3.39,0,0,1,1.2-1.26l98.48-56.85a3.69,3.69,0,0,1,3.39,0l3,1.71A3.81,3.81,0,0,1,263.13,25Z" style="fill:#ebebeb"></path><path d="M162.22,165.5c-.5,0-.55-.57-.55-.82V84.07a3.38,3.38,0,0,1,1.5-2.6l98.48-56.85a1.11,1.11,0,0,1,.56-.18c.49,0,.55.57.55.82v80.61a3.37,3.37,0,0,1-1.51,2.6l-98.47,56.85a1.14,1.14,0,0,1-.56.18Z" style="fill:#fafafa"></path><path d="M262.21,24.83c.15,0,.15.39.15.43v80.61a3,3,0,0,1-1.3,2.26L162.58,165a.7.7,0,0,1-.36.13c-.15,0-.16-.38-.16-.43V84.07a3,3,0,0,1,1.31-2.26L261.84,25a.73.73,0,0,1,.37-.13m0-.78a1.5,1.5,0,0,0-.76.23L163,81.13a3.77,3.77,0,0,0-1.7,2.94v80.61c0,.77.38,1.21.94,1.21a1.53,1.53,0,0,0,.76-.23l98.47-56.85a3.75,3.75,0,0,0,1.7-2.94V25.26c0-.77-.39-1.21-.94-1.21Z" style="fill:#e0e0e0"></path><path d="M210.54,126.21l-.74-.42a1.86,1.86,0,0,1-.83-1.45v-7.76a1.86,1.86,0,0,1,.83-1.45l28.65-16.54a1.84,1.84,0,0,1,1.68,0l.73.42a1.84,1.84,0,0,1,.84,1.45v7.76a1.84,1.84,0,0,1-.84,1.45l-28.65,16.54A1.82,1.82,0,0,1,210.54,126.21Z" style="fill:#77D0D2"></path><path d="M210.54,126.21l-.74-.42a1.86,1.86,0,0,1-.83-1.45v-7.76a1.86,1.86,0,0,1,.83-1.45l28.65-16.54a1.84,1.84,0,0,1,1.68,0l.73.42a1.84,1.84,0,0,1,.84,1.45v7.76a1.84,1.84,0,0,1-.84,1.45l-28.65,16.54A1.82,1.82,0,0,1,210.54,126.21Z" style="opacity:0.2"></path><path d="M241.69,100.33c-.05-.44-.41-.6-.83-.35l-28.65,16.54a1.85,1.85,0,0,0-.59.62l-2.41-1.38a1.64,1.64,0,0,1,.59-.63l28.65-16.54a1.84,1.84,0,0,1,1.68,0l.73.42A1.85,1.85,0,0,1,241.69,100.33Z" style="fill:#77D0D2"></path><path d="M241.69,100.33c-.05-.44-.41-.6-.83-.35l-28.65,16.54a1.85,1.85,0,0,0-.59.62l-2.41-1.38a1.64,1.64,0,0,1,.59-.63l28.65-16.54a1.84,1.84,0,0,1,1.68,0l.73.42A1.85,1.85,0,0,1,241.69,100.33Z" style="fill:#fff;opacity:0.6000000000000001"></path><path d="M211.38,118v7.76c0,.53.37.75.83.48l28.65-16.54a1.84,1.84,0,0,0,.84-1.45v-7.76c0-.53-.37-.75-.84-.48l-28.65,16.54A1.84,1.84,0,0,0,211.38,118Z" style="fill:#77D0D2"></path><path d="M245.56,106l-.74-.42a1.87,1.87,0,0,1-.84-1.45V96.36a1.87,1.87,0,0,1,.84-1.45l7.29-4.2a1.82,1.82,0,0,1,1.67,0l.74.42a1.84,1.84,0,0,1,.84,1.45v7.75a1.84,1.84,0,0,1-.84,1.45L247.23,106A1.82,1.82,0,0,1,245.56,106Z" style="fill:#e0e0e0"></path><path d="M255.35,92.44c-.06-.43-.41-.59-.83-.35l-7.29,4.21a1.8,1.8,0,0,0-.59.63l-2.41-1.39a1.68,1.68,0,0,1,.59-.62l7.29-4.21a1.82,1.82,0,0,1,1.67,0l.74.42A1.86,1.86,0,0,1,255.35,92.44Z" style="fill:#ebebeb"></path><path d="M246.86,105.91c-.25,0-.27-.28-.27-.4V97.75a1.67,1.67,0,0,1,.74-1.28l7.29-4.21a.54.54,0,0,1,.27-.09c.25,0,.27.29.27.41v7.75a1.68,1.68,0,0,1-.74,1.29l-7.29,4.21A.63.63,0,0,1,246.86,105.91Z" style="fill:#fafafa"></path><path d="M254.89,92.37c.08,0,.08.19.08.21v7.75a1.48,1.48,0,0,1-.64,1.12L247,105.66a.48.48,0,0,1-.18.06c-.08,0-.08-.19-.08-.21V97.75a1.46,1.46,0,0,1,.64-1.11l7.29-4.21a.33.33,0,0,1,.18-.06m0-.39a.82.82,0,0,0-.37.11l-7.29,4.21a1.87,1.87,0,0,0-.84,1.45v7.76c0,.38.19.6.47.6a.73.73,0,0,0,.37-.12l7.29-4.21a1.84,1.84,0,0,0,.84-1.45V92.58c0-.38-.19-.6-.47-.6Z" style="fill:#e0e0e0"></path><path d="M211.4,66l39-22.52c1.32-.76,2.38-.14,2.38,1.37v0A5.24,5.24,0,0,1,250.41,49l-39,22.52c-1.31.76-2.37.14-2.37-1.37v0A5.26,5.26,0,0,1,211.4,66Z" style="fill:#77D0D2"></path><path d="M211.4,66l39-22.52c1.32-.76,2.38-.14,2.38,1.37v0A5.24,5.24,0,0,1,250.41,49l-39,22.52c-1.31.76-2.37.14-2.37-1.37v0A5.26,5.26,0,0,1,211.4,66Z" style="opacity:0.25"></path><path d="M212.74,77.87a1.79,1.79,0,0,1,.76-.1A1.18,1.18,0,0,1,214,78a1.07,1.07,0,0,1,.34.42,1.65,1.65,0,0,1,.13.53.54.54,0,0,1-.07.27.46.46,0,0,1-.17.19l-.62.35c-.1.06-.17.08-.22.05a.31.31,0,0,1-.14-.12.59.59,0,0,0-.4-.28,1.28,1.28,0,0,0-.8.24,2.67,2.67,0,0,0-.43.32,2.19,2.19,0,0,0-.36.39,2,2,0,0,0-.25.44,1.28,1.28,0,0,0-.08.46.62.62,0,0,0,.09.38.39.39,0,0,0,.32.11,2.29,2.29,0,0,0,.55-.09c.23-.06.5-.13.82-.23a3.49,3.49,0,0,1,.9-.15,1,1,0,0,1,.6.14.78.78,0,0,1,.33.47,2.62,2.62,0,0,1,.11.8,3.45,3.45,0,0,1-.14.94,4.12,4.12,0,0,1-.38.94,5.56,5.56,0,0,1-.61.88,6,6,0,0,1-.82.77V87a.68.68,0,0,1-.07.26.53.53,0,0,1-.17.19l-.72.41a.12.12,0,0,1-.16,0c-.05,0-.07-.09-.07-.18v-.8a2.47,2.47,0,0,1-.75.16,1.33,1.33,0,0,1-.61-.13,1,1,0,0,1-.41-.41,1.46,1.46,0,0,1-.18-.71.45.45,0,0,1,.06-.27.47.47,0,0,1,.18-.19l.61-.36a.41.41,0,0,1,.23-.06.24.24,0,0,1,.14.14,1.07,1.07,0,0,0,.15.22.35.35,0,0,0,.23.13,1,1,0,0,0,.38,0,2.49,2.49,0,0,0,.56-.25,5.16,5.16,0,0,0,.51-.35,2.86,2.86,0,0,0,.43-.42,3.15,3.15,0,0,0,.3-.48,1.2,1.2,0,0,0,.12-.52.42.42,0,0,0-.13-.35.52.52,0,0,0-.37-.07,4,4,0,0,0-.62.14l-.86.22a2.91,2.91,0,0,1-.77.11.9.9,0,0,1-.55-.16.91.91,0,0,1-.32-.48,2.82,2.82,0,0,1-.1-.85,3.3,3.3,0,0,1,.13-.92,4.65,4.65,0,0,1,.36-.91,5,5,0,0,1,1.28-1.55v-.8a.54.54,0,0,1,.07-.27.44.44,0,0,1,.16-.19l.72-.41a.14.14,0,0,1,.17,0,.22.22,0,0,1,.07.18Z" style="fill:#455a64"></path><path d="M218.4,82.55a.31.31,0,0,1,0-.1l0-.08,1.17-2.89a2.21,2.21,0,0,1-.92.32,1.16,1.16,0,0,1-.73-.14,1.27,1.27,0,0,1-.49-.61,2.67,2.67,0,0,1-.18-1,4.65,4.65,0,0,1,.18-1.28,4.93,4.93,0,0,1,.5-1.18,5.29,5.29,0,0,1,.74-1,4.26,4.26,0,0,1,.93-.74,2.38,2.38,0,0,1,.93-.33,1.18,1.18,0,0,1,.75.14,1.2,1.2,0,0,1,.49.6,2.75,2.75,0,0,1,.18,1.07,3.71,3.71,0,0,1-.05.67c0,.22-.09.43-.15.64s-.13.41-.21.61-.14.39-.22.57l-1.66,4.11a1.65,1.65,0,0,1-.09.21.45.45,0,0,1-.18.18l-.79.46a.13.13,0,0,1-.17,0C218.42,82.7,218.4,82.64,218.4,82.55Zm.09-5.25c0,.44.1.72.32.82a.88.88,0,0,0,.83-.13,2.28,2.28,0,0,0,.83-.83A2.25,2.25,0,0,0,220.8,76c0-.43-.11-.7-.33-.82a.88.88,0,0,0-.83.12,2.47,2.47,0,0,0-.83.84A2.26,2.26,0,0,0,218.49,77.3Z" style="fill:#455a64"></path><path d="M223.38,78.21a.15.15,0,0,1,.17,0,.26.26,0,0,1,.07.19v1.15a.68.68,0,0,1-.07.26.46.46,0,0,1-.17.19l-.82.48c-.07,0-.12,0-.17,0a.21.21,0,0,1-.07-.18V79.13a.54.54,0,0,1,.07-.26.46.46,0,0,1,.17-.19Z" style="fill:#455a64"></path><path d="M225.14,78.66a.3.3,0,0,1,0-.1.11.11,0,0,1,0-.08l1.16-2.89a2.47,2.47,0,0,1-.92.32,1.18,1.18,0,0,1-.73-.15,1.3,1.3,0,0,1-.49-.6A2.69,2.69,0,0,1,224,74.1a4.58,4.58,0,0,1,.18-1.27,5.37,5.37,0,0,1,.5-1.18,4.67,4.67,0,0,1,.75-1,4.26,4.26,0,0,1,.93-.74,2.28,2.28,0,0,1,.92-.33,1.16,1.16,0,0,1,.75.13,1.29,1.29,0,0,1,.5.61,2.69,2.69,0,0,1,.18,1.06,3.63,3.63,0,0,1-.06.67c0,.22-.09.43-.15.64s-.13.41-.2.61-.15.39-.23.58L226.45,78l-.09.2a.44.44,0,0,1-.19.19l-.79.46a.15.15,0,0,1-.17,0A.25.25,0,0,1,225.14,78.66Zm.09-5.25c0,.44.11.71.33.82a.91.91,0,0,0,.83-.13,2.36,2.36,0,0,0,.82-.84,2.21,2.21,0,0,0,.33-1.18c0-.43-.11-.71-.33-.82a.86.86,0,0,0-.82.12,2.16,2.16,0,0,0-.83.84A2.25,2.25,0,0,0,225.23,73.41Z" style="fill:#455a64"></path><path d="M230.47,75.58a.31.31,0,0,1,0-.1l0-.07,1.16-2.9a2.3,2.3,0,0,1-.91.33,1.23,1.23,0,0,1-.73-.15,1.27,1.27,0,0,1-.49-.61,2.67,2.67,0,0,1-.18-1,4.53,4.53,0,0,1,.18-1.27,5.42,5.42,0,0,1,.49-1.19,5.8,5.8,0,0,1,.75-1,4.21,4.21,0,0,1,.93-.73,2.58,2.58,0,0,1,.93-.34,1.18,1.18,0,0,1,.75.14,1.22,1.22,0,0,1,.49.61,2.66,2.66,0,0,1,.18,1.06A4.91,4.91,0,0,1,234,69c0,.22-.09.43-.15.64s-.13.41-.21.61-.14.39-.22.57l-1.66,4.11a1.65,1.65,0,0,1-.09.21.39.39,0,0,1-.18.18l-.79.46a.15.15,0,0,1-.17,0A.22.22,0,0,1,230.47,75.58Zm.08-5.24q0,.66.33.81a.86.86,0,0,0,.83-.13,2.36,2.36,0,0,0,.83-.83,2.25,2.25,0,0,0,.33-1.19q0-.65-.33-.81a.82.82,0,0,0-.83.12,2.28,2.28,0,0,0-.83.83A2.31,2.31,0,0,0,230.55,70.34Z" style="fill:#455a64"></path><path d="M215.5,116.93c.06,0,.1,0,.12,0a.26.26,0,0,1,.07.13l1.22,3.47v0a.28.28,0,0,1,0,.15.3.3,0,0,1-.09.1l-.36.21c-.07,0-.11,0-.14,0a.12.12,0,0,1-.05-.07l-.22-.61-1.56.9-.21.86s0,.08-.06.14a.3.3,0,0,1-.14.13l-.36.21a.07.07,0,0,1-.09,0,.11.11,0,0,1,0-.1.09.09,0,0,1,0,0l1.21-4.88a1,1,0,0,1,.07-.21.34.34,0,0,1,.12-.12Zm.28,2.74-.55-1.57-.54,2.2Z" style="fill:#455a64"></path><path d="M218.28,116.45a1,1,0,0,1,.27-.12l.22,0,.15,0,.11.07V115a.31.31,0,0,1,0-.15.18.18,0,0,1,.09-.1l.38-.22a.08.08,0,0,1,.09,0,.11.11,0,0,1,0,.1V119a.27.27,0,0,1,0,.14.35.35,0,0,1-.09.11l-.38.22s-.07,0-.09,0a.11.11,0,0,1,0-.1v-.16l-.11.19a1.43,1.43,0,0,1-.15.22l-.22.23a1.85,1.85,0,0,1-.27.19.78.78,0,0,1-.45.13.48.48,0,0,1-.34-.14.8.8,0,0,1-.22-.37,1.67,1.67,0,0,1-.1-.53v-.46a2.93,2.93,0,0,1,.1-.64,2.77,2.77,0,0,1,.22-.63,3.06,3.06,0,0,1,.34-.54A1.47,1.47,0,0,1,218.28,116.45Zm-.46,1.86a2.28,2.28,0,0,0,0,.37c0,.28.08.44.2.5s.24,0,.41,0a1.31,1.31,0,0,0,.41-.43,1.54,1.54,0,0,0,.19-.66c0-.07,0-.16,0-.26s0-.18,0-.24a.55.55,0,0,0-.19-.44.41.41,0,0,0-.41,0,1.13,1.13,0,0,0-.41.43A1.54,1.54,0,0,0,217.82,118.31Z" style="fill:#455a64"></path><path d="M221.35,114.68a1,1,0,0,1,.27-.12l.21,0,.16,0,.1.07v-1.41a.42.42,0,0,1,0-.15.24.24,0,0,1,.1-.1l.37-.22a.09.09,0,0,1,.1,0,.11.11,0,0,1,0,.1v4.33a.28.28,0,0,1,0,.15.27.27,0,0,1-.1.11l-.37.22a.09.09,0,0,1-.1,0,.15.15,0,0,1,0-.1v-.16a1.18,1.18,0,0,1-.1.19,1.53,1.53,0,0,1-.16.22,1.45,1.45,0,0,1-.21.22,1.35,1.35,0,0,1-.27.2.78.78,0,0,1-.45.13.5.5,0,0,1-.34-.14,1,1,0,0,1-.23-.37,2.09,2.09,0,0,1-.09-.53v-.47a3.68,3.68,0,0,1,.09-.63,3.38,3.38,0,0,1,.23-.63,2.57,2.57,0,0,1,.34-.54A1.47,1.47,0,0,1,221.35,114.68Zm-.47,1.86a2.28,2.28,0,0,0,0,.37c0,.27.09.44.2.5a.39.39,0,0,0,.41,0,1,1,0,0,0,.41-.42,1.41,1.41,0,0,0,.19-.66,2,2,0,0,0,0-.26,1.63,1.63,0,0,0,0-.24.52.52,0,0,0-.19-.44.41.41,0,0,0-.41,0,1.31,1.31,0,0,0-.41.43A1.81,1.81,0,0,0,220.88,116.54Z" style="fill:#455a64"></path><path d="M225.32,114.64a.39.39,0,0,0,.08.28c.06,0,.16,0,.31,0l.3-.18s.07,0,.09,0a.11.11,0,0,1,0,.1v.44a.28.28,0,0,1,0,.15.18.18,0,0,1-.09.1l-.37.22c-.31.18-.55.21-.71.11s-.25-.37-.25-.78v-1.42l-.33.19a.09.09,0,0,1-.1,0,.13.13,0,0,1,0-.1v-.44a.4.4,0,0,1,0-.15.24.24,0,0,1,.1-.1l.33-.19v-1.08a.28.28,0,0,1,0-.15.18.18,0,0,1,.09-.1l.38-.22a.08.08,0,0,1,.09,0,.11.11,0,0,1,0,.1v1.08l.64-.37s.07,0,.09,0,0,0,0,.1v.43a.28.28,0,0,1,0,.15.2.2,0,0,1-.09.11l-.64.37Z" style="fill:#455a64"></path><path d="M227.76,111a1.14,1.14,0,0,1,.5-.17.62.62,0,0,1,.38.09.81.81,0,0,1,.26.31,1.48,1.48,0,0,1,.11.51v.66a3,3,0,0,1-.12.64,3.16,3.16,0,0,1-.25.6,3.39,3.39,0,0,1-.38.53,2.15,2.15,0,0,1-.5.4,1.2,1.2,0,0,1-.49.17.6.6,0,0,1-.38-.09.73.73,0,0,1-.26-.31,1.47,1.47,0,0,1-.11-.5s0-.09,0-.15v-.36c0-.07,0-.12,0-.16a2.78,2.78,0,0,1,.11-.63,3.29,3.29,0,0,1,.26-.61,2.55,2.55,0,0,1,.38-.53A2,2,0,0,1,227.76,111Zm.6,1.14a.73.73,0,0,0-.07-.3.25.25,0,0,0-.14-.13.28.28,0,0,0-.18,0,.6.6,0,0,0-.21.08,1.3,1.3,0,0,0-.2.15.91.91,0,0,0-.18.21,1,1,0,0,0-.14.3,1.42,1.42,0,0,0-.08.38v.14a.91.91,0,0,0,0,.17.86.86,0,0,0,0,.16v.13a.72.72,0,0,0,.08.3.25.25,0,0,0,.14.13.28.28,0,0,0,.18,0l.2-.08c.07,0,.14-.09.21-.15a1.42,1.42,0,0,0,.18-.22,1.12,1.12,0,0,0,.14-.29,1.51,1.51,0,0,0,.07-.39.45.45,0,0,0,0-.13v-.33A.49.49,0,0,0,228.36,112.11Z" style="fill:#455a64"></path><path d="M230.88,112.67a.08.08,0,0,1-.09,0,.11.11,0,0,1,0-.1V108.3a.28.28,0,0,1,0-.15.53.53,0,0,1,.09-.11l1.47-.84a1.14,1.14,0,0,1,.53-.18.55.55,0,0,1,.34.13.78.78,0,0,1,.19.32,1.67,1.67,0,0,1,.05.39,1.45,1.45,0,0,1,0,.37,1.34,1.34,0,0,1-.1.32,1.17,1.17,0,0,1-.11.25l-.09.15a.6.6,0,0,1,.28.23,1,1,0,0,1,.13.57,2.11,2.11,0,0,1-.07.54,3.23,3.23,0,0,1-.2.57,2.39,2.39,0,0,1-.34.51,1.57,1.57,0,0,1-.46.39Zm1.91-4.39c0-.17,0-.27-.12-.31s-.2,0-.37.08l-.88.51v1l.88-.51a1,1,0,0,0,.37-.34A.89.89,0,0,0,232.79,108.28Zm-1.37,3.25.92-.52a1.15,1.15,0,0,0,.4-.39,1,1,0,0,0,.12-.48c0-.17,0-.28-.13-.33s-.22,0-.39.06l-.92.53Z" style="fill:#455a64"></path><path d="M234.11,108.22a1.39,1.39,0,0,1,.09-.35,2,2,0,0,1,.2-.42,2.86,2.86,0,0,1,.32-.41,1.9,1.9,0,0,1,.45-.34,1.24,1.24,0,0,1,.45-.18.51.51,0,0,1,.35.06.6.6,0,0,1,.23.3,1.73,1.73,0,0,1,.08.55v1.95a.42.42,0,0,1,0,.15.24.24,0,0,1-.1.1l-.37.22a.09.09,0,0,1-.1,0,.11.11,0,0,1,0-.1v-.22a2,2,0,0,1-.3.5,1.62,1.62,0,0,1-.5.43,1,1,0,0,1-.38.14.4.4,0,0,1-.46-.28,1,1,0,0,1-.06-.38,1.63,1.63,0,0,1,.24-.85,2.93,2.93,0,0,1,.65-.72l.81-.65c0-.19,0-.29-.13-.31a.45.45,0,0,0-.33.08.67.67,0,0,0-.2.16,1.16,1.16,0,0,0-.13.2l-.08.12-.08.07-.47.26a.08.08,0,0,1-.08,0S234.1,108.27,234.11,108.22Zm.82,1.38a1.14,1.14,0,0,0,.3-.23,1.29,1.29,0,0,0,.22-.3,1.41,1.41,0,0,0,.14-.31,1.13,1.13,0,0,0,0-.3v-.06l-.67.54a1.43,1.43,0,0,0-.3.31.6.6,0,0,0-.08.29c0,.09,0,.14.1.14A.39.39,0,0,0,234.93,109.6Z" style="fill:#455a64"></path><path d="M238.06,109.19a1,1,0,0,0,.21-.17,1,1,0,0,0,.2-.25,1.35,1.35,0,0,0,.15-.32,1.08,1.08,0,0,0,0-.36v-.25a1.18,1.18,0,0,1-.1.19,1,1,0,0,1-.16.22,2.13,2.13,0,0,1-.21.22,1.89,1.89,0,0,1-.27.2.87.87,0,0,1-.45.13.51.51,0,0,1-.34-.15.93.93,0,0,1-.23-.36,2.17,2.17,0,0,1-.09-.53v-.47a3.78,3.78,0,0,1,.09-.64,3.56,3.56,0,0,1,.23-.62,2.15,2.15,0,0,1,.34-.54,1.67,1.67,0,0,1,.45-.39,1,1,0,0,1,.27-.12.53.53,0,0,1,.21,0,.34.34,0,0,1,.16,0,.26.26,0,0,1,.1.07v-.15a.42.42,0,0,1,0-.15.27.27,0,0,1,.1-.11l.37-.22a.09.09,0,0,1,.1,0,.11.11,0,0,1,0,.1v3.1A2.77,2.77,0,0,1,239,109a2.44,2.44,0,0,1-.92.94,1.26,1.26,0,0,1-.47.18.75.75,0,0,1-.37,0A.55.55,0,0,1,237,110a.68.68,0,0,1-.1-.33.34.34,0,0,1,0-.15.3.3,0,0,1,.09-.1l.34-.2s.09,0,.12,0l.08.06a.31.31,0,0,0,.18.09A.84.84,0,0,0,238.06,109.19Zm-.59-2.22a1.15,1.15,0,0,0,0,.37c0,.27.08.44.19.5a.39.39,0,0,0,.41,0,1.07,1.07,0,0,0,.41-.43,1.41,1.41,0,0,0,.19-.66,1.69,1.69,0,0,0,0-.25,1.57,1.57,0,0,0,0-.25.5.5,0,0,0-.19-.43c-.11-.07-.24,0-.41,0a1.18,1.18,0,0,0-.41.42A1.75,1.75,0,0,0,237.47,107Z" style="fill:#455a64"></path><path d="M210.79,105.2a2.5,2.5,0,0,1,.07-.54,2.54,2.54,0,0,1,.2-.52,2.26,2.26,0,0,1,.31-.45,2,2,0,0,1,.45-.36,1,1,0,0,1,.45-.16.42.42,0,0,1,.32.09.51.51,0,0,1,.19.29,1.25,1.25,0,0,1,.08.45,1.21,1.21,0,0,1,0,.2v.44a1.21,1.21,0,0,1,0,.2,2.25,2.25,0,0,1-.07.52,2.13,2.13,0,0,1-.18.5l.27.36s0,0,0,0a.29.29,0,0,1,0,.09.17.17,0,0,1-.06.06l-.33.19s-.08,0-.1,0l0,0-.12-.15-.18.16a1.64,1.64,0,0,1-.22.14.94.94,0,0,1-.45.16.45.45,0,0,1-.31-.08.66.66,0,0,1-.2-.3,1.52,1.52,0,0,1-.07-.45c0-.06,0-.12,0-.19v-.45C210.78,105.33,210.79,105.26,210.79,105.2Zm1.6-.9a.53.53,0,0,0-.17-.43c-.1-.07-.23-.05-.4,0a1.13,1.13,0,0,0-.39.42,1.4,1.4,0,0,0-.17.62v.79a.53.53,0,0,0,.17.43.36.36,0,0,0,.39,0,1,1,0,0,0,.4-.41,1.36,1.36,0,0,0,.17-.62v-.79Z" style="fill:#455a64"></path><path d="M213.92,104.57a.3.3,0,0,0,.05.2s.12,0,.22,0l.22-.12a0,0,0,0,1,.06,0,.08.08,0,0,1,0,.07V105a.23.23,0,0,1,0,.11.22.22,0,0,1-.06.07l-.26.15q-.35.2-.51.09c-.12-.08-.18-.26-.18-.56v-1l-.23.14h-.07a.1.1,0,0,1,0-.08v-.31a.19.19,0,0,1,0-.1.19.19,0,0,1,.07-.08l.23-.13v-.77a.26.26,0,0,1,0-.11.14.14,0,0,1,.06-.07l.27-.16a.08.08,0,0,1,.07,0,.1.1,0,0,1,0,.08V103l.45-.26s0,0,.07,0a.08.08,0,0,1,0,.07v.31a.23.23,0,0,1,0,.11.16.16,0,0,1-.07.07l-.45.27Z" style="fill:#455a64"></path><path d="M215.41,104.47l-.7-1.75s0,0,0,0a.19.19,0,0,1,0-.1.19.19,0,0,1,.07-.08l.26-.15a.08.08,0,0,1,.08,0,.13.13,0,0,1,0,.06l.47,1.18.47-1.73a.23.23,0,0,1,0-.09.22.22,0,0,1,.07-.09l.27-.15h.06a.08.08,0,0,1,0,.07v0l-1,3.64a.69.69,0,0,1,0,.1.3.3,0,0,1-.08.08l-.26.15a.08.08,0,0,1-.07,0,.08.08,0,0,1,0-.07s0,0,0,0Z" style="fill:#455a64"></path><path d="M223.42,98.84h-.06a.08.08,0,0,1,0-.07v-.31a.23.23,0,0,1,0-.11.22.22,0,0,1,.06-.07l1.08-.63a.08.08,0,0,1,.07,0s0,0,0,.08V98a.18.18,0,0,1,0,.1.19.19,0,0,1-.07.08Z" style="fill:#455a64"></path><path d="M226.51,96a.2.2,0,0,1,0-.09.42.42,0,0,1,0-.1l.77-1.25,0-.09a.19.19,0,0,1,.07-.06l.27-.16s.05,0,.07,0a.08.08,0,0,1,0,.07v3a.26.26,0,0,1,0,.11.16.16,0,0,1-.07.07l-.28.17a.08.08,0,0,1-.07,0,.1.1,0,0,1,0-.08V95.27l-.5.81a.12.12,0,0,1-.07.07,0,0,0,0,1-.06,0Z" style="fill:#455a64"></path><path d="M231,94.49v.85a.43.43,0,0,1,0,.11l-.07.07-.27.16h-.07a.08.08,0,0,1,0-.07v-.86l-.63.37h-.06a.09.09,0,0,1,0-.07v-.32a.22.22,0,0,1,0-.1.28.28,0,0,1,.06-.08l.63-.36v-.85a.23.23,0,0,1,0-.11.19.19,0,0,1,.07-.08l.27-.15s0,0,.07,0a.12.12,0,0,1,0,.07v.85l.63-.36a.08.08,0,0,1,.07,0,.08.08,0,0,1,0,.07v.31a.23.23,0,0,1,0,.11.19.19,0,0,1-.07.08Z" style="fill:#455a64"></path><path d="M220.37,90.49l.67-1.94.05-.1a.27.27,0,0,1,.1-.11l.24-.14s0,0,.07,0a.08.08,0,0,1,0,.07v3a.26.26,0,0,1,0,.11.16.16,0,0,1-.07.07l-.28.17a.08.08,0,0,1-.07,0,.09.09,0,0,1,0-.07V89.75l-.46,1.32-.05.11a.3.3,0,0,1-.08.08l-.18.11a.06.06,0,0,1-.08,0l0,0-.46-.8v1.84a.23.23,0,0,1,0,.11.16.16,0,0,1-.07.07l-.28.17a.08.08,0,0,1-.07,0,.09.09,0,0,1,0-.07v-3a.23.23,0,0,1,0-.11.16.16,0,0,1,.07-.07l.24-.14s.08,0,.1,0a.23.23,0,0,1,0,0Z" style="fill:#455a64"></path><path d="M211.72,93.76a1.31,1.31,0,0,1,.42-.16.56.56,0,0,1,.3,0,.39.39,0,0,1,.18.18.72.72,0,0,1,.07.25.19.19,0,0,1,0,.1.19.19,0,0,1-.07.08l-.24.14s-.07,0-.09,0a.13.13,0,0,1-.06,0,.24.24,0,0,0-.16-.11.44.44,0,0,0-.32.1.66.66,0,0,0-.17.12c-.06,0-.1.11-.15.16a.76.76,0,0,0-.09.18.39.39,0,0,0,0,.18.25.25,0,0,0,0,.16.16.16,0,0,0,.11,0l.21,0,.32-.09a2.13,2.13,0,0,1,.37-.07.62.62,0,0,1,.25,0,.4.4,0,0,1,.14.19.87.87,0,0,1,0,.31,1.39,1.39,0,0,1-.07.44,2.3,2.3,0,0,1-.2.42,2.37,2.37,0,0,1-.32.39,1.92,1.92,0,0,1-.43.32,1.35,1.35,0,0,1-.38.16.58.58,0,0,1-.32,0,.44.44,0,0,1-.22-.16.53.53,0,0,1-.09-.32.15.15,0,0,1,0-.11.16.16,0,0,1,.07-.07l.25-.15s.07,0,.09,0a.08.08,0,0,1,.05.05l.06.09a.12.12,0,0,0,.1.05h.15l.22-.1.21-.14.17-.17a1,1,0,0,0,.12-.19.52.52,0,0,0,0-.21c0-.07,0-.12-.05-.14a.17.17,0,0,0-.15,0l-.24,0-.35.09a1.25,1.25,0,0,1-.3,0,.31.31,0,0,1-.22-.07.34.34,0,0,1-.13-.19,1,1,0,0,1-.05-.34,1.35,1.35,0,0,1,.08-.43,1.69,1.69,0,0,1,.19-.41,2.12,2.12,0,0,1,.29-.38A2.4,2.4,0,0,1,211.72,93.76Z" style="fill:#455a64"></path><path d="M229.19,86.43s.05,0,.07,0,0,0,0,.07v.33a.23.23,0,0,1,0,.11.16.16,0,0,1-.07.07l-1.54.89a.06.06,0,0,1-.07,0,.1.1,0,0,1,0-.08v-3a.23.23,0,0,1,0-.11.19.19,0,0,1,.07-.08l.28-.16s0,0,.07,0a.08.08,0,0,1,0,.07V87.1Z" style="fill:#455a64"></path><path d="M237.49,82.22a.12.12,0,0,1-.11,0l0,0-.56-.71-.56,1.36a.44.44,0,0,1-.05.09.21.21,0,0,1-.1.11l-.29.17s-.05,0-.07,0a.08.08,0,0,1,0-.07.13.13,0,0,1,0-.06l.81-2-.77-1a.09.09,0,0,1,0,0,.52.52,0,0,1,0-.11.23.23,0,0,1,.07-.07l.3-.17s.08,0,.1,0l0,0,.53.68.53-1.29,0-.1a.29.29,0,0,1,.11-.11l.29-.17h.07a.09.09,0,0,1,0,.07s0,0,0,.06l-.78,1.9.8,1s0,0,0,.05a.19.19,0,0,1,0,.1s0,.07-.07.08Z" style="fill:#455a64"></path><path d="M239.87,80.26a.06.06,0,0,1,.06,0,.08.08,0,0,1,0,.07v.34a.19.19,0,0,1,0,.1.17.17,0,0,1-.06.08l-1.55.89s0,0-.06,0a.08.08,0,0,1,0-.07v-3a.26.26,0,0,1,0-.11.14.14,0,0,1,.06-.07l.29-.17a.09.09,0,0,1,.07,0,.15.15,0,0,1,0,.08v2.57Z" style="fill:#455a64"></path><path d="M217.72,95.57a.57.57,0,0,1-.32-.09.76.76,0,0,1-.35-.69V89.61a1.81,1.81,0,0,1,.82-1.43l4.49-2.59a.71.71,0,0,1,1.12.65v5.18a1.82,1.82,0,0,1-.83,1.43l-4.48,2.58A.91.91,0,0,1,217.72,95.57Zm5.09-9.52a.32.32,0,0,0-.16,0l-4.48,2.59a1.21,1.21,0,0,0-.53.92v5.18c0,.11,0,.17.05.18s.09,0,.19,0h0l4.48-2.59a1.21,1.21,0,0,0,.53-.92V86.24c0-.11,0-.17,0-.18Z" style="fill:#77D0D2"></path><path id="freepik--heart--inject-164" d="M253.58,96.67a1.37,1.37,0,0,0-.35-1h0a.85.85,0,0,0-1,0,4,4,0,0,0-1.38,2.76c-.09-.87-.68-1.56-1.4-1.15a2.91,2.91,0,0,0-1,1.23h0a3.36,3.36,0,0,0-.35,1.44,2.52,2.52,0,0,0,2.79,2.64S253.58,99.54,253.58,96.67Z" style="fill:#77D0D2"></path><path id="freepik--heart--inject-164" d="M253.58,96.67a1.37,1.37,0,0,0-.35-1h0a.85.85,0,0,0-1,0,4,4,0,0,0-1.38,2.76c-.09-.87-.68-1.56-1.4-1.15a2.91,2.91,0,0,0-1,1.23h0a3.36,3.36,0,0,0-.35,1.44,2.52,2.52,0,0,0,2.79,2.64S253.58,99.54,253.58,96.67Z" style="opacity:0.25"></path><path d="M189.88,96.78c3.3,3.39,6.55,13.55,7.69,20.13s2,16.51,2,16.51c-.47.63-1.44,2.15-2.71,3.78s-2,.66-2,.66c-1.68,2.39-2.59,2.12-2.59,2.12a7.62,7.62,0,0,1-1.09,3c-.9,1.33-2.16,1.35-3.84,2.58a53,53,0,0,1-4.24,3.2.69.69,0,0,1-1.07-.55,5,5,0,0,1-1.68,1.6c-1.28.83-1.61,0-1.61,0s-2.21,1.37-3,1.29-.53-1.65-.53-1.65c-1.81,1.49-1.88.1-1.88.1s-1.21.87-2.28,1.67a1.38,1.38,0,0,1-1.92-.24s1.08-10.92,2.22-18.82,4.39-21.81,7.69-29l10.78-6.31" style="fill:#77D0D2"></path><path d="M189.88,96.78c3.3,3.39,6.55,13.55,7.69,20.13s2,16.51,2,16.51c-.47.63-1.44,2.15-2.71,3.78s-2,.66-2,.66c-1.68,2.39-2.59,2.12-2.59,2.12a7.62,7.62,0,0,1-1.09,3c-.9,1.33-2.16,1.35-3.84,2.58a53,53,0,0,1-4.24,3.2.69.69,0,0,1-1.07-.55,5,5,0,0,1-1.68,1.6c-1.28.83-1.61,0-1.61,0s-2.21,1.37-3,1.29-.53-1.65-.53-1.65c-1.81,1.49-1.88.1-1.88.1s-1.21.87-2.28,1.67a1.38,1.38,0,0,1-1.92-.24s1.08-10.92,2.22-18.82,4.39-21.81,7.69-29l10.78-6.31" style="opacity:0.25"></path><path d="M192.35,140s.91.27,2.59-2.12c0,0,.68,1,2-.66s2.24-3.15,2.71-3.78c0,0-.13-1.36-.34-3.39-.85,1.15-2.23,3-3.07,3.93-1.3,1.44-1.24,0-1.24,0-1.86,2.66-2.76,2-2.76,2a6.65,6.65,0,0,1-3.62,3.34c-1.62.66-4.22,3.6-5.17,3.87s-1.3-.83-1.3-.83a6,6,0,0,1-1.83,1.68.9.9,0,0,1-1.37-.39,6.28,6.28,0,0,1-2.4,1.67.82.82,0,0,1-1-.77c-1.43,1.05-1.74,0-1.74,0s-2.13,1.81-4,1.5c-.32,2.89-.51,4.88-.51,4.88a1.38,1.38,0,0,0,1.92.24c1.07-.8,2.28-1.67,2.28-1.67s.07,1.39,1.88-.1c0,0-.27,1.58.53,1.65s3-1.29,3-1.29.33.88,1.61,0a5,5,0,0,0,1.68-1.6.69.69,0,0,0,1.07.55,53,53,0,0,0,4.24-3.2c1.68-1.23,2.94-1.25,3.84-2.58A7.62,7.62,0,0,0,192.35,140Z" style="opacity:0.15"></path><path d="M177.9,114.75s-2.85,8.8-5.41,35.38l.9-.65C173.45,147.09,175.19,125.43,177.9,114.75Z" style="opacity:0.1"></path><path d="M174.4,150a4.34,4.34,0,0,0,.87-.57c-.05-1.95.57-11.39,1.79-21.15C177.06,128.23,175.94,132.5,174.4,150Z" style="opacity:0.1"></path><path d="M181.07,113.74c-2.64,16.28-3.34,35.24-3.17,36.52.52-.27.92-.52.92-.52C178.88,145.73,178.76,135.88,181.07,113.74Z" style="opacity:0.1"></path><path d="M182.11,133c0-3.88.37-10,.37-10s-.88,7.39-1.12,15.67c-.14,5,0,8.42.13,10.3a3.53,3.53,0,0,0,.62-.76C182,145.79,182.12,136.84,182.11,133Z" style="opacity:0.1"></path><path d="M186.59,110.48A74.6,74.6,0,0,1,188,124.42c0,4.23,0,16.56.26,18,0,0,.25-8.91.31-13.24A62.4,62.4,0,0,0,186.59,110.48Z" style="opacity:0.1"></path><path d="M193.07,139.78c-.38-15-2.62-24.17-3.52-26.33,1.18,4.55,2.49,15.18,2.8,26.53A1,1,0,0,0,193.07,139.78Z" style="opacity:0.1"></path><path d="M195.6,138.14a138.23,138.23,0,0,0-.64-14.27,41.22,41.22,0,0,0-1.88-8.23,81.12,81.12,0,0,1,1.49,8.72c.46,4.28.4,11.41.37,13.5A.78.78,0,0,0,195.6,138.14Z" style="opacity:0.1"></path><path d="M187.22,98.83c1.15,1.81,3.67,10.28,4.09,14.19,0,0-.78-8.46-3.55-14.55Z" style="opacity:0.15"></path><path d="M184.71,100.38a130.28,130.28,0,0,0-1.08,15.35c-.67-6,.43-14.43.5-15" style="opacity:0.15"></path><path d="M181.36,102.14a97.25,97.25,0,0,0-4.16,13c.45-4,3.43-12.09,3.65-12.78Z" style="opacity:0.15"></path><path d="M179.67,77.45c3.39-.15,6.88-2,10.48-5.78v5.18c0,3.86-2.35,8.34-5.24,10h0c-2.9,1.67-5.24-.1-5.24-4Z" style="fill:#77D0D2"></path><path d="M179.67,77.45c3.39-.15,6.88-2,10.48-5.78v5.18c0,3.86-2.35,8.34-5.24,10h0c-2.9,1.67-5.24-.1-5.24-4Z" style="opacity:0.45"></path><path d="M185,84.49c.7-2.64,3.49-10.31,5.15-12.82,0,0,2.78-.09,3.6.71s2.06,2.18,3,6.77l-4.48,6.78a24.86,24.86,0,0,1-2.35,7.93L185,99.06Z" style="fill:#77D0D2"></path><path d="M185,84.49c.7-2.64,3.49-10.31,5.15-12.82,0,0,2.78-.09,3.6.71s2.06,2.18,3,6.77l-4.48,6.78a24.86,24.86,0,0,1-2.35,7.93L185,99.06Z" style="opacity:0.25"></path><path d="M198.18,83.41a52,52,0,0,1-6,8.41c-1.24,1.07-1.35.09-1.35.09h0a27.67,27.67,0,0,0,1.47-6c.5-.75,2.21-4.52,3.06-5.75a12.68,12.68,0,0,1,1.27-1.7,1.37,1.37,0,0,1,.57-.34c.59-.14.68.8.87,1.79S199,81.74,198.18,83.41Z" style="fill:#455a64"></path><path d="M192.12,71.78a13.08,13.08,0,0,0-2-.11c-1.66,2.51-4.45,10.18-5.15,12.82v6.73C186.45,83.77,190.76,74.29,192.12,71.78Z" style="opacity:0.18"></path><path d="M186.65,98.11c.11-3.77-.06-11.27-2.1-14.4a59.87,59.87,0,0,0-4.88-6.26,37.83,37.83,0,0,0-4.09,5c-1.53,2.4-2.5,6.44-3.52,11.12,0,0,4.66.41,5.28,1.19a16.51,16.51,0,0,0,.62,3.42,8.48,8.48,0,0,0,1.14,1.92Z" style="fill:#77D0D2"></path><path d="M186.65,98.11c.11-3.77-.06-11.27-2.1-14.4a59.87,59.87,0,0,0-4.88-6.26,37.83,37.83,0,0,0-4.09,5c-1.53,2.4-2.5,6.44-3.52,11.12,0,0,4.66.41,5.28,1.19a16.51,16.51,0,0,0,.62,3.42,8.48,8.48,0,0,0,1.14,1.92Z" style="opacity:0.25"></path><path d="M178.12,98.53a2.67,2.67,0,0,1-.78,1.37c-.69.69-1.05.09-2.34.23s-3.91-.16-4.33-.56,0-2.1.2-3.16-.23-1.77.48-2.82a2.09,2.09,0,0,1,.88-.78,2.17,2.17,0,0,1,2.13.18c.58.36,1.42.76,2.2,1.2a2,2,0,0,1,.78.57,15.27,15.27,0,0,0,.63,3.41Q178,98.37,178.12,98.53Z" style="fill:#455a64"></path><path d="M176.78,99.72c.29,0,.66-.34.31-.46a6.67,6.67,0,0,1-1.82-.18c-1.16-.35-2.93-1.53-3.69-1.2s-1,1.17-.24,1.5a9.89,9.89,0,0,0,3,.43C175.06,99.83,176.51,99.66,176.78,99.72Z" style="opacity:0.2"></path><path d="M192.11,91.17c-.28.33-.66.49-.34,0a25.71,25.71,0,0,0,1.74-2.44c1.09-1.77,2.72-5.11,3.47-5.74s1-.12.32,1.15a42.93,42.93,0,0,1-2.82,4.1C193.76,89.15,192.36,90.78,192.11,91.17Z" style="opacity:0.2"></path><path d="M179.67,77.45s-1,1-2.11,2.36A42,42,0,0,1,183.08,88c1.17,2.42,1.62,8.47,1.73,11.2l1.84-1.06c.11-3.77-.06-11.27-2.1-14.4A59.87,59.87,0,0,0,179.67,77.45Z" style="opacity:0.15"></path><path d="M177.34,94.76c-.15-1.11-.12-4.12-.33-5s-1.38-.85-1,0a10.62,10.62,0,0,1,.89,3.12A5.87,5.87,0,0,0,177.34,94.76Z" style="opacity:0.15"></path><path d="M192.26,85.93c.15-1.28.12-4.25.33-5.4s1.38-2.45,1-1.16a23.4,23.4,0,0,0-.89,4.15A10.74,10.74,0,0,1,192.26,85.93Z" style="opacity:0.15"></path><path d="M179.1,100.1v3a34.43,34.43,0,0,0,5.81-2.83,23.45,23.45,0,0,0,5-3.48l0-2.92A34.37,34.37,0,0,1,179.1,100.1Z" style="fill:#37474f"></path><path d="M185.27,88.08a1.09,1.09,0,0,1-.46.88c-.25.15-.46,0-.46-.35a1.12,1.12,0,0,1,.46-.88C185.07,87.59,185.27,87.74,185.27,88.08Z" style="fill:#37474f"></path><path d="M185.83,91.32a1.1,1.1,0,0,1-.46.88c-.26.15-.46,0-.46-.35a1.11,1.11,0,0,1,.46-.88C185.62,90.83,185.83,91,185.83,91.32Z" style="fill:#37474f"></path><path d="M186.1,94.51a1.1,1.1,0,0,1-.46.88c-.26.15-.46,0-.46-.35a1.09,1.09,0,0,1,.46-.88C185.89,94,186.1,94.17,186.1,94.51Z" style="fill:#37474f"></path></g><g id="freepik--item--inject-164"><path d="M159.58,264.91l-3-1.72a3.73,3.73,0,0,1-1.7-2.93V179.64a3.73,3.73,0,0,1,1.7-2.93l98.47-56.86a3.77,3.77,0,0,1,3.4,0l3,1.72a3.75,3.75,0,0,1,1.7,2.94v80.61a3.75,3.75,0,0,1-1.7,2.94L163,264.91A3.77,3.77,0,0,1,159.58,264.91Z" style="fill:#e0e0e0"></path><path d="M263.14,124.23c-.12-.87-.84-1.2-1.69-.7L163,180.39a3.39,3.39,0,0,0-1.2,1.26L155.41,178a3.47,3.47,0,0,1,1.2-1.26l98.48-56.86a3.75,3.75,0,0,1,3.39,0l3,1.72A3.78,3.78,0,0,1,263.14,124.23Z" style="fill:#ebebeb"></path><path d="M162.22,264.75c-.5,0-.55-.57-.55-.82V183.32a3.38,3.38,0,0,1,1.5-2.6l98.48-56.85a1.11,1.11,0,0,1,.56-.18c.49,0,.55.57.55.82v80.61a3.37,3.37,0,0,1-1.51,2.6l-98.47,56.85a1.14,1.14,0,0,1-.56.18Z" style="fill:#fafafa"></path><path d="M262.21,124.08c.15,0,.15.38.15.43v80.61a3,3,0,0,1-1.3,2.26l-98.48,56.85a.7.7,0,0,1-.36.13c-.15,0-.16-.39-.16-.43V183.32a3,3,0,0,1,1.31-2.26l98.47-56.85a.73.73,0,0,1,.37-.13m0-.78a1.5,1.5,0,0,0-.76.23L163,180.38a3.75,3.75,0,0,0-1.7,2.94v80.61c0,.77.38,1.21.94,1.21a1.53,1.53,0,0,0,.76-.23l98.47-56.85a3.75,3.75,0,0,0,1.7-2.94V124.51c0-.77-.38-1.21-.94-1.21Z" style="fill:#e0e0e0"></path><path d="M210.54,225.46l-.74-.42a1.86,1.86,0,0,1-.83-1.45v-7.76a1.84,1.84,0,0,1,.83-1.45l28.65-16.54a1.84,1.84,0,0,1,1.68,0l.73.42a1.84,1.84,0,0,1,.84,1.45v7.76a1.84,1.84,0,0,1-.84,1.45l-28.65,16.54A1.89,1.89,0,0,1,210.54,225.46Z" style="fill:#77D0D2"></path><path d="M210.54,225.46l-.74-.42a1.86,1.86,0,0,1-.83-1.45v-7.76a1.84,1.84,0,0,1,.83-1.45l28.65-16.54a1.84,1.84,0,0,1,1.68,0l.73.42a1.84,1.84,0,0,1,.84,1.45v7.76a1.84,1.84,0,0,1-.84,1.45l-28.65,16.54A1.89,1.89,0,0,1,210.54,225.46Z" style="opacity:0.2"></path><path d="M241.69,199.57c-.05-.43-.41-.59-.83-.34l-28.64,16.54a1.7,1.7,0,0,0-.6.62L209.21,215a1.68,1.68,0,0,1,.59-.62l28.66-16.54a1.82,1.82,0,0,1,1.67,0l.73.42A1.83,1.83,0,0,1,241.69,199.57Z" style="fill:#77D0D2"></path><path d="M241.69,199.57c-.05-.43-.41-.59-.83-.34l-28.64,16.54a1.7,1.7,0,0,0-.6.62L209.21,215a1.68,1.68,0,0,1,.59-.62l28.66-16.54a1.82,1.82,0,0,1,1.67,0l.73.42A1.83,1.83,0,0,1,241.69,199.57Z" style="fill:#fff;opacity:0.6000000000000001"></path><path d="M211.38,217.22V225c0,.54.37.75.83.49l28.65-16.54a1.84,1.84,0,0,0,.84-1.45v-7.76c0-.53-.37-.75-.84-.48l-28.65,16.54A1.83,1.83,0,0,0,211.38,217.22Z" style="fill:#77D0D2"></path><path d="M245.56,205.24l-.74-.42a1.87,1.87,0,0,1-.84-1.45v-7.76a1.87,1.87,0,0,1,.84-1.45l7.29-4.21a1.89,1.89,0,0,1,1.67,0l.74.43a1.84,1.84,0,0,1,.84,1.44v7.76a1.85,1.85,0,0,1-.84,1.45l-7.29,4.21A1.82,1.82,0,0,1,245.56,205.24Z" style="fill:#e0e0e0"></path><path d="M255.35,191.69c-.06-.43-.41-.59-.83-.35l-7.29,4.21a1.85,1.85,0,0,0-.59.62l-2.41-1.38a1.64,1.64,0,0,1,.59-.63l7.29-4.21a1.89,1.89,0,0,1,1.67,0l.74.43A1.86,1.86,0,0,1,255.35,191.69Z" style="fill:#ebebeb"></path><path d="M246.86,205.16c-.25,0-.27-.28-.27-.4V197a1.67,1.67,0,0,1,.74-1.28l7.29-4.21a.54.54,0,0,1,.27-.09c.25,0,.27.28.27.4v7.76a1.65,1.65,0,0,1-.74,1.28l-7.29,4.21A.54.54,0,0,1,246.86,205.16Z" style="fill:#fafafa"></path><path d="M254.89,191.61c.08,0,.08.19.08.21v7.76a1.48,1.48,0,0,1-.64,1.12L247,204.9a.4.4,0,0,1-.18.07c-.08,0-.08-.19-.08-.21V197a1.48,1.48,0,0,1,.64-1.12l7.29-4.2a.4.4,0,0,1,.18-.07m0-.38a.71.71,0,0,0-.37.11l-7.29,4.21a1.87,1.87,0,0,0-.84,1.45v7.76c0,.38.19.59.47.59a.71.71,0,0,0,.37-.11l7.29-4.21a1.85,1.85,0,0,0,.84-1.45v-7.76c0-.37-.19-.59-.47-.59Z" style="fill:#e0e0e0"></path><path d="M211.41,165.27l39-22.52c1.32-.76,2.38-.14,2.38,1.37v0a5.22,5.22,0,0,1-2.38,4.11l-39,22.53c-1.32.75-2.38.14-2.38-1.38v0A5.24,5.24,0,0,1,211.41,165.27Z" style="fill:#77D0D2"></path><path d="M211.41,165.27l39-22.52c1.32-.76,2.38-.14,2.38,1.37v0a5.22,5.22,0,0,1-2.38,4.11l-39,22.53c-1.32.75-2.38.14-2.38-1.38v0A5.24,5.24,0,0,1,211.41,165.27Z" style="opacity:0.25"></path><path d="M212.74,177.12a1.65,1.65,0,0,1,.76-.1,1,1,0,0,1,.54.2,1.18,1.18,0,0,1,.34.43,1.65,1.65,0,0,1,.13.53.41.41,0,0,1-.07.26.46.46,0,0,1-.17.19l-.62.36a.25.25,0,0,1-.22,0,.29.29,0,0,1-.14-.13.58.58,0,0,0-.4-.27,1.22,1.22,0,0,0-.8.24,3.11,3.11,0,0,0-.43.31,2.66,2.66,0,0,0-.36.4,1.77,1.77,0,0,0-.25.44,1.42,1.42,0,0,0-.08.45.66.66,0,0,0,.09.39.43.43,0,0,0,.32.11,2.29,2.29,0,0,0,.55-.09l.83-.23a3.91,3.91,0,0,1,.89-.16,1.11,1.11,0,0,1,.6.15.78.78,0,0,1,.33.47,2.57,2.57,0,0,1,.11.8,3.33,3.33,0,0,1-.14.93,4,4,0,0,1-.38.94,5.63,5.63,0,0,1-.61.89,5.39,5.39,0,0,1-.82.76v.8a.68.68,0,0,1-.07.27.53.53,0,0,1-.17.19l-.71.41a.13.13,0,0,1-.17,0,.2.2,0,0,1-.07-.18v-.8a2.17,2.17,0,0,1-.75.15,1.15,1.15,0,0,1-.6-.12,1,1,0,0,1-.42-.41,1.53,1.53,0,0,1-.18-.72.53.53,0,0,1,.06-.27.51.51,0,0,1,.18-.18l.61-.36a.29.29,0,0,1,.23-.06.25.25,0,0,1,.14.13.86.86,0,0,0,.15.22.36.36,0,0,0,.23.14.87.87,0,0,0,.38,0,2,2,0,0,0,.56-.24,3.54,3.54,0,0,0,.51-.35,2.5,2.5,0,0,0,.43-.43,1.86,1.86,0,0,0,.3-.47,1.2,1.2,0,0,0,.12-.52.45.45,0,0,0-.13-.36.51.51,0,0,0-.37-.06,3.84,3.84,0,0,0-.62.13c-.25.08-.54.15-.86.23a3.39,3.39,0,0,1-.77.11,1,1,0,0,1-.55-.16,1,1,0,0,1-.32-.48,2.87,2.87,0,0,1-.1-.85,3.25,3.25,0,0,1,.13-.92,5.07,5.07,0,0,1,.36-.91,5.34,5.34,0,0,1,.56-.84,5.44,5.44,0,0,1,.72-.72V177a.54.54,0,0,1,.07-.26.46.46,0,0,1,.17-.19l.71-.41a.15.15,0,0,1,.17,0,.26.26,0,0,1,.07.19Z" style="fill:#455a64"></path><path d="M217.23,177.22a.24.24,0,0,1,0-.21.62.62,0,0,1,.09-.26l1.91-3.12.15-.22a.45.45,0,0,1,.16-.15l.69-.4a.14.14,0,0,1,.17,0,.22.22,0,0,1,.07.18v7.59a.68.68,0,0,1-.07.27.53.53,0,0,1-.17.19l-.71.41c-.07,0-.13,0-.17,0s-.07-.09-.07-.18v-5.81l-1.25,2a.33.33,0,0,1-.18.16.12.12,0,0,1-.16,0Z" style="fill:#455a64"></path><path d="M224.28,174.11a2.59,2.59,0,0,0,.34-.77,2.67,2.67,0,0,0,.07-.58.88.88,0,0,0-.22-.69c-.14-.14-.39-.11-.73.08a1.78,1.78,0,0,0-.71.73,3.78,3.78,0,0,0-.32,1,.68.68,0,0,1-.11.29.52.52,0,0,1-.15.17l-.7.4a.15.15,0,0,1-.17,0,.18.18,0,0,1-.07-.19,5.08,5.08,0,0,1,.2-1.12,5.56,5.56,0,0,1,.48-1.09,4.68,4.68,0,0,1,.69-1,3.68,3.68,0,0,1,.85-.7,1.91,1.91,0,0,1,1-.31,1,1,0,0,1,.67.23,1.36,1.36,0,0,1,.4.62,2.86,2.86,0,0,1,.12.85,5.24,5.24,0,0,1,0,.57,2.82,2.82,0,0,1-.13.6,4.79,4.79,0,0,1-.28.72c-.12.26-.29.56-.49.9l-1.63,2.93,2.45-1.41a.15.15,0,0,1,.17,0,.26.26,0,0,1,.07.19v.83a.63.63,0,0,1-.07.26.46.46,0,0,1-.17.19l-4.12,2.38a.14.14,0,0,1-.17,0,.22.22,0,0,1-.07-.18v-.71a.93.93,0,0,1,.09-.4,2.73,2.73,0,0,1,.15-.3Z" style="fill:#455a64"></path><path d="M228,174.8a.15.15,0,0,1,.17,0,.21.21,0,0,1,.07.18v1.16a.54.54,0,0,1-.07.26.46.46,0,0,1-.17.19l-.82.48a.17.17,0,0,1-.17,0,.25.25,0,0,1-.07-.18v-1.16a.68.68,0,0,1,.07-.26.53.53,0,0,1,.17-.19Z" style="fill:#455a64"></path><path d="M229.6,167.74a.48.48,0,0,1,.07-.26.47.47,0,0,1,.16-.2l3.32-1.91a.14.14,0,0,1,.17,0,.22.22,0,0,1,.07.18v.83a.68.68,0,0,1-.07.27.53.53,0,0,1-.17.19l-2.48,1.43-.1,1.56a2.25,2.25,0,0,1,.48-.42c.15-.11.28-.19.38-.25a2.58,2.58,0,0,1,.92-.35,1,1,0,0,1,1.21.67,2.63,2.63,0,0,1,.18,1.06,5.08,5.08,0,0,1-.18,1.39,5.14,5.14,0,0,1-.49,1.17,4.52,4.52,0,0,1-.74.93,4.44,4.44,0,0,1-.9.68,3.08,3.08,0,0,1-1.05.41,1.05,1.05,0,0,1-.72-.09,1,1,0,0,1-.43-.49,2,2,0,0,1-.16-.78.45.45,0,0,1,.06-.27.53.53,0,0,1,.17-.19l.72-.41a.16.16,0,0,1,.16,0,.19.19,0,0,1,.1.14.64.64,0,0,0,.16.35.47.47,0,0,0,.27.12.68.68,0,0,0,.33-.06,2.78,2.78,0,0,0,.39-.19,2.16,2.16,0,0,0,.81-.83,2.31,2.31,0,0,0,.31-1.18.72.72,0,0,0-.31-.7.8.8,0,0,0-.81.1,1.9,1.9,0,0,0-.42.3,2,2,0,0,0-.25.26,2.31,2.31,0,0,1-.18.23.85.85,0,0,1-.2.17l-.81.47c-.07,0-.12,0-.17,0a.21.21,0,0,1-.07-.18Z" style="fill:#455a64"></path><path d="M235.49,171.93a.25.25,0,0,1,0-.1l0-.08,1.16-2.89a2.31,2.31,0,0,1-.92.32,1.18,1.18,0,0,1-.73-.15,1.25,1.25,0,0,1-.49-.6,2.69,2.69,0,0,1-.18-1.06,4.58,4.58,0,0,1,.18-1.27,5.37,5.37,0,0,1,.5-1.18,4.93,4.93,0,0,1,.75-1,4.26,4.26,0,0,1,.93-.74,2.34,2.34,0,0,1,.92-.33,1.16,1.16,0,0,1,.75.13,1.29,1.29,0,0,1,.5.61,2.71,2.71,0,0,1,.18,1.07,3.68,3.68,0,0,1-.06.66,4.27,4.27,0,0,1-.15.64c-.06.21-.13.41-.2.61s-.15.39-.22.58l-1.66,4.11c0,.06-.06.13-.09.2a.47.47,0,0,1-.18.19l-.8.46a.12.12,0,0,1-.16,0A.21.21,0,0,1,235.49,171.93Zm.09-5.25c0,.44.11.71.33.82a.91.91,0,0,0,.83-.13,2.44,2.44,0,0,0,.83-.83,2.33,2.33,0,0,0,.32-1.19c0-.43-.11-.71-.32-.82a.87.87,0,0,0-.83.12,2.4,2.4,0,0,0-1.16,2Z" style="fill:#455a64"></path><path d="M215.5,216.17c.06,0,.1,0,.12,0a.26.26,0,0,1,.07.13l1.22,3.47v.05a.31.31,0,0,1,0,.15.3.3,0,0,1-.09.1l-.36.21c-.07,0-.11,0-.14,0a.15.15,0,0,1-.05-.07l-.22-.62-1.56.91-.21.85a1.56,1.56,0,0,1-.06.15.36.36,0,0,1-.14.13l-.36.21a.07.07,0,0,1-.09,0,.11.11,0,0,1,0-.1.07.07,0,0,1,0-.05l1.21-4.88a1,1,0,0,1,.07-.21.34.34,0,0,1,.12-.12Zm.28,2.75-.55-1.57-.54,2.2Z" style="fill:#455a64"></path><path d="M218.28,215.69a.73.73,0,0,1,.27-.11.58.58,0,0,1,.22,0l.15,0a.41.41,0,0,1,.11.07v-1.41a.28.28,0,0,1,0-.15.18.18,0,0,1,.09-.1l.38-.22a.08.08,0,0,1,.09,0,.11.11,0,0,1,0,.1v4.33a.28.28,0,0,1,0,.15.35.35,0,0,1-.09.11l-.38.22s-.07,0-.09,0a.12.12,0,0,1,0-.1v-.16l-.11.19a1.43,1.43,0,0,1-.15.22l-.22.22a1.35,1.35,0,0,1-.27.2.78.78,0,0,1-.45.13.52.52,0,0,1-.34-.14.85.85,0,0,1-.22-.37,1.72,1.72,0,0,1-.1-.53v-.47a2.94,2.94,0,0,1,.1-.63,2.77,2.77,0,0,1,.22-.63,2.73,2.73,0,0,1,.34-.54A1.67,1.67,0,0,1,218.28,215.69Zm-.46,1.87a2.28,2.28,0,0,0,0,.37c0,.27.08.44.2.5a.4.4,0,0,0,.41-.05,1.18,1.18,0,0,0,.41-.42,1.63,1.63,0,0,0,.19-.66c0-.07,0-.16,0-.26s0-.18,0-.25a.55.55,0,0,0-.19-.43.41.41,0,0,0-.41,0,1.07,1.07,0,0,0-.41.43A1.54,1.54,0,0,0,217.82,217.56Z" style="fill:#455a64"></path><path d="M221.35,213.92a1,1,0,0,1,.27-.12.82.82,0,0,1,.21,0,.38.38,0,0,1,.16,0,.26.26,0,0,1,.1.07v-1.41a.42.42,0,0,1,0-.15.36.36,0,0,1,.1-.11l.37-.21a.09.09,0,0,1,.1,0,.11.11,0,0,1,0,.1v4.33a.28.28,0,0,1,0,.15.27.27,0,0,1-.1.11l-.37.22a.09.09,0,0,1-.1,0,.16.16,0,0,1,0-.11v-.15a1.18,1.18,0,0,1-.1.19,1.53,1.53,0,0,1-.16.22,2.13,2.13,0,0,1-.21.22,1.89,1.89,0,0,1-.27.2.78.78,0,0,1-.45.13.51.51,0,0,1-.34-.15.86.86,0,0,1-.23-.36,2.17,2.17,0,0,1-.09-.53v-.47a3.54,3.54,0,0,1,.09-.63,3.38,3.38,0,0,1,.23-.63,2.15,2.15,0,0,1,.34-.54A1.67,1.67,0,0,1,221.35,213.92Zm-.47,1.87a2.28,2.28,0,0,0,0,.37c0,.27.09.44.2.5a.39.39,0,0,0,.41,0,1,1,0,0,0,.41-.43,1.41,1.41,0,0,0,.19-.65,2,2,0,0,0,0-.26,1.85,1.85,0,0,0,0-.25.5.5,0,0,0-.19-.43c-.11-.07-.24-.05-.41,0a1.14,1.14,0,0,0-.41.43A1.81,1.81,0,0,0,220.88,215.79Z" style="fill:#455a64"></path><path d="M225.32,213.89a.41.41,0,0,0,.08.28c.06.05.16,0,.31-.06l.3-.17s.07,0,.09,0a.11.11,0,0,1,0,.1v.44a.34.34,0,0,1,0,.15.18.18,0,0,1-.09.1l-.37.21c-.31.18-.55.22-.71.12s-.25-.37-.25-.78v-1.42l-.33.19a.09.09,0,0,1-.1,0,.13.13,0,0,1,0-.1v-.44a.4.4,0,0,1,0-.15.24.24,0,0,1,.1-.1l.33-.19V211a.28.28,0,0,1,0-.15.24.24,0,0,1,.09-.11l.38-.21a.1.1,0,0,1,.09,0,.12.12,0,0,1,0,.11v1.07l.64-.36s.07,0,.09,0a.12.12,0,0,1,0,.11v.43a.28.28,0,0,1,0,.15.2.2,0,0,1-.09.11l-.64.37Z" style="fill:#455a64"></path><path d="M227.76,210.22a1.14,1.14,0,0,1,.5-.17.62.62,0,0,1,.38.09.81.81,0,0,1,.26.31,1.47,1.47,0,0,1,.11.5v.67a3,3,0,0,1-.12.64,3.16,3.16,0,0,1-.25.6,3.39,3.39,0,0,1-.38.53,2.15,2.15,0,0,1-.5.4,1.2,1.2,0,0,1-.49.17.6.6,0,0,1-.38-.09.73.73,0,0,1-.26-.31,1.47,1.47,0,0,1-.11-.5s0-.09,0-.15v-.36c0-.07,0-.12,0-.16a2.78,2.78,0,0,1,.11-.63,3,3,0,0,1,.26-.61,2.62,2.62,0,0,1,.38-.54A2.27,2.27,0,0,1,227.76,210.22Zm.6,1.14a.73.73,0,0,0-.07-.3.25.25,0,0,0-.14-.13.37.37,0,0,0-.18,0l-.21.09a1.3,1.3,0,0,0-.2.15.91.91,0,0,0-.18.21,1,1,0,0,0-.14.3,1.42,1.42,0,0,0-.08.38v.14a.86.86,0,0,0,0,.16.91.91,0,0,0,0,.17v.12a.64.64,0,0,0,.08.3.24.24,0,0,0,.14.14.28.28,0,0,0,.18,0,.88.88,0,0,0,.2-.09,1.37,1.37,0,0,0,.21-.15,1,1,0,0,0,.18-.21,1.12,1.12,0,0,0,.14-.29,1.59,1.59,0,0,0,.07-.39.45.45,0,0,0,0-.13v-.33A.45.45,0,0,0,228.36,211.36Z" style="fill:#455a64"></path><path d="M230.88,211.92a.08.08,0,0,1-.09,0,.12.12,0,0,1,0-.1v-4.27a.28.28,0,0,1,0-.15.35.35,0,0,1,.09-.11l1.47-.84a1.14,1.14,0,0,1,.53-.18.49.49,0,0,1,.34.13.74.74,0,0,1,.19.31,1.75,1.75,0,0,1,.05.4,1.5,1.5,0,0,1,0,.37,1.34,1.34,0,0,1-.1.32,1.17,1.17,0,0,1-.11.25l-.09.15a.6.6,0,0,1,.28.23,1,1,0,0,1,.13.57,2.11,2.11,0,0,1-.07.54,2.88,2.88,0,0,1-.2.56,2.22,2.22,0,0,1-.34.52,1.57,1.57,0,0,1-.46.39Zm1.91-4.39c0-.17,0-.27-.12-.32s-.2,0-.37.09l-.88.51v1l.88-.51a1,1,0,0,0,.37-.35A.83.83,0,0,0,232.79,207.53Zm-1.37,3.25.92-.53a1,1,0,0,0,.4-.38,1,1,0,0,0,.12-.48.37.37,0,0,0-.13-.34c-.09-.05-.22,0-.39.07l-.92.53Z" style="fill:#455a64"></path><path d="M234.11,207.47a1.39,1.39,0,0,1,.09-.35,1.77,1.77,0,0,1,.2-.42,2.4,2.4,0,0,1,.32-.41,2.25,2.25,0,0,1,.45-.35,1.41,1.41,0,0,1,.45-.17.51.51,0,0,1,.35.06.6.6,0,0,1,.23.3,1.68,1.68,0,0,1,.08.55v1.95a.37.37,0,0,1,0,.14.22.22,0,0,1-.1.11l-.37.22a.09.09,0,0,1-.1,0,.11.11,0,0,1,0-.1v-.22a2.21,2.21,0,0,1-.3.5,1.48,1.48,0,0,1-.5.42,1,1,0,0,1-.38.15.5.5,0,0,1-.28,0,.47.47,0,0,1-.18-.23,1,1,0,0,1-.06-.38,1.61,1.61,0,0,1,.24-.85,3,3,0,0,1,.65-.73l.81-.65c0-.18,0-.28-.13-.3a.41.41,0,0,0-.33.08.65.65,0,0,0-.2.15,1.93,1.93,0,0,0-.13.21l-.08.12-.08.06-.47.27a.08.08,0,0,1-.08,0S234.1,207.52,234.11,207.47Zm.82,1.38a1.14,1.14,0,0,0,.3-.23,1.54,1.54,0,0,0,.22-.3,1.41,1.41,0,0,0,.14-.31,1.13,1.13,0,0,0,0-.3v-.07l-.67.55a1.43,1.43,0,0,0-.3.31.6.6,0,0,0-.08.29c0,.09,0,.14.1.14A.45.45,0,0,0,234.93,208.85Z" style="fill:#455a64"></path><path d="M238.06,208.44a1,1,0,0,0,.21-.17,1,1,0,0,0,.2-.25,1.57,1.57,0,0,0,.15-.32,1.14,1.14,0,0,0,0-.37v-.24a1.82,1.82,0,0,1-.1.19,1.34,1.34,0,0,1-.16.22,2.13,2.13,0,0,1-.21.22,1.89,1.89,0,0,1-.27.2.87.87,0,0,1-.45.13.51.51,0,0,1-.34-.15.93.93,0,0,1-.23-.36,2.17,2.17,0,0,1-.09-.54v-.46a3.78,3.78,0,0,1,.09-.64,3.29,3.29,0,0,1,.23-.62,2.15,2.15,0,0,1,.34-.54,1.38,1.38,0,0,1,.45-.39,1,1,0,0,1,.27-.12.53.53,0,0,1,.21,0,.25.25,0,0,1,.16,0l.1.06v-.15a.42.42,0,0,1,0-.15.24.24,0,0,1,.1-.1l.37-.22a.09.09,0,0,1,.1,0,.11.11,0,0,1,0,.1v3.1a2.77,2.77,0,0,1-.34,1.4,2.44,2.44,0,0,1-.92.94,1.26,1.26,0,0,1-.47.18.75.75,0,0,1-.37,0,.55.55,0,0,1-.26-.19.68.68,0,0,1-.1-.33.28.28,0,0,1,0-.15.53.53,0,0,1,.09-.11l.34-.19a.11.11,0,0,1,.12,0l.08.07a.25.25,0,0,0,.18.08A.67.67,0,0,0,238.06,208.44Zm-.59-2.22a1.15,1.15,0,0,0,0,.37c0,.27.08.44.19.5a.42.42,0,0,0,.41-.05,1.07,1.07,0,0,0,.41-.43,1.41,1.41,0,0,0,.19-.66,1.69,1.69,0,0,0,0-.25,1.47,1.47,0,0,0,0-.25.5.5,0,0,0-.19-.43.37.37,0,0,0-.41,0,1.18,1.18,0,0,0-.41.42A1.71,1.71,0,0,0,237.47,206.22Z" style="fill:#455a64"></path><path d="M210.79,204.45a2.5,2.5,0,0,1,.07-.54,2.54,2.54,0,0,1,.2-.52,2.26,2.26,0,0,1,.31-.45,2,2,0,0,1,.45-.36,1,1,0,0,1,.45-.16.42.42,0,0,1,.32.09.51.51,0,0,1,.19.29,1.25,1.25,0,0,1,.08.45,1.21,1.21,0,0,1,0,.2v.44a1.21,1.21,0,0,1,0,.2,2.25,2.25,0,0,1-.07.52,2.13,2.13,0,0,1-.18.5l.27.36v0a.29.29,0,0,1,0,.09l-.06.06-.33.19s-.08,0-.1,0l0,0-.12-.15-.18.16a1.64,1.64,0,0,1-.22.14.94.94,0,0,1-.45.16.45.45,0,0,1-.31-.08.66.66,0,0,1-.2-.3,1.52,1.52,0,0,1-.07-.45c0-.06,0-.12,0-.19v-.45C210.78,204.58,210.79,204.51,210.79,204.45Zm1.6-.9a.53.53,0,0,0-.17-.43c-.1-.07-.23-.05-.4,0a1.13,1.13,0,0,0-.39.42,1.4,1.4,0,0,0-.17.62V205a.53.53,0,0,0,.17.43.36.36,0,0,0,.39,0,1,1,0,0,0,.4-.41,1.36,1.36,0,0,0,.17-.62v-.79Z" style="fill:#455a64"></path><path d="M213.92,203.82a.3.3,0,0,0,.05.2s.12,0,.22,0l.22-.12a0,0,0,0,1,.06,0,.08.08,0,0,1,0,.07v.31a.23.23,0,0,1,0,.11.22.22,0,0,1-.06.07l-.26.15q-.35.19-.51.09c-.12-.08-.18-.26-.18-.56v-1l-.23.14a.08.08,0,0,1-.07,0,.1.1,0,0,1,0-.08v-.31a.19.19,0,0,1,0-.1.19.19,0,0,1,.07-.08l.23-.13v-.77a.26.26,0,0,1,0-.11.14.14,0,0,1,.06-.07l.27-.16h.07a.1.1,0,0,1,0,.08v.76l.45-.26s0,0,.07,0a.08.08,0,0,1,0,.07v.31a.23.23,0,0,1,0,.11.16.16,0,0,1-.07.07l-.45.27Z" style="fill:#455a64"></path><path d="M215.41,203.72l-.7-1.75s0,0,0,0a.19.19,0,0,1,0-.1.19.19,0,0,1,.07-.08l.26-.15a.08.08,0,0,1,.08,0,.13.13,0,0,1,0,.06l.47,1.18.47-1.73a.23.23,0,0,1,0-.09.22.22,0,0,1,.07-.09l.27-.15a.06.06,0,0,1,.06,0,.08.08,0,0,1,0,.07v0l-1,3.64a.69.69,0,0,1,0,.1.3.3,0,0,1-.08.08l-.26.15a.08.08,0,0,1-.07,0,.08.08,0,0,1,0-.07s0,0,0,0Z" style="fill:#455a64"></path><path d="M223.43,198.09h-.07a.08.08,0,0,1,0-.07v-.31a.23.23,0,0,1,0-.11.19.19,0,0,1,.07-.08l1.07-.62a.08.08,0,0,1,.07,0,.1.1,0,0,1,0,.08v.3a.23.23,0,0,1,0,.11.19.19,0,0,1-.07.08Z" style="fill:#455a64"></path><path d="M226.51,195.2a.13.13,0,0,1,0-.08.42.42,0,0,1,0-.1l.77-1.25.06-.09a.17.17,0,0,1,.06-.06l.28-.16a0,0,0,0,1,.06,0,.08.08,0,0,1,0,.07v3a.26.26,0,0,1,0,.11.22.22,0,0,1-.06.07l-.29.17a.08.08,0,0,1-.07,0s0,0,0-.08v-2.32l-.5.81-.07.07a.08.08,0,0,1-.07,0Z" style="fill:#455a64"></path><path d="M231,193.74v.85a.22.22,0,0,1,0,.11.16.16,0,0,1-.07.07l-.27.16h-.07a.12.12,0,0,1,0-.07V194l-.63.37h-.07a.1.1,0,0,1,0-.08V194a.19.19,0,0,1,0-.1.19.19,0,0,1,.07-.08l.63-.36v-.85a.43.43,0,0,1,0-.11.29.29,0,0,1,.07-.08l.27-.15s0,0,.07,0,0,0,0,.07v.85l.63-.36h.07a.08.08,0,0,1,0,.07v.31a.23.23,0,0,1,0,.11.16.16,0,0,1-.07.07Z" style="fill:#455a64"></path><path d="M220.37,189.74l.67-1.94.05-.1a.22.22,0,0,1,.1-.11l.24-.14s0,0,.07,0,0,0,0,.07v3a.19.19,0,0,1,0,.1.19.19,0,0,1-.07.08l-.28.16s-.05,0-.07,0,0,0,0-.07V189l-.46,1.33a.93.93,0,0,1-.05.1.24.24,0,0,1-.08.09l-.18.1s-.06,0-.08,0a.12.12,0,0,1,0-.05l-.46-.79v1.84a.19.19,0,0,1,0,.1.19.19,0,0,1-.07.08l-.28.16a.06.06,0,0,1-.07,0,.1.1,0,0,1,0-.08v-3a.23.23,0,0,1,0-.11.19.19,0,0,1,.07-.08l.24-.13s.08,0,.1,0l0,0Z" style="fill:#455a64"></path><path d="M211.72,193a1.11,1.11,0,0,1,.42-.16.56.56,0,0,1,.3,0,.42.42,0,0,1,.18.17.72.72,0,0,1,.07.25.2.2,0,0,1,0,.11.27.27,0,0,1-.07.08l-.24.14s-.07,0-.09,0l-.06,0a.21.21,0,0,0-.16-.11.47.47,0,0,0-.32.09,1.09,1.09,0,0,0-.17.13,1.14,1.14,0,0,0-.15.16.51.51,0,0,0-.09.18.39.39,0,0,0,0,.18.21.21,0,0,0,0,.15s.06.05.11.05a.56.56,0,0,0,.21,0l.32-.09a1.48,1.48,0,0,1,.37-.07.49.49,0,0,1,.25.05.37.37,0,0,1,.14.18,1,1,0,0,1,0,.32,1.33,1.33,0,0,1-.07.43,1.95,1.95,0,0,1-.52.82,2.29,2.29,0,0,1-.43.32,1.35,1.35,0,0,1-.38.16.86.86,0,0,1-.32,0,.44.44,0,0,1-.22-.16.53.53,0,0,1-.09-.32.14.14,0,0,1,0-.11.19.19,0,0,1,.07-.08l.25-.14s.07,0,.09,0,0,0,.05,0l.06.09a.16.16,0,0,0,.1.05.27.27,0,0,0,.15,0,.8.8,0,0,0,.22-.1,1.28,1.28,0,0,0,.21-.14.91.91,0,0,0,.17-.17.76.76,0,0,0,.12-.19.45.45,0,0,0,0-.2.17.17,0,0,0-.05-.15.22.22,0,0,0-.15,0,1.48,1.48,0,0,0-.24.05l-.35.09a.86.86,0,0,1-.3,0A.36.36,0,0,1,211,195a.34.34,0,0,1-.13-.19,1.06,1.06,0,0,1-.05-.34,1.35,1.35,0,0,1,.08-.43,1.59,1.59,0,0,1,.19-.42,2.48,2.48,0,0,1,.29-.37A1.9,1.9,0,0,1,211.72,193Z" style="fill:#455a64"></path><path d="M229.19,185.67h.07a.08.08,0,0,1,0,.07v.34a.19.19,0,0,1,0,.1.19.19,0,0,1-.07.08l-1.54.89s-.05,0-.07,0a.08.08,0,0,1,0-.07v-3a.19.19,0,0,1,0-.1.19.19,0,0,1,.07-.08l.28-.17H228a.1.1,0,0,1,0,.08v2.57Z" style="fill:#455a64"></path><path d="M237.49,181.47c-.05,0-.08,0-.11,0l0,0-.56-.72-.56,1.36a.45.45,0,0,1-.05.1.26.26,0,0,1-.1.11l-.29.17h-.07a.09.09,0,0,1,0-.07.13.13,0,0,1,0-.06l.81-2-.77-1a.06.06,0,0,1,0,0,.43.43,0,0,1,0-.11.15.15,0,0,1,.07-.07l.3-.18s.08,0,.1,0l0,0,.53.68.53-1.3,0-.09a.23.23,0,0,1,.11-.11l.29-.17s.05,0,.07,0a.08.08,0,0,1,0,.07s0,0,0,.06l-.78,1.9.8,1s0,0,0,.05a.19.19,0,0,1,0,.1.19.19,0,0,1-.07.08Z" style="fill:#455a64"></path><path d="M239.87,179.51s0,0,.06,0a.08.08,0,0,1,0,.07v.33a.23.23,0,0,1,0,.11.14.14,0,0,1-.06.07l-1.55.9h-.06a.09.09,0,0,1,0-.07v-3a.23.23,0,0,1,0-.11.14.14,0,0,1,.06-.07l.29-.17s0,0,.07,0a.12.12,0,0,1,0,.07v2.58Z" style="fill:#455a64"></path><path d="M209,199.9a.66.66,0,0,1-.32-.08.77.77,0,0,1-.35-.7V194a1.81,1.81,0,0,1,.82-1.43l4.49-2.59a.7.7,0,0,1,1.12.65v5.17a1.78,1.78,0,0,1-.83,1.43l-4.48,2.59A.89.89,0,0,1,209,199.9Zm5.09-9.51a.32.32,0,0,0-.16.05L209.41,193a1.18,1.18,0,0,0-.53.92v5.17c0,.12,0,.18.05.19a.25.25,0,0,0,.19-.05l4.48-2.59a1.21,1.21,0,0,0,.53-.92v-5.17c0-.12,0-.18,0-.19Z" style="fill:#77D0D2"></path><path id="freepik--heart--inject-164" d="M253.58,195.92a1.36,1.36,0,0,0-.35-1h0a.85.85,0,0,0-1,0,4,4,0,0,0-1.38,2.75c-.09-.86-.68-1.56-1.39-1.14a2.86,2.86,0,0,0-1,1.23h0a3.35,3.35,0,0,0-.35,1.43,2.52,2.52,0,0,0,2.79,2.65S253.58,198.78,253.58,195.92Z" style="fill:#77D0D2"></path><path id="freepik--heart--inject-164" d="M253.58,195.92a1.36,1.36,0,0,0-.35-1h0a.85.85,0,0,0-1,0,4,4,0,0,0-1.38,2.75c-.09-.86-.68-1.56-1.39-1.14a2.86,2.86,0,0,0-1,1.23h0a3.35,3.35,0,0,0-.35,1.43,2.52,2.52,0,0,0,2.79,2.65S253.58,198.78,253.58,195.92Z" style="opacity:0.25"></path><path d="M175.89,245.33c1.26-1.12,2.07.44,2.78,2.06.6,1.35,2.67,1.26,6.91-1.19s5.16-3.82,6-6.24,1.19-5.29,2.65-5.76c0,0-.42-3.17-8.48,1.48S175.89,245.33,175.89,245.33Z" style="fill:#77D0D2"></path><path d="M175.89,245.33c1.26-1.12,2.07.44,2.78,2.06.6,1.35,2.67,1.26,6.91-1.19s5.16-3.82,6-6.24,1.19-5.29,2.65-5.76c0,0-.42-3.17-8.48,1.48S175.89,245.33,175.89,245.33Z" style="opacity:0.2"></path><path d="M180.74,179.52,177,184s.07,5.82.34,10,1,10,1.36,10.41,1.3-.13,1.3-.13l10.39-6a2.61,2.61,0,0,0,1.28-1.3c.51-1.14.8-5.51.78-11.47s0-10.5,0-10.5l-3.33-.26Z" style="fill:#77D0D2"></path><path d="M180.91,203.68l-.94.55s-.89.56-1.29.13-1.1-6.27-1.37-10.41S177,184,177,184l2.66-3.17C179.57,187.34,180.21,200.31,180.91,203.68Z" style="opacity:0.1"></path><path d="M191.63,196.94a2.57,2.57,0,0,1-1.27,1.29l-1.44.83c.71-4.18,1.35-17.83,1.28-24.27l2.22.17s0,4.55,0,10.51S192.14,195.8,191.63,196.94Z" style="opacity:0.1"></path><path d="M180,205.35a34.33,34.33,0,0,0-2.47,11c-.21,4.4-1.61,29-1.61,29s1.52-1.79,2.46-.58,2.87,2,7.39-.63,5.3-5,5.88-6.54,1.33-3,2.57-3.38c0,0-.94-22-1.26-27.34s-1.68-7.41-2.57-7.5Z" style="fill:#77D0D2"></path><path d="M178,201c-.11,1.32-.21,2.58-.26,3.18-.13,1.49-.77,1.5-.77,1.5-1.44-2.1-3.85-.12-3.85-.12s.79-7.26,1.27-12S175,186.33,177,184c0,0,.06,5.81.33,9.95C177.45,196.18,177.72,198.92,178,201Z" style="fill:#77D0D2"></path><path d="M178,201c-.11,1.32-.21,2.58-.26,3.18-.13,1.49-.77,1.5-.77,1.5-1.44-2.1-3.85-.12-3.85-.12s.79-7.26,1.27-12S175,186.33,177,184c0,0,.06,5.81.33,9.95C177.45,196.18,177.72,198.92,178,201Z" style="opacity:0.30000000000000004"></path><path d="M177,205.71c-1.43-2.11-3.84-.13-3.84-.13a2.29,2.29,0,0,0-.76,1.23,36.64,36.64,0,0,0-.43,3.75c.05.4.63,1.05,2.05,1.1s2.31-.56,2.51-1.54.7-2.47.74-3A2.29,2.29,0,0,0,177,205.71Z" style="fill:#77D0D2"></path><path d="M177,205.71c-1.43-2.11-3.84-.13-3.84-.13a2.29,2.29,0,0,0-.76,1.23,36.64,36.64,0,0,0-.43,3.75c.05.4.63,1.05,2.05,1.1s2.31-.56,2.51-1.54.7-2.47.74-3A2.29,2.29,0,0,0,177,205.71Z" style="opacity:0.15"></path><path d="M172.61,210c.19-.61,3.49-.54,3.33.22S172.23,211.11,172.61,210Z" style="opacity:0.2"></path><path d="M196.83,191.82s-2.42.9-3.8,4.68c0,0-.63.74-.79-.57,0-.29-.09-.76-.15-1.32a89.83,89.83,0,0,0,.33-9.14c0-6,0-10.51,0-10.51,2-.06,2.33,2.41,2.91,6.52S196.83,191.82,196.83,191.82Z" style="fill:#77D0D2"></path><path d="M196.83,191.82s-2.42.9-3.8,4.68c0,0-.63.74-.79-.57,0-.29-.09-.76-.15-1.32a89.83,89.83,0,0,0,.33-9.14c0-6,0-10.51,0-10.51,2-.06,2.33,2.41,2.91,6.52S196.83,191.82,196.83,191.82Z" style="opacity:0.30000000000000004"></path><path d="M193,196.5c1.38-3.78,3.8-4.68,3.8-4.68s.63-.25.78.32a22.08,22.08,0,0,1,.49,3.2,8.88,8.88,0,0,1-2,3.51c-1.4,1.72-2.3,2.18-2.52,1.45a22.41,22.41,0,0,1-.79-2.12A4.36,4.36,0,0,1,193,196.5Z" style="fill:#77D0D2"></path><path d="M193,196.5c1.38-3.78,3.8-4.68,3.8-4.68s.63-.25.78.32a22.08,22.08,0,0,1,.49,3.2,8.88,8.88,0,0,1-2,3.51c-1.4,1.72-2.3,2.18-2.52,1.45a22.41,22.41,0,0,1-.79-2.12A4.36,4.36,0,0,1,193,196.5Z" style="opacity:0.15"></path><path d="M197.43,195.59c-.19-.38-3.45,3.59-3.28,4.15S197.83,196.23,197.43,195.59Z" style="opacity:0.2"></path><path d="M190.36,199.36l-2.12,1.22c1.88,1.76,2.21,7,2.29,14.35.05,4.66,0,16.72,0,25a11.67,11.67,0,0,0,1.07-2.32c.58-1.6,1.33-3,2.57-3.38,0,0-.94-22-1.26-27.34S191.25,199.45,190.36,199.36Z" style="opacity:0.1"></path><path d="M182.28,204,180,205.35a34.33,34.33,0,0,0-2.47,11c-.21,4.4-1.61,29-1.61,29s1.52-1.79,2.46-.58c.17.21.33.43.52.63.22-10.71.68-20.83.83-25.39C180,211.23,180.39,207.94,182.28,204Z" style="opacity:0.1"></path><path d="M178.84,190.77l4-2.52.12,4.21a1.58,1.58,0,0,1-.32.95l-1.35,1.83a.8.8,0,0,1-.6.37l-1.41-.1c-.21,0-.35-.22-.36-.53Z" style="fill:#77D0D2"></path><path d="M178.84,190.77l4-2.52.12,4.21a1.58,1.58,0,0,1-.32.95l-1.35,1.83a.8.8,0,0,1-.6.37l-1.41-.1c-.21,0-.35-.22-.36-.53Z" style="opacity:0.15"></path><path d="M178.84,190.77s.32,1.8,2.07.71a4.67,4.67,0,0,0,2-3.23Z" style="fill:#77D0D2"></path><path d="M178.84,190.77s.32,1.8,2.07.71a4.67,4.67,0,0,0,2-3.23Z" style="opacity:0.25"></path><path d="M191,183.75l-4,2.14-.11,4.34c0,.32.11.54.32.58l1.35.26a.68.68,0,0,0,.6-.31l1.41-1.73a1.65,1.65,0,0,0,.35-.93Z" style="fill:#77D0D2"></path><path d="M191,183.75l-4,2.14-.11,4.34c0,.32.11.54.32.58l1.35.26a.68.68,0,0,0,.6-.31l1.41-1.73a1.65,1.65,0,0,0,.35-.93Z" style="opacity:0.15"></path><path d="M191,183.75a4.55,4.55,0,0,1-2.07,3.1,1.22,1.22,0,0,1-2-1Z" style="fill:#77D0D2"></path><path d="M191,183.75a4.55,4.55,0,0,1-2.07,3.1,1.22,1.22,0,0,1-2-1Z" style="opacity:0.25"></path><polygon points="184.3 201.73 185.54 201.02 185.54 176.75 184.3 177.47 184.3 201.73" style="opacity:0.1"></polygon><path d="M184.3,244.88c.39-.19.8-.4,1.24-.65V202.14l-1.24.71Z" style="opacity:0.1"></path><path d="M184.92,179.29a4.71,4.71,0,0,1-1.36,2.65c-1,.68-2.16-1-2.5-1.6a1.6,1.6,0,0,1-.17-1.64,19.76,19.76,0,0,1,1-2.3c-.13.28,0,.79.33,1.54C182.75,179,184.2,179.71,184.92,179.29Z" style="fill:#77D0D2"></path><path d="M184.92,179.29a4.71,4.71,0,0,1-1.36,2.65c-1,.68-2.16-1-2.5-1.6a1.6,1.6,0,0,1-.17-1.64,19.76,19.76,0,0,1,1-2.3c-.13.28,0,.79.33,1.54C182.75,179,184.2,179.71,184.92,179.29Z" style="opacity:0.30000000000000004"></path><path d="M184.92,179.29s.33,1.57,1.36,1.07,2.16-3.46,2.5-4.48.39-1.33.17-1.83a4.2,4.2,0,0,0-1-1.11c.13.13,0,.76-.33,1.91C187.08,176.53,185.64,178.87,184.92,179.29Z" style="fill:#77D0D2"></path><path d="M184.92,179.29s.33,1.57,1.36,1.07,2.16-3.46,2.5-4.48.39-1.33.17-1.83a4.2,4.2,0,0,0-1-1.11c.13.13,0,.76-.33,1.91C187.08,176.53,185.64,178.87,184.92,179.29Z" style="opacity:0.30000000000000004"></path><path d="M184.92,179.29c.72-.42,2.17-2.77,2.67-4.44s.51-2.26,0-1.76a11.11,11.11,0,0,1-2.67,2.26,5.67,5.67,0,0,1-2.67.83c-.5.08-.5.66,0,1.76S184.2,179.7,184.92,179.29Z" style="fill:#77D0D2"></path><path d="M184.92,179.29c.72-.42,2.17-2.77,2.67-4.44s.51-2.26,0-1.76a11.11,11.11,0,0,1-2.67,2.26,5.67,5.67,0,0,1-2.67.83c-.5.08-.5.66,0,1.76S184.2,179.7,184.92,179.29Z" style="opacity:0.45"></path><path d="M180,204.23v1.12a32.59,32.59,0,0,0,10.39-6v-1.13Z" style="fill:#37474f"></path></g><g id="freepik--item--inject-164"><path d="M48,230.07l-3-1.72a3.75,3.75,0,0,1-1.7-2.94V144.8a3.75,3.75,0,0,1,1.7-2.94L143.53,85a3.75,3.75,0,0,1,3.39,0l3,1.72a3.73,3.73,0,0,1,1.7,2.93v80.61a3.73,3.73,0,0,1-1.7,2.94L51.42,230.07A3.75,3.75,0,0,1,48,230.07Z" style="fill:#e0e0e0"></path><path d="M151.58,89.39c-.11-.88-.83-1.2-1.68-.7L51.43,145.54a3.55,3.55,0,0,0-1.2,1.26l-6.37-3.67a3.25,3.25,0,0,1,1.2-1.26L143.53,85a3.77,3.77,0,0,1,3.4,0l3,1.72A3.77,3.77,0,0,1,151.58,89.39Z" style="fill:#ebebeb"></path><path d="M50.67,229.91c-.5,0-.55-.58-.55-.82V148.48a3.38,3.38,0,0,1,1.5-2.6L150.09,89a1.29,1.29,0,0,1,.57-.18c.49,0,.54.58.54.82v80.61a3.35,3.35,0,0,1-1.5,2.6L51.23,229.73a1.25,1.25,0,0,1-.56.18Z" style="fill:#fafafa"></path><path d="M150.66,89.24c.15,0,.15.38.15.42v80.61a3,3,0,0,1-1.3,2.26L51,229.39a.87.87,0,0,1-.36.13c-.15,0-.16-.39-.16-.43V148.48a3,3,0,0,1,1.31-2.26l98.47-56.86a.78.78,0,0,1,.37-.12m0-.79a1.61,1.61,0,0,0-.76.23L51.42,145.54a3.77,3.77,0,0,0-1.69,2.94v80.61c0,.76.38,1.21.94,1.21a1.61,1.61,0,0,0,.75-.23l98.48-56.86a3.73,3.73,0,0,0,1.7-2.94V89.66c0-.76-.39-1.21-.94-1.21Z" style="fill:#e0e0e0"></path><path d="M99,190.61l-.74-.42a1.83,1.83,0,0,1-.83-1.45V181a1.84,1.84,0,0,1,.84-1.44L126.9,163a1.91,1.91,0,0,1,1.68,0l.73.43a1.84,1.84,0,0,1,.84,1.45v7.75a1.84,1.84,0,0,1-.84,1.45l-28.65,16.54A1.82,1.82,0,0,1,99,190.61Z" style="fill:#77D0D2"></path><path d="M99,190.61l-.74-.42a1.83,1.83,0,0,1-.83-1.45V181a1.84,1.84,0,0,1,.84-1.44L126.9,163a1.91,1.91,0,0,1,1.68,0l.73.43a1.84,1.84,0,0,1,.84,1.45v7.75a1.84,1.84,0,0,1-.84,1.45l-28.65,16.54A1.82,1.82,0,0,1,99,190.61Z" style="opacity:0.2"></path><path d="M130.14,164.73c-.06-.43-.41-.59-.83-.35l-28.65,16.55a1.68,1.68,0,0,0-.59.62l-2.41-1.39a1.68,1.68,0,0,1,.59-.62L126.9,163a1.91,1.91,0,0,1,1.68,0l.73.43A1.83,1.83,0,0,1,130.14,164.73Z" style="fill:#77D0D2"></path><path d="M130.14,164.73c-.06-.43-.41-.59-.83-.35l-28.65,16.55a1.68,1.68,0,0,0-.59.62l-2.41-1.39a1.68,1.68,0,0,1,.59-.62L126.9,163a1.91,1.91,0,0,1,1.68,0l.73.43A1.83,1.83,0,0,1,130.14,164.73Z" style="fill:#fff;opacity:0.6000000000000001"></path><path d="M99.82,182.37v7.76c0,.53.38.75.84.48l28.65-16.54a1.84,1.84,0,0,0,.84-1.45v-7.75c0-.54-.38-.75-.84-.49l-28.65,16.54A1.87,1.87,0,0,0,99.82,182.37Z" style="fill:#77D0D2"></path><path d="M134,170.4l-.73-.43a1.84,1.84,0,0,1-.84-1.44v-7.76a1.85,1.85,0,0,1,.84-1.45l7.29-4.21a1.82,1.82,0,0,1,1.67,0l.74.42a1.86,1.86,0,0,1,.83,1.45v7.76a1.86,1.86,0,0,1-.83,1.45l-7.29,4.21A1.91,1.91,0,0,1,134,170.4Z" style="fill:#e0e0e0"></path><path d="M143.8,156.85c-.06-.44-.41-.6-.83-.35l-7.29,4.21a1.68,1.68,0,0,0-.59.62l-2.41-1.39a1.68,1.68,0,0,1,.59-.62l7.29-4.21a1.82,1.82,0,0,1,1.67,0l.74.42A1.91,1.91,0,0,1,143.8,156.85Z" style="fill:#ebebeb"></path><path d="M135.3,170.32c-.24,0-.27-.29-.27-.41v-7.75a1.67,1.67,0,0,1,.75-1.29l7.28-4.21a.67.67,0,0,1,.28-.08c.24,0,.27.28.27.4v7.76a1.67,1.67,0,0,1-.74,1.28l-7.29,4.21a.54.54,0,0,1-.28.09Z" style="fill:#fafafa"></path><path d="M143.34,156.77c.08,0,.08.19.08.21v7.76a1.44,1.44,0,0,1-.65,1.11l-7.28,4.21a.34.34,0,0,1-.19.06c-.07,0-.07-.19-.07-.21v-7.75a1.48,1.48,0,0,1,.64-1.12l7.29-4.21a.48.48,0,0,1,.18-.06m0-.39a.73.73,0,0,0-.37.12l-7.29,4.21a1.84,1.84,0,0,0-.84,1.45v7.75c0,.38.19.6.46.6a.85.85,0,0,0,.38-.11l7.29-4.21a1.86,1.86,0,0,0,.83-1.45V157c0-.38-.18-.6-.46-.6Z" style="fill:#e0e0e0"></path><path d="M99.85,130.43l39-22.52c1.31-.76,2.38-.15,2.38,1.37v0a5.26,5.26,0,0,1-2.38,4.11l-39,22.52c-1.31.76-2.37.15-2.37-1.37v0A5.25,5.25,0,0,1,99.85,130.43Z" style="fill:#77D0D2"></path><path d="M99.85,130.43l39-22.52c1.31-.76,2.38-.15,2.38,1.37v0a5.26,5.26,0,0,1-2.38,4.11l-39,22.52c-1.31.76-2.37.15-2.37-1.37v0A5.25,5.25,0,0,1,99.85,130.43Z" style="opacity:0.25"></path><path d="M101.18,142.28a1.66,1.66,0,0,1,.76-.1,1.07,1.07,0,0,1,.55.2.94.94,0,0,1,.33.43,1.39,1.39,0,0,1,.14.52.52.52,0,0,1-.07.27.53.53,0,0,1-.17.19l-.62.36c-.1,0-.17.07-.22,0a.29.29,0,0,1-.14-.13.62.62,0,0,0-.4-.28,1.23,1.23,0,0,0-.8.25,2.13,2.13,0,0,0-.43.31,2.79,2.79,0,0,0-.37.4,2.11,2.11,0,0,0-.24.44,1.2,1.2,0,0,0-.09.45.6.6,0,0,0,.1.38.37.37,0,0,0,.31.12,2.28,2.28,0,0,0,.56-.09l.82-.23a3.49,3.49,0,0,1,.9-.16,1,1,0,0,1,.6.15.88.88,0,0,1,.33.47,2.6,2.6,0,0,1,.1.8,3.42,3.42,0,0,1-.13.93,5,5,0,0,1-.38.94,5.13,5.13,0,0,1-.61.88,5.53,5.53,0,0,1-.83.77v.8a.62.62,0,0,1-.06.26.46.46,0,0,1-.17.19l-.72.42a.15.15,0,0,1-.16,0,.22.22,0,0,1-.08-.18v-.8a2.08,2.08,0,0,1-.74.15,1.33,1.33,0,0,1-.61-.12,1.1,1.1,0,0,1-.42-.41,1.66,1.66,0,0,1-.17-.72.45.45,0,0,1,.06-.27.5.5,0,0,1,.17-.18l.62-.36a.29.29,0,0,1,.23-.06.21.21,0,0,1,.13.13,1.07,1.07,0,0,0,.15.22.41.41,0,0,0,.24.13.72.72,0,0,0,.38,0,1.87,1.87,0,0,0,.55-.24,5.91,5.91,0,0,0,.52-.35,2.5,2.5,0,0,0,.43-.43,2.41,2.41,0,0,0,.3-.48,1.31,1.31,0,0,0,.11-.52.42.42,0,0,0-.12-.35.52.52,0,0,0-.37-.06,3.21,3.21,0,0,0-.63.13l-.85.23a3.46,3.46,0,0,1-.77.11,1,1,0,0,1-.55-.16,1,1,0,0,1-.32-.48,2.83,2.83,0,0,1-.11-.85,3.33,3.33,0,0,1,.14-.93,4.65,4.65,0,0,1,.36-.91,5.58,5.58,0,0,1,.56-.84,6,6,0,0,1,.71-.71v-.8a.56.56,0,0,1,.08-.26.39.39,0,0,1,.16-.19l.72-.42a.17.17,0,0,1,.17,0,.24.24,0,0,1,.06.18Z" style="fill:#455a64"></path><path d="M105.67,142.38a.33.33,0,0,1,0-.21.52.52,0,0,1,.1-.26l1.91-3.12.15-.22a.61.61,0,0,1,.16-.16l.69-.39a.14.14,0,0,1,.16,0,.22.22,0,0,1,.07.19v7.59a.51.51,0,0,1-.07.26.47.47,0,0,1-.16.2l-.72.41a.15.15,0,0,1-.17,0,.25.25,0,0,1-.07-.18v-5.81l-1.25,2a.36.36,0,0,1-.17.16.12.12,0,0,1-.16,0Z" style="fill:#455a64"></path><path d="M114.72,137.57c0,.14,0,.31,0,.49v1.1c0,.18,0,.35,0,.5a8.45,8.45,0,0,1-.16,1.35,5.36,5.36,0,0,1-.4,1.25,4.84,4.84,0,0,1-.72,1.08,4.1,4.1,0,0,1-1.09.87,2.39,2.39,0,0,1-1.1.39,1,1,0,0,1-.72-.25,1.6,1.6,0,0,1-.4-.78,5,5,0,0,1-.15-1.17c0-.29,0-.63,0-1s0-.72,0-1a7.65,7.65,0,0,1,.15-1.36,5.29,5.29,0,0,1,.4-1.26,5,5,0,0,1,.72-1.11,4.44,4.44,0,0,1,1.1-.88,2.45,2.45,0,0,1,1.09-.39,1,1,0,0,1,.72.25,1.6,1.6,0,0,1,.4.78A5.61,5.61,0,0,1,114.72,137.57Zm-3.55,4.08a2.06,2.06,0,0,0,.3,1.14c.17.21.47.19.88,0a2,2,0,0,0,.87-1,4.21,4.21,0,0,0,.31-1.48c0-.31,0-.64,0-1s0-.69,0-1a1.93,1.93,0,0,0-.31-1.13c-.17-.21-.46-.2-.87,0a2,2,0,0,0-.88,1,4.52,4.52,0,0,0-.3,1.49c0,.3,0,.63,0,1S111.15,141.36,111.17,141.65Z" style="fill:#455a64"></path><path d="M116.67,139.82a.14.14,0,0,1,.16,0,.23.23,0,0,1,.08.19v1.15a.56.56,0,0,1-.08.26.44.44,0,0,1-.16.19l-.82.48a.17.17,0,0,1-.17,0,.21.21,0,0,1-.07-.18v-1.16a.54.54,0,0,1,.07-.26.46.46,0,0,1,.17-.19Z" style="fill:#455a64"></path><path d="M118.28,132.76a.63.63,0,0,1,.07-.26.49.49,0,0,1,.17-.2l3.31-1.91a.13.13,0,0,1,.17,0s.07.09.07.18v.83a.54.54,0,0,1-.07.27.46.46,0,0,1-.17.19l-2.47,1.43-.1,1.56a2.5,2.5,0,0,1,.47-.42l.39-.25a2.6,2.6,0,0,1,.91-.35,1.1,1.1,0,0,1,.73.1,1.12,1.12,0,0,1,.49.57,2.63,2.63,0,0,1,.18,1.06,5.08,5.08,0,0,1-.19,1.39,4.73,4.73,0,0,1-.49,1.17,4.21,4.21,0,0,1-.74.93,4.68,4.68,0,0,1-.89.68,3.16,3.16,0,0,1-1.05.41,1.05,1.05,0,0,1-.72-.09,1,1,0,0,1-.44-.49,2.25,2.25,0,0,1-.16-.78.54.54,0,0,1,.07-.27.53.53,0,0,1,.17-.19l.71-.41a.16.16,0,0,1,.16,0s.08.07.1.15a.58.58,0,0,0,.17.34.42.42,0,0,0,.26.12.9.9,0,0,0,.34-.06,3.44,3.44,0,0,0,.39-.19,2.23,2.23,0,0,0,.81-.83,2.41,2.41,0,0,0,.3-1.18.74.74,0,0,0-.3-.7.8.8,0,0,0-.81.1,1.9,1.9,0,0,0-.42.3,1.48,1.48,0,0,0-.25.26l-.18.23a.85.85,0,0,1-.2.17l-.82.47c-.06,0-.12,0-.16,0a.21.21,0,0,1-.07-.18Z" style="fill:#455a64"></path><path d="M124.18,137a.31.31,0,0,1,0-.1l0-.08,1.17-2.89a2.36,2.36,0,0,1-.92.32,1.16,1.16,0,0,1-.73-.15,1.2,1.2,0,0,1-.49-.6,2.69,2.69,0,0,1-.18-1.06,4.58,4.58,0,0,1,.18-1.27,5.37,5.37,0,0,1,.5-1.18,4.93,4.93,0,0,1,.75-1,4,4,0,0,1,.92-.74,2.38,2.38,0,0,1,.93-.33,1.16,1.16,0,0,1,.75.13,1.29,1.29,0,0,1,.5.61,2.71,2.71,0,0,1,.18,1.07,3.6,3.6,0,0,1-.06.66c0,.22-.09.43-.15.64s-.13.41-.2.61-.15.39-.23.58l-1.66,4.11a1.13,1.13,0,0,1-.09.2.47.47,0,0,1-.18.19l-.79.46a.13.13,0,0,1-.17,0A.21.21,0,0,1,124.18,137Zm.09-5.25c0,.44.11.71.32.82a.91.91,0,0,0,.83-.13,2.36,2.36,0,0,0,.83-.83,2.27,2.27,0,0,0,.33-1.19c0-.43-.11-.71-.33-.82a.88.88,0,0,0-.83.12,2.31,2.31,0,0,0-.83.84A2.33,2.33,0,0,0,124.27,131.7Z" style="fill:#455a64"></path><path d="M104,181.33s.09,0,.12,0a.22.22,0,0,1,.07.12l1.21,3.48s0,0,0,0a.42.42,0,0,1,0,.15.27.27,0,0,1-.1.11l-.35.21c-.07,0-.11,0-.14,0a.16.16,0,0,1-.06-.08l-.21-.61-1.56.91-.22.85a1.21,1.21,0,0,1-.05.14.47.47,0,0,1-.14.14l-.36.2s-.07,0-.09,0a.12.12,0,0,1,0-.11v-.05l1.22-4.87a.73.73,0,0,1,.07-.21.25.25,0,0,1,.12-.13Zm.27,2.74-.54-1.57-.55,2.2Z" style="fill:#455a64"></path><path d="M106.73,180.85a1,1,0,0,1,.27-.12.53.53,0,0,1,.21,0,.25.25,0,0,1,.16,0l.1.06v-1.4a.42.42,0,0,1,0-.15.27.27,0,0,1,.1-.11l.37-.22a.09.09,0,0,1,.1,0,.12.12,0,0,1,0,.11v4.33a.28.28,0,0,1,0,.15.36.36,0,0,1-.1.11l-.37.21a.09.09,0,0,1-.1,0,.13.13,0,0,1,0-.1v-.15a1.82,1.82,0,0,1-.1.19,1.34,1.34,0,0,1-.16.22,2.13,2.13,0,0,1-.21.22,1.89,1.89,0,0,1-.27.2.87.87,0,0,1-.45.13.51.51,0,0,1-.34-.15.93.93,0,0,1-.23-.36,2.17,2.17,0,0,1-.09-.54V183a3.78,3.78,0,0,1,.09-.64,3.29,3.29,0,0,1,.23-.62,2.15,2.15,0,0,1,.34-.54A1.38,1.38,0,0,1,106.73,180.85Zm-.46,1.87a1.15,1.15,0,0,0,0,.37c0,.27.08.44.19.5a.42.42,0,0,0,.41-.05,1.07,1.07,0,0,0,.41-.43,1.41,1.41,0,0,0,.19-.66,1.69,1.69,0,0,0,0-.25,1.47,1.47,0,0,0,0-.25.5.5,0,0,0-.19-.43.37.37,0,0,0-.41,0,1.18,1.18,0,0,0-.41.42A1.71,1.71,0,0,0,106.27,182.72Z" style="fill:#455a64"></path><path d="M109.79,179.08a1.23,1.23,0,0,1,.28-.12.53.53,0,0,1,.21,0,.38.38,0,0,1,.16,0l.1.07v-1.4a.28.28,0,0,1,0-.15.27.27,0,0,1,.1-.11l.37-.22a.09.09,0,0,1,.1,0,.15.15,0,0,1,0,.1v4.34a.42.42,0,0,1,0,.15.24.24,0,0,1-.1.1l-.37.22a.09.09,0,0,1-.1,0,.11.11,0,0,1,0-.1v-.15a1.82,1.82,0,0,1-.1.19,2.39,2.39,0,0,1-.16.22,2.13,2.13,0,0,1-.21.22,1.55,1.55,0,0,1-.28.2.81.81,0,0,1-.44.13.56.56,0,0,1-.35-.15.89.89,0,0,1-.22-.37,2,2,0,0,1-.09-.53c0-.06,0-.14,0-.23s0-.16,0-.23a3.65,3.65,0,0,1,.09-.64A3.26,3.26,0,0,1,109,180a2.5,2.5,0,0,1,.35-.54A1.46,1.46,0,0,1,109.79,179.08Zm-.46,1.86a2.28,2.28,0,0,0,0,.37c0,.28.09.45.2.51a.42.42,0,0,0,.41,0,1.14,1.14,0,0,0,.41-.43,1.41,1.41,0,0,0,.19-.66,1.85,1.85,0,0,0,0-.25,1.7,1.7,0,0,0,0-.25.5.5,0,0,0-.19-.43.37.37,0,0,0-.41,0,1.1,1.1,0,0,0-.41.42A1.7,1.7,0,0,0,109.33,180.94Z" style="fill:#455a64"></path><path d="M113.77,179a.39.39,0,0,0,.08.28c.06.05.16,0,.31,0l.3-.18a.08.08,0,0,1,.09,0,.12.12,0,0,1,0,.11v.43a.28.28,0,0,1,0,.15.35.35,0,0,1-.09.11l-.37.21c-.31.18-.55.22-.72.11s-.25-.36-.25-.78V178l-.32.19a.08.08,0,0,1-.1,0,.16.16,0,0,1,0-.11v-.43a.42.42,0,0,1,0-.15.27.27,0,0,1,.1-.11l.32-.19v-1.07a.42.42,0,0,1,0-.15.27.27,0,0,1,.1-.11l.37-.22a.09.09,0,0,1,.1,0,.15.15,0,0,1,0,.1v1.08l.64-.37a.08.08,0,0,1,.09,0,.11.11,0,0,1,0,.1V177a.28.28,0,0,1,0,.15.3.3,0,0,1-.09.1l-.64.37Z" style="fill:#455a64"></path><path d="M116.21,175.37a1.25,1.25,0,0,1,.49-.17.63.63,0,0,1,.39.09.75.75,0,0,1,.25.32,1.06,1.06,0,0,1,.11.5.66.66,0,0,1,0,.15v.37a.71.71,0,0,1,0,.15,2.78,2.78,0,0,1-.11.63,3.26,3.26,0,0,1-.25.61,2.9,2.9,0,0,1-.39.53,2.05,2.05,0,0,1-.49.39,1.07,1.07,0,0,1-.49.17.65.65,0,0,1-.38-.08.72.72,0,0,1-.26-.31,1.48,1.48,0,0,1-.11-.51.53.53,0,0,1,0-.14v-.37a.66.66,0,0,1,0-.15,2.46,2.46,0,0,1,.11-.64,3,3,0,0,1,.26-.61,2.45,2.45,0,0,1,.38-.53A2.32,2.32,0,0,1,116.21,175.37Zm.6,1.14a.64.64,0,0,0-.07-.29.31.31,0,0,0-.14-.14.31.31,0,0,0-.19,0l-.2.09-.2.14a1,1,0,0,0-.19.22,1.4,1.4,0,0,0-.14.3,1.85,1.85,0,0,0-.07.38.66.66,0,0,1,0,.13v.34a.57.57,0,0,1,0,.12,1,1,0,0,0,.07.3.29.29,0,0,0,.14.13.31.31,0,0,0,.19,0l.2-.09a1,1,0,0,0,.2-.15,1.29,1.29,0,0,0,.19-.21,2.09,2.09,0,0,0,.14-.3,1.43,1.43,0,0,0,.07-.38s0-.08,0-.13v-.34S116.81,176.55,116.81,176.51Z" style="fill:#455a64"></path><path d="M119.33,177.07a.1.1,0,0,1-.09,0,.14.14,0,0,1,0-.11V172.7a.27.27,0,0,1,0-.14.25.25,0,0,1,.09-.11l1.46-.85a1,1,0,0,1,.53-.17.5.5,0,0,1,.35.12.67.67,0,0,1,.18.32,1.32,1.32,0,0,1,.06.39,1.58,1.58,0,0,1,0,.38,2.42,2.42,0,0,1-.1.32,1.45,1.45,0,0,1-.11.25l-.09.15a.59.59,0,0,1,.28.23,1,1,0,0,1,.13.57,2.11,2.11,0,0,1-.07.54,2.88,2.88,0,0,1-.2.56,2.39,2.39,0,0,1-.34.51,1.71,1.71,0,0,1-.46.39Zm1.91-4.39c0-.17,0-.27-.12-.31s-.2,0-.38.09l-.87.51v1l.87-.5a1,1,0,0,0,.38-.35A.84.84,0,0,0,121.24,172.68Zm-1.37,3.26.91-.53a.94.94,0,0,0,.4-.39.91.91,0,0,0,.13-.48.37.37,0,0,0-.13-.33c-.09-.05-.22,0-.4.07l-.91.53Z" style="fill:#455a64"></path><path d="M122.55,172.62a2.45,2.45,0,0,1,.1-.35,1.71,1.71,0,0,1,.2-.41,2.4,2.4,0,0,1,.32-.41,2.12,2.12,0,0,1,.44-.35,1.09,1.09,0,0,1,.46-.17.52.52,0,0,1,.35.06.48.48,0,0,1,.22.3,1.42,1.42,0,0,1,.08.55v1.94a.28.28,0,0,1,0,.15.2.2,0,0,1-.09.11l-.38.22a.07.07,0,0,1-.09,0,.12.12,0,0,1,0-.11v-.21a2.45,2.45,0,0,1-.3.5,1.89,1.89,0,0,1-.5.42,1,1,0,0,1-.38.14.37.37,0,0,1-.28-.05.44.44,0,0,1-.18-.22,1,1,0,0,1-.06-.38,1.61,1.61,0,0,1,.24-.85,2.78,2.78,0,0,1,.65-.73l.81-.65c0-.18,0-.28-.13-.31a.54.54,0,0,0-.34.08.77.77,0,0,0-.19.16,1.37,1.37,0,0,0-.13.2.31.31,0,0,1-.09.12.27.27,0,0,1-.08.07l-.46.27a.08.08,0,0,1-.08,0S122.55,172.67,122.55,172.62Zm.83,1.39a1.38,1.38,0,0,0,.3-.24,1.48,1.48,0,0,0,.22-.29,1.08,1.08,0,0,0,.13-.32,1,1,0,0,0,0-.29v-.07l-.67.55a1.4,1.4,0,0,0-.3.3.55.55,0,0,0-.09.29c0,.1,0,.15.11.15A.48.48,0,0,0,123.38,174Z" style="fill:#455a64"></path><path d="M126.51,173.59a1,1,0,0,0,.21-.16,2.43,2.43,0,0,0,.2-.25,1.87,1.87,0,0,0,.15-.32,1.5,1.5,0,0,0,.05-.37v-.24a1.8,1.8,0,0,1-.1.18,1.12,1.12,0,0,1-.16.22,2.19,2.19,0,0,1-.21.23,1.52,1.52,0,0,1-.28.19.74.74,0,0,1-.44.13.5.5,0,0,1-.35-.14.89.89,0,0,1-.22-.37,2,2,0,0,1-.09-.53c0-.07,0-.14,0-.23s0-.17,0-.23a3.65,3.65,0,0,1,.09-.64,3.35,3.35,0,0,1,.22-.63,3.11,3.11,0,0,1,.35-.54,1.56,1.56,0,0,1,.44-.38,1.23,1.23,0,0,1,.28-.12l.21,0a.62.62,0,0,1,.16,0l.1.07v-.15a.42.42,0,0,1,0-.15.27.27,0,0,1,.1-.11l.37-.21s.07,0,.1,0a.16.16,0,0,1,0,.11v3.1a2.73,2.73,0,0,1-.34,1.39,2.38,2.38,0,0,1-.92.94,1.6,1.6,0,0,1-.47.19.74.74,0,0,1-.37,0,.49.49,0,0,1-.26-.19.67.67,0,0,1-.1-.32.28.28,0,0,1,0-.15.25.25,0,0,1,.09-.11l.34-.19a.11.11,0,0,1,.12,0l.08.07a.27.27,0,0,0,.18.08A.72.72,0,0,0,126.51,173.59Zm-.6-2.22a2.28,2.28,0,0,0,0,.37c0,.28.09.44.2.5a.39.39,0,0,0,.41,0,1.21,1.21,0,0,0,.41-.43,1.41,1.41,0,0,0,.19-.66,2,2,0,0,0,0-.26,1.63,1.63,0,0,0,0-.24.49.49,0,0,0-.19-.43.39.39,0,0,0-.41,0,1.21,1.21,0,0,0-.41.43A1.66,1.66,0,0,0,125.91,171.37Z" style="fill:#455a64"></path><path d="M99.24,169.6a2.5,2.5,0,0,1,.07-.54,2.25,2.25,0,0,1,.2-.51,2.32,2.32,0,0,1,.31-.46,2,2,0,0,1,.45-.36,1.11,1.11,0,0,1,.45-.16.44.44,0,0,1,.32.09.67.67,0,0,1,.19.29,1.52,1.52,0,0,1,.08.46c0,.05,0,.12,0,.19v.45c0,.07,0,.14,0,.2a3.24,3.24,0,0,1-.07.52,2.3,2.3,0,0,1-.18.5l.26.35,0,0a.29.29,0,0,1,0,.09l-.06.05-.33.2a.12.12,0,0,1-.1,0l0,0-.12-.15-.18.17-.22.14a1.07,1.07,0,0,1-.45.16.41.41,0,0,1-.31-.09.58.58,0,0,1-.2-.29,1.53,1.53,0,0,1-.07-.46,1.09,1.09,0,0,1,0-.19v-.45A1.27,1.27,0,0,1,99.24,169.6Zm1.59-.9a.52.52,0,0,0-.16-.43.38.38,0,0,0-.4,0,1,1,0,0,0-.39.41,1.4,1.4,0,0,0-.17.62v.8a.49.49,0,0,0,.17.42c.1.07.23.05.39,0a1.05,1.05,0,0,0,.4-.41,1.39,1.39,0,0,0,.16-.62c0-.12,0-.26,0-.4S100.84,168.82,100.83,168.7Z" style="fill:#455a64"></path><path d="M102.37,169a.27.27,0,0,0,0,.2s.11,0,.22,0l.22-.13h.06a.1.1,0,0,1,0,.08v.31a.19.19,0,0,1,0,.1.28.28,0,0,1-.06.08l-.27.15c-.22.13-.39.15-.51.08s-.17-.26-.17-.55v-1l-.24.13s0,0-.06,0a.08.08,0,0,1,0-.07V168a.23.23,0,0,1,0-.11.22.22,0,0,1,.06-.07l.24-.14v-.76a.23.23,0,0,1,0-.11.17.17,0,0,1,.06-.08l.27-.15s0,0,.07,0a.08.08,0,0,1,0,.07v.77l.45-.27a.08.08,0,0,1,.07,0s0,0,0,.08v.31a.18.18,0,0,1,0,.1.19.19,0,0,1-.07.08l-.45.26Z" style="fill:#455a64"></path><path d="M103.85,168.87l-.69-1.75a0,0,0,0,1,0,0,.23.23,0,0,1,0-.11.16.16,0,0,1,.07-.07l.26-.15a.08.08,0,0,1,.08,0,.1.1,0,0,1,0,.05l.47,1.18.47-1.72a.26.26,0,0,1,0-.1s0-.07.07-.08l.27-.15a0,0,0,0,1,.06,0s0,0,0,.07v0l-1,3.64,0,.1s-.05.07-.08.08l-.26.15a.06.06,0,0,1-.07,0,.1.1,0,0,1,0-.08v0Z" style="fill:#455a64"></path><path d="M111.87,163.24a0,0,0,0,1-.06,0,.1.1,0,0,1,0-.08v-.31a.19.19,0,0,1,0-.1.13.13,0,0,1,.06-.08l1.08-.62a0,0,0,0,1,.07,0,.12.12,0,0,1,0,.07v.31a.43.43,0,0,1,0,.11.23.23,0,0,1-.07.07Z" style="fill:#455a64"></path><path d="M115,160.36a.19.19,0,0,1,0-.08.49.49,0,0,1,0-.11l.76-1.24.06-.09a.23.23,0,0,1,.07-.07l.27-.15a.06.06,0,0,1,.07,0,.1.1,0,0,1,0,.08v3a.23.23,0,0,1,0,.11.19.19,0,0,1-.07.08l-.28.16s0,0-.07,0a.08.08,0,0,1,0-.07v-2.32l-.5.81a.13.13,0,0,1-.07.06,0,0,0,0,1-.06,0Z" style="fill:#455a64"></path><path d="M119.4,158.89v.86a.19.19,0,0,1,0,.1.13.13,0,0,1-.06.08l-.27.16H119a.1.1,0,0,1,0-.08v-.85l-.63.36a0,0,0,0,1-.07,0,.12.12,0,0,1,0-.07v-.31a.43.43,0,0,1,0-.11l.07-.07.63-.37v-.85a.19.19,0,0,1,0-.1s0-.07.07-.08l.27-.16a.06.06,0,0,1,.06,0,.1.1,0,0,1,0,.08v.85L120,158a.06.06,0,0,1,.07,0s0,0,0,.08v.31a.18.18,0,0,1,0,.1.19.19,0,0,1-.07.08Z" style="fill:#455a64"></path><path d="M108.82,154.9l.67-1.94a.8.8,0,0,1,.05-.11.26.26,0,0,1,.1-.11l.24-.14H110a.1.1,0,0,1,0,.08v3a.23.23,0,0,1,0,.11.19.19,0,0,1-.07.08l-.29.16a0,0,0,0,1-.06,0,.08.08,0,0,1,0-.07v-1.84l-.46,1.32a.54.54,0,0,1-.05.11.24.24,0,0,1-.08.09l-.18.1s-.06,0-.08,0l-.05-.05-.46-.79v1.83a.23.23,0,0,1,0,.11.19.19,0,0,1-.07.08l-.28.16s-.05,0-.07,0a.08.08,0,0,1,0-.07v-3a.19.19,0,0,1,0-.1.19.19,0,0,1,.07-.08l.24-.14s.08,0,.1,0l.05,0Z" style="fill:#455a64"></path><path d="M100.17,158.16a1.07,1.07,0,0,1,.42-.15.48.48,0,0,1,.3,0,.33.33,0,0,1,.18.17.72.72,0,0,1,.07.25.23.23,0,0,1,0,.11.16.16,0,0,1-.07.07l-.24.14s-.07,0-.09,0a.17.17,0,0,1-.06-.06.27.27,0,0,0-.16-.11.56.56,0,0,0-.32.1,1.09,1.09,0,0,0-.17.13.75.75,0,0,0-.15.16.56.56,0,0,0-.09.17.39.39,0,0,0,0,.18.32.32,0,0,0,0,.16.15.15,0,0,0,.12,0l.21,0,.32-.09a1.35,1.35,0,0,1,.37-.06.4.4,0,0,1,.25.05.37.37,0,0,1,.14.18.93.93,0,0,1,0,.32,1.68,1.68,0,0,1-.07.43,2.39,2.39,0,0,1-.2.43,3.66,3.66,0,0,1-.32.39,2.29,2.29,0,0,1-.43.32,1.3,1.3,0,0,1-.38.15.58.58,0,0,1-.32,0,.36.36,0,0,1-.22-.16.58.58,0,0,1-.1-.32.26.26,0,0,1,0-.11l.07-.07.25-.14a.13.13,0,0,1,.09,0,.1.1,0,0,1,0,.06l.06.09a.23.23,0,0,0,.1.05.4.4,0,0,0,.15,0l.22-.1.2-.14a1,1,0,0,0,.18-.17,1,1,0,0,0,.12-.19.52.52,0,0,0,0-.21c0-.07,0-.11,0-.14a.22.22,0,0,0-.15,0,1,1,0,0,0-.25,0l-.34.09a1.25,1.25,0,0,1-.31,0,.35.35,0,0,1-.21-.06.38.38,0,0,1-.13-.19,1.06,1.06,0,0,1-.05-.34,1.31,1.31,0,0,1,.08-.43,1.59,1.59,0,0,1,.19-.42,2.06,2.06,0,0,1,.29-.37A2,2,0,0,1,100.17,158.16Z" style="fill:#455a64"></path><path d="M117.64,150.83s0,0,.06,0a.08.08,0,0,1,0,.07v.34a.22.22,0,0,1,0,.1.17.17,0,0,1-.06.08l-1.55.89H116a.08.08,0,0,1,0-.07v-3a.26.26,0,0,1,0-.11.22.22,0,0,1,.06-.07l.29-.17h.07a.15.15,0,0,1,0,.08v2.57Z" style="fill:#455a64"></path><path d="M125.93,146.63s-.08,0-.1,0l0,0-.56-.71-.56,1.36,0,.1a.19.19,0,0,1-.1.1l-.3.17a0,0,0,0,1-.06,0s0,0,0-.07a.18.18,0,0,1,0-.06l.81-2-.78-1s0,0,0,0a.23.23,0,0,1,0-.11.19.19,0,0,1,.07-.08l.3-.17s.08,0,.1,0l0,0,.54.69.53-1.3a.49.49,0,0,1,0-.1.32.32,0,0,1,.1-.1l.3-.17s.05,0,.07,0,0,0,0,.07a.18.18,0,0,1,0,.06l-.78,1.9.81,1s0,0,0,0a.23.23,0,0,1,0,.11.19.19,0,0,1-.07.08Z" style="fill:#455a64"></path><path d="M128.32,144.67a0,0,0,0,1,.06,0,.1.1,0,0,1,0,.08v.33a.26.26,0,0,1,0,.11.22.22,0,0,1-.06.07l-1.55.89s0,0-.07,0,0,0,0-.07v-3a.22.22,0,0,1,0-.11.19.19,0,0,1,.07-.08l.29-.16s0,0,.06,0a.08.08,0,0,1,0,.07v2.58Z" style="fill:#455a64"></path><path d="M106.17,160a.73.73,0,0,1-.33-.08.77.77,0,0,1-.34-.7V154a1.78,1.78,0,0,1,.82-1.43L110.8,150a.79.79,0,0,1,.78-.05.77.77,0,0,1,.34.7v5.17a1.79,1.79,0,0,1-.83,1.43l-4.48,2.59A.89.89,0,0,1,106.17,160Zm5.08-9.51a.32.32,0,0,0-.15,0l-4.48,2.59a1.19,1.19,0,0,0-.54.92v5.17c0,.12,0,.18,0,.19a.22.22,0,0,0,.18,0h0l4.49-2.59a1.21,1.21,0,0,0,.53-.92v-5.17c0-.12,0-.18-.06-.19Z" style="fill:#77D0D2"></path><path id="freepik--heart--inject-164" d="M142,161.07a1.39,1.39,0,0,0-.35-1h0a.84.84,0,0,0-1,0,4.11,4.11,0,0,0-1.39,2.76c-.09-.86-.68-1.56-1.39-1.14a2.88,2.88,0,0,0-1,1.22h0a3.43,3.43,0,0,0-.35,1.44,2.52,2.52,0,0,0,2.79,2.64S142,163.94,142,161.07Z" style="fill:#77D0D2"></path><path id="freepik--heart--inject-164" d="M142,161.07a1.39,1.39,0,0,0-.35-1h0a.84.84,0,0,0-1,0,4.11,4.11,0,0,0-1.39,2.76c-.09-.86-.68-1.56-1.39-1.14a2.88,2.88,0,0,0-1,1.22h0a3.43,3.43,0,0,0-.35,1.44,2.52,2.52,0,0,0,2.79,2.64S142,163.94,142,161.07Z" style="opacity:0.25"></path><path d="M57.52,213.89s-.49,1.86,3.29.4a40.63,40.63,0,0,0,9.37-5.77c1.67-1.32,1.88-1.12,1.78-.36s1.4.11,3.23-.88a58.76,58.76,0,0,0,8.61-6.19c2.43-2.2,2.92-3,3-3.42s-.32-.76,1.3-2.14,1.65-.77,1.61-1.39-1.06-6.06-16,2.56S57.9,211.45,57.52,213.89Z" style="fill:#77D0D2"></path><path d="M57.52,213.89s-.49,1.86,3.29.4a40.63,40.63,0,0,0,9.37-5.77c1.67-1.32,1.88-1.12,1.78-.36s1.4.11,3.23-.88a58.76,58.76,0,0,0,8.61-6.19c2.43-2.2,2.92-3,3-3.42s-.32-.76,1.3-2.14,1.65-.77,1.61-1.39-1.06-6.06-16,2.56S57.9,211.45,57.52,213.89Z" style="opacity:0.30000000000000004"></path><path d="M68.27,168.54c-.53,1.62-3.54,12.38-4.91,17.14-1.63,5.66-2.8,9.09-4,14.08-.92,3.81-2.37,10.13-1.83,14.13,0,0,4.91-1.69,5.31-2.56s-3.59.56-3.1-.73,3.34-2.07,5.76-3a36.38,36.38,0,0,0,9.16-6.29c2.42-2.33,4.36-3.52,4.31-2.7s-1.46,2.82-1,2.81,2.64-1.41,5.39-3.71,6.14-4.77,6.35-3.53a38.56,38.56,0,0,0-1.18-7.5c-1-3.32-4.31-14-5.23-15.87s-3.38-8.1-4.11-8.54Z" style="fill:#77D0D2"></path><path d="M76.78,184.53c-.78-3.79-1.48-13.85-1.48-13.85s.31,4.59.66,9.85a48.77,48.77,0,0,0,1.61,10.41c.74,3,1.39,5.12,1.39,7.63,0,.82-1.46,2.82-1,2.81a3,3,0,0,0,1-.45,13,13,0,0,0,.73-3.49C79.7,195.58,77.57,188.32,76.78,184.53Z" style="opacity:0.15"></path><path d="M58.86,211.56v1.84c1.49-.57,3.71-1.5,4-2.07.4-.88-3.59.56-3.1-.73a65.25,65.25,0,0,1,2.58-10.1A102.49,102.49,0,0,0,65.16,186a106,106,0,0,1-3.33,14.19C59.74,206.47,58.86,210.52,58.86,211.56Z" style="opacity:0.15"></path><path d="M79,198.57c0,.72-1.13,2.34-1.07,2.72h0c-.1-.43-.22-1.63-.3-2.46C78.45,198.26,79,198.14,79,198.57Z" style="opacity:0.30000000000000004"></path><path d="M63.31,208.4c-.17.94-.43,2.4-.46,2.8-.07-.59-3.58.62-3.12-.59C60.07,209.7,61.59,209,63.31,208.4Z" style="opacity:0.30000000000000004"></path><path d="M68.79,174.44a61.14,61.14,0,0,1-1.52,14.65,84.26,84.26,0,0,0-2,14.93s1-7.62,2.06-12.36A50.93,50.93,0,0,0,68.79,174.44Z" style="opacity:0.15"></path><path d="M77.22,173.67a33.75,33.75,0,0,0,2,9.85c1.1,2.89,3.79,6.16,4,10.16.3-4.38-2-7.25-3-9.4A39.93,39.93,0,0,1,77.22,173.67Z" style="opacity:0.15"></path><path d="M68.27,166.08v2.46a37.38,37.38,0,0,0,10.94-6.31v-2.46Z" style="fill:#37474f"></path><path d="M79.51,139.5a14.81,14.81,0,0,1-5.77,6c-4.14,2.39-6,.83-6,.83s-.57,10.74,5.88,7S79.51,139.5,79.51,139.5Z" style="fill:#77D0D2"></path><path d="M79.51,139.5a14.81,14.81,0,0,1-5.77,6c-4.14,2.39-6,.83-6,.83s-.57,10.74,5.88,7S79.51,139.5,79.51,139.5Z" style="opacity:0.30000000000000004"></path><path d="M79.51,139.5a14.81,14.81,0,0,1-5.77,6c-4.14,2.39-6,.83-6,.83v1.34a.57.57,0,0,1,0,.13c0,.05,1.9,1.53,6-.83a14.88,14.88,0,0,0,5.77-6V139.5Z" style="opacity:0.30000000000000004"></path><path d="M65.74,148.23s.52,9.92.85,11.9,1.68,4.74,1.68,6a32.46,32.46,0,0,0,11-6.34c.2-2,1.3-5.77,1.43-8.27s.2-9.21.65-11.55l-1.82-.42s-.52,9.05-6,12.2-5.79-5.41-5.79-5.41Z" style="fill:#77D0D2"></path><path d="M77.18,161.37c.69-.51,1.38-1,2.07-1.63.2-2,1.3-5.77,1.43-8.27,0-.32,0-.72,0-1.16A23.45,23.45,0,0,0,77.18,161.37Z" style="opacity:0.1"></path><path d="M66.37,158c.07.93.15,1.68.22,2.09.32,2,1.68,4.74,1.68,6,.73-.23,1.45-.51,2.17-.81C70.44,161.39,68.45,158.43,66.37,158Z" style="opacity:0.1"></path><path d="M83.8,163.13c0,.69-2.82,2.56-2.85,1.88l-.74-10.3h0a23.53,23.53,0,0,0,.47-3.23c.13-2.5.2-9.21.65-11.55,1,.24,1.56,1.58,1.77,4.33S83.8,163.13,83.8,163.13Z" style="fill:#77D0D2"></path><path d="M83.8,163.13c0,.69-2.82,2.56-2.85,1.88l-.74-10.3h0a23.53,23.53,0,0,0,.47-3.23c.13-2.5.2-9.21.65-11.55,1,.24,1.56,1.58,1.77,4.33S83.8,163.13,83.8,163.13Z" style="opacity:0.15"></path><path d="M83.8,163.13s0-.36,0-1h0c0,.53-2.86,2.44-2.89,1.91h0L81,165C81,165.69,83.83,163.82,83.8,163.13Z" style="opacity:0.15"></path><path d="M66.89,161.4l-.24,12.47c0,.63-3,2.36-3,1.73V158.2c0-3.71.38-8.19,2.08-10,0,0,.52,9.92.85,11.9A10,10,0,0,0,66.89,161.4Z" style="fill:#77D0D2"></path><path d="M66.89,161.4l-.24,12.47c0,.63-3,2.36-3,1.73V158.2c0-3.71.38-8.19,2.08-10,0,0,.52,9.92.85,11.9A10,10,0,0,0,66.89,161.4Z" style="opacity:0.15"></path><path d="M66.65,173.87l0-1h0c0,.51-3,2.25-3,1.74v1C63.66,176.23,66.65,174.5,66.65,173.87Z" style="opacity:0.15"></path></g></g><g id="freepik--speech-bubble--inject-164"><g id="freepik--speech-bubble--inject-164"><g id="freepik--speech-bubble--inject-164"><path d="M373.5,353.49l-3.26-6.12,2.62-7.57v-4.62l-8,4.62v4.63l3.44,6a.49.49,0,0,0,.24.21h0Z" style="fill:#77D0D2"></path><path d="M373.5,353.49l-3.26-6.12,2.62-7.57v-4.62l-8,4.62v4.63l3.44,6a.49.49,0,0,0,.24.21h0Z" style="opacity:0.2"></path><path d="M392.64,298.38a5.32,5.32,0,0,0-2.4-4.17l-2-1.13a5.34,5.34,0,0,0-4.8,0l-30,17.36a5.31,5.31,0,0,0-2.4,4.17v33a5.31,5.31,0,0,0,2.4,4.17l2,1.13a5.36,5.36,0,0,0,4.81,0l9.65-5.58,3.44,6a.52.52,0,0,0,.93-.09l3.63-10.5,12.36-7.15a5.31,5.31,0,0,0,2.4-4.17Z" style="fill:#77D0D2"></path><path d="M351.06,347.63a5.31,5.31,0,0,0,2.4,4.17l2,1.13a5.39,5.39,0,0,0,4.4.19c-1.14.43-2-.21-2-1.58v-33a4.91,4.91,0,0,1,.71-2.37l-6.77-3.9a4.94,4.94,0,0,0-.7,2.37Z" style="opacity:0.2"></path><path d="M392.57,297.7c-.28-1-1.21-1.35-2.32-.71l-30,17.36a4.7,4.7,0,0,0-1.7,1.8l-6.76-3.91a4.87,4.87,0,0,1,1.69-1.79l30-17.36a5.3,5.3,0,0,1,4.81,0l2,1.13A5.33,5.33,0,0,1,392.57,297.7Z" style="fill:#fff;opacity:0.5"></path></g><path d="M365.12,326.7a15.29,15.29,0,0,1,1.26-5.94h0v0a10.43,10.43,0,0,1,3.8-4.85c2.59-1.53,4.75,1.57,5.09,5.23.31-4,2.43-9.66,5-11.17a2.83,2.83,0,0,1,3.82.37v0h0a6.8,6.8,0,0,1,1.31,4.43c0,6.19-3.7,11.79-6.81,17.69l-3.35,5.7L372,336.32C368.89,334.11,365.15,332.89,365.12,326.7Z" style="fill:#fafafa"></path></g></g></svg>