<svg xmlns="http://www.w3.org/2000/svg" viewBox="0 0 500 500"><g id="freepik--speech-bubble--inject-244"><path d="M428.45,163.42l-4.56-10.15a25.89,25.89,0,1,1,9.25-.92h0Z" style="fill:#fff"></path><path d="M428.45,163.42c.34-.84,1.72-4.18,4.58-11.12l.12.18h0l-1,0,1-.28a25.77,25.77,0,0,0,11.42-6.92,23,23,0,0,0,2.54-3.16c.38-.58.78-1.17,1.16-1.78l1-1.94a25.59,25.59,0,0,0-13.6-34.67A25.18,25.18,0,0,0,423.94,102a25.67,25.67,0,0,0-11.46,3.76,26.25,26.25,0,0,0-8.18,8.17,25.08,25.08,0,0,0-3.72,10.28,25.93,25.93,0,0,0,4.81,18.61,27.88,27.88,0,0,0,6,5.85,25.71,25.71,0,0,0,12.49,4.51H424l0,.07c2.77,6.38,4.09,9.4,4.44,10.2-.37-.79-1.75-3.78-4.67-10.1l.1.07a25.7,25.7,0,0,1-12.67-4.47,27.73,27.73,0,0,1-6.15-5.9,26.28,26.28,0,0,1-4.95-18.91,25.61,25.61,0,0,1,3.77-10.49,26,26,0,0,1,20-12.18,25.65,25.65,0,0,1,11.91,1.83,26.47,26.47,0,0,1,9.5,6.59,25.91,25.91,0,0,1,5.5,9.48,26.17,26.17,0,0,1-1.22,19.26c-.34.66-.69,1.31-1,2s-.79,1.21-1.18,1.8a22.28,22.28,0,0,1-2.6,3.19,25.83,25.83,0,0,1-11.61,6.92l0-.25h.22l-.08.19C430.26,159.27,428.81,162.59,428.45,163.42Z" style="fill:#263238"></path><path d="M437,126.5a9.74,9.74,0,1,0-18.13,4.92h0l0,0c.37.63.84,1.08,1.31,1.74l5.65,7.49a1.76,1.76,0,0,0,2.81,0l5.56-7.37a20.64,20.64,0,0,0,1.41-1.87l0,0h0A9.64,9.64,0,0,0,437,126.5Zm-9.73,4.24a4.29,4.29,0,1,1,4.28-4.28A4.29,4.29,0,0,1,427.24,130.74Z" style="fill:#60D0D6"></path></g></svg>