<svg xmlns="http://www.w3.org/2000/svg" xmlns:xlink="http://www.w3.org/1999/xlink" viewBox="0 0 72.91 72.91"><defs><style>.cls-1{fill:url(#linear-gradient);}.cls-2{fill:#dfddde;}.cls-3{fill:#ccc;}.cls-4{fill:#546f7a;}</style><linearGradient id="linear-gradient" x1="11.33" y1="63.09" x2="61.87" y2="9.51" gradientUnits="userSpaceOnUse"><stop offset="0" stop-color="#fea542"/><stop offset="0.49" stop-color="#f05551"/><stop offset="1" stop-color="#bf0889"/></linearGradient></defs><title>Asset 2</title><g id="Layer_2" data-name="Layer 2"><g id="Objects"><path class="cls-1" d="M36.46,0A36.46,36.46,0,1,0,72.91,36.46,36.46,36.46,0,0,0,36.46,0Zm0,69.78A33.33,33.33,0,1,1,69.78,36.46,33.32,33.32,0,0,1,36.46,69.78Z"/><circle class="cls-2" cx="36.46" cy="36.46" r="29.73"/><circle class="cls-3" cx="36.46" cy="36.46" r="30.85"/><circle class="cls-2" cx="36.46" cy="36.46" r="29.73"/><path class="cls-4" d="M28.66,45.18a2.35,2.35,0,0,0-.25,1c-.25,1.36-1.55,2.22-2.74,2.92C21.76,51.33,17.86,53.57,14,56a29.71,29.71,0,0,0,45.63-1L49.78,49.9a22.21,22.21,0,0,0-2.37-1.12,6.23,6.23,0,0,1-1.85-.9c-.81-.69-.62-1.8-.83-2.75a1.77,1.77,0,0,0-.29-.74c-.39-.48-1.17-.46-1.6-.91a1.55,1.55,0,0,1-.35-1,1.51,1.51,0,0,1,.13-.7c.14-.24.45-.37.66-.55s.47-.35.71-.51a3.08,3.08,0,0,0,1.24-1.34,10.88,10.88,0,0,0,.69-2.82c.11-1-.11-2.16.32-3.09s1.25-1.3,1.44-2.35a5.43,5.43,0,0,0-.36-2.87,5.48,5.48,0,0,0-.67-1c-.24-.35-.08-.77,0-1.18a11,11,0,0,0-.37-3.64,7.54,7.54,0,0,0-.34-1.26,4.21,4.21,0,0,0-1.73-2.06c-.39-.25-.83-.35-1.23-.58a11,11,0,0,0-1.33-.66,22,22,0,0,0-3.17-1.1,9.57,9.57,0,0,0-6.42.33,3.42,3.42,0,0,0-2.14,2.52,3.61,3.61,0,0,0-4,1.58,6.15,6.15,0,0,0-.7,3.47c.06,1.1.45,2.09.61,3.18a1.29,1.29,0,0,1-.09.89c-.14.21-.4.32-.53.54a1.27,1.27,0,0,0-.13.55,6.57,6.57,0,0,0,.6,4,1.75,1.75,0,0,0,.38.43,3.11,3.11,0,0,0,.38.25,3.2,3.2,0,0,1,1.27,1.74c.21.65.18,1.33.34,2s.31,1.1.5,1.62a2.69,2.69,0,0,0,.77,1c.33.32.53.69,1,.82a2.36,2.36,0,0,0,.12.28,2.22,2.22,0,0,1,.12.77,2.66,2.66,0,0,1-.27,1.63C29.89,44.77,29,44.62,28.66,45.18Z"/></g></g></svg>