<svg xmlns="http://www.w3.org/2000/svg" viewBox="0 0 166.13 166.13"><defs><style>.cls-1{fill:#ccc;}.cls-2{fill:#dfddde;}.cls-3{fill:#546f7a;}.cls-4{fill:#3597f0;}.cls-5{fill:#fff;}</style></defs><title>Asset 1</title><g id="Layer_2" data-name="Layer 2"><g id="Objects"><path class="cls-1" d="M99.86,133.23a32.88,32.88,0,0,1,60-18.59,83.26,83.26,0,1,0-45.95,45.5A32.8,32.8,0,0,1,99.86,133.23Z"/><path class="cls-2" d="M99.86,133.23A32.77,32.77,0,0,1,157.66,112a80.36,80.36,0,1,0-46.43,46A32.68,32.68,0,0,1,99.86,133.23Z"/><path class="cls-3" d="M99.86,133.23A32.53,32.53,0,0,1,107,113c-1.37-1.86-1.14-4.38-1.65-6.6a4.71,4.71,0,0,0-.77-2c-1-1.31-3.16-1.24-4.31-2.45a4.17,4.17,0,0,1-.93-2.83,3.72,3.72,0,0,1,.34-1.87c.37-.67,1.2-1,1.78-1.48s1.25-1,1.91-1.4a8.18,8.18,0,0,0,3.34-3.6,29.63,29.63,0,0,0,1.87-7.58c.29-2.66-.3-5.82.84-8.33s3.38-3.5,3.88-6.32a14.5,14.5,0,0,0-1-7.73,14.64,14.64,0,0,0-1.79-2.58c-.65-.95-.22-2.08-.09-3.17.41-3.29-.29-6.59-1-9.82a23.38,23.38,0,0,0-.92-3.4,11.51,11.51,0,0,0-4.65-5.54c-1.05-.65-2.26-.95-3.31-1.57A30.74,30.74,0,0,0,97,33a58,58,0,0,0-8.52-2.95c-5.7-1.44-11.86-1.69-17.29.87-2.81,1.33-5.47,3.69-5.77,6.79A9.71,9.71,0,0,0,54.69,42a16.56,16.56,0,0,0-1.86,9.33c.13,3,1.19,5.63,1.62,8.56a3.42,3.42,0,0,1-.23,2.39c-.38.57-1.09.88-1.44,1.47a3.16,3.16,0,0,0-.33,1.46c-.22,3.66-.36,7.59,1.61,10.67a4.54,4.54,0,0,0,1,1.17c.32.25.69.43,1,.65a8.63,8.63,0,0,1,3.41,4.71c.58,1.74.48,3.56.93,5.3.37,1.41.83,3,1.34,4.35a7.14,7.14,0,0,0,2.07,2.7c.89.86,1.43,1.85,2.72,2.21a7.76,7.76,0,0,0,.31.74,6.1,6.1,0,0,1,.33,2.09c0,1.29.16,3.32-.72,4.37-1.1,1.31-3.38.9-4.42,2.39a6.4,6.4,0,0,0-.67,2.58c-.68,3.65-4.18,6-7.38,7.85-10.52,6.14-21,12.17-31.3,18.67a79.79,79.79,0,0,0,88.53,22.3A32.69,32.69,0,0,1,99.86,133.23Z"/><circle class="cls-4" cx="132.76" cy="133.23" r="29.13" transform="translate(-19.86 243.15) rotate(-80.87)"/><path class="cls-5" d="M135.42,130.57V120a2.66,2.66,0,0,0-5.32,0v10.59H119.51a2.66,2.66,0,0,0,0,5.32h10.57v10.57a2.66,2.66,0,0,0,4.54,1.89,2.62,2.62,0,0,0,.78-1.88V135.89H146a2.66,2.66,0,0,0,0-5.32Z"/></g></g></svg>