<svg xmlns="http://www.w3.org/2000/svg" xmlns:xlink="http://www.w3.org/1999/xlink" viewBox="0 0 500 500"><defs><clipPath id="freepik--clip-path--inject-335"><path d="M292.86,226.9a1.34,1.34,0,0,0,0-.2,23.11,23.11,0,0,0-1.12-7.15A83.54,83.54,0,0,0,289.7,211a20.12,20.12,0,0,0-9.12-12.11,7.53,7.53,0,0,0-.9-.56.82.82,0,0,0-.2-.12l-.21-.11c-5.7-3.14-12.11-1.67-17,.56a15.86,15.86,0,0,0-6.15,4.92,24.55,24.55,0,0,0-4.44,7.86,23.43,23.43,0,0,0-3.4,25.21,33.74,33.74,0,0,0,.29,3.62c0,.16.24.13.24,0,0-.85,0-1.69,0-2.53q.45.82,1,1.62c0,.42,0,.83,0,1.24,0,.58.86,1.21,2.32,1.84a23.44,23.44,0,0,0,35.19-.54,23.61,23.61,0,0,0,4.1-2.44c.63-.47.83-3,.65-6.54a19.31,19.31,0,0,0,.56-2.53c.28,2.63.5,5.27.71,7.91,0,.19.3.17.3,0A113.11,113.11,0,0,0,292.86,226.9Zm-7.77-23.37c-.21-.31-.44-.61-.66-.9a24.43,24.43,0,0,1,5.27,10.53c.26,1,.5,2.06.72,3.09a23.39,23.39,0,0,0-1.28-2.23h0C288,209.63,286.65,205.76,285.09,203.53Z" style="fill:none"></path></clipPath><clipPath id="freepik--clip-path-2--inject-335"><path d="M302.87,149.8a23.44,23.44,0,1,1-35.37-20.17c1.09-3.5,3.91-6.83,10.2-8.41,12.31-3.07,15,5.81,15.3,6.77a0,0,0,0,1,0,0h0a0,0,0,0,1,0,0,34.19,34.19,0,0,1,1.09,3.48A23.32,23.32,0,0,1,302.87,149.8Z" style="fill:none"></path></clipPath></defs><g id="freepik--background-complete--inject-335"><circle cx="120.37" cy="139.93" r="35.6" transform="translate(-37.46 235.62) rotate(-80.52)" style="fill:#c7c7c7"></circle><circle cx="122.01" cy="140.72" r="33.97" style="fill:#a6a6a6"></circle><circle cx="122.01" cy="140.72" r="31.83" style="fill:#fff"></circle><rect x="121.7" y="111.21" width="0.61" height="4.82" style="fill:#dbdbdb"></rect><rect x="108.15" y="114.84" width="0.62" height="4.82" transform="translate(-44.09 69.93) rotate(-30)" style="fill:#dbdbdb"></rect><rect x="98.22" y="124.76" width="0.61" height="4.82" transform="translate(-60.87 148.91) rotate(-60)" style="fill:#dbdbdb"></rect><rect x="92.49" y="140.41" width="4.82" height="0.62" style="fill:#dbdbdb"></rect><rect x="96.12" y="153.97" width="4.82" height="0.61" transform="translate(-63.94 69.95) rotate(-30.01)" style="fill:#dbdbdb"></rect><rect x="106.04" y="163.89" width="4.82" height="0.62" transform="translate(-87.96 176.13) rotate(-60.03)" style="fill:#dbdbdb"></rect><rect x="121.7" y="165.41" width="0.61" height="4.82" style="fill:#dbdbdb"></rect><rect x="135.25" y="161.78" width="0.62" height="4.82" transform="translate(-63.94 89.77) rotate(-30)" style="fill:#dbdbdb"></rect><rect x="145.17" y="151.86" width="0.61" height="4.82" transform="translate(-60.87 203.11) rotate(-60)" style="fill:#dbdbdb"></rect><rect x="146.7" y="140.41" width="4.82" height="0.62" style="fill:#dbdbdb"></rect><rect x="143.07" y="126.86" width="4.82" height="0.61" transform="translate(-44.1 89.79) rotate(-30)" style="fill:#dbdbdb"></rect><rect x="133.15" y="116.94" width="4.82" height="0.62" transform="translate(-33.73 176.12) rotate(-60.03)" style="fill:#dbdbdb"></rect><rect x="104.71" y="144.12" width="30.8" height="0.61" transform="translate(-63.08 185.99) rotate(-63.03)" style="fill:#dbdbdb"></rect><rect x="122.41" y="129.61" width="0.82" height="30.33" transform="translate(-26.02 26.92) rotate(-11.32)" style="fill:#263238"></rect><g id="freepik--xsrjP0--inject-335"><path d="M212.75,117.86c-.78-.49-1.45-1.2-2.5-1.1-.4,0-.31-.29-.31-.51,0-3.92,0-7.85,0-11.77a.64.64,0,0,1,.33-.68c3-1.51,4.29-4.48,6.13-7a11.71,11.71,0,0,0,2.17-8.9c-.12-.89.29-1.28,1.09-1.46a2,2,0,0,1,2.23.7,15.76,15.76,0,0,1,1.72,5.14c.17,1.49-.36,2.94-.55,4.41-.14,1.08-.39,2.15-.59,3.24.26.19.57.09.85.09h9.94c1.4,0,2.08.4,2.28,1.32a2.67,2.67,0,0,1-1.45,2.88c-.24.12-.69,0-.72.4s.43.35.66.51c1.2.83,1,2.52-.41,3.5-.34.24-1,.13-1,.62s.6.39.87.66c1,1,.49,2.75-1,3.47a5.77,5.77,0,0,0-.58.22c-.17.11-.33.24,0,.46,1.44,1,1.41,2.46,0,3.5l-.43.31a2.84,2.84,0,0,1-1.75.38q-7.78,0-15.59,0A1.83,1.83,0,0,1,212.75,117.86Z" style="fill:#dbdbdb;fill-rule:evenodd"></path><path d="M198,110.94c0-2.49,0-5,0-7.48,0-.5,0-.75.67-.75,3.05,0,6.08,0,9.12,0,.6,0,.69.2.69.73q0,7.51,0,15c0,.63-.17.82-.81.8-2.95,0-5.9,0-8.84,0-.74,0-.84-.25-.83-.89C198,115.93,198,113.44,198,110.94Z" style="fill:#dbdbdb;fill-rule:evenodd"></path></g><g id="freepik--xsrjp0--inject-335"><path d="M427.55,223.87c.78.49,1.46,1.2,2.5,1.1.4,0,.31.29.32.51v11.77c0,.28,0,.52-.32.68-3,1.51-4.3,4.48-6.14,7a11.75,11.75,0,0,0-2.17,8.9c.13.89-.29,1.28-1.08,1.46a2,2,0,0,1-2.24-.7,15.74,15.74,0,0,1-1.71-5.14c-.18-1.49.36-2.94.54-4.41.14-1.08.39-2.14.6-3.24-.27-.19-.57-.09-.85-.09h-9.95c-1.4,0-2.08-.4-2.27-1.32a2.66,2.66,0,0,1,1.44-2.88c.25-.12.7,0,.73-.4s-.44-.35-.66-.51c-1.2-.83-1-2.52.41-3.5.33-.24,1-.13,1-.62s-.59-.39-.87-.66c-1-1-.48-2.75,1-3.47a4.37,4.37,0,0,0,.58-.22c.17-.11.33-.24,0-.46-1.43-1-1.4-2.46,0-3.5l.43-.31a2.84,2.84,0,0,1,1.75-.38q7.8,0,15.59,0A1.83,1.83,0,0,1,427.55,223.87Z" style="fill:#dbdbdb;fill-rule:evenodd"></path><path d="M442.33,230.79c0,2.49,0,5,0,7.48,0,.5,0,.75-.67.75q-4.56-.06-9.12,0c-.6,0-.69-.2-.69-.73,0-5,0-10,0-15.05,0-.63.17-.81.81-.8,2.95,0,5.9,0,8.85,0,.73,0,.83.25.83.89C442.31,225.8,442.33,228.29,442.33,230.79Z" style="fill:#dbdbdb;fill-rule:evenodd"></path></g><path d="M291.81,284.69V422h83V284.69Zm75.45,86.61H299.34V335.57h67.92Zm0-44.24H299.34V291.33h67.92Z" style="fill:#ebebeb"></path><rect x="374.79" y="284.69" width="33.18" height="137.26" style="fill:#dbdbdb"></rect><rect x="299.35" y="291.32" width="16.14" height="35.73" style="fill:#dbdbdb"></rect><path d="M367.76,413.84H299.27V378.78h68.49Zm-67.49-1h66.49V379.78H300.27Z" style="fill:#dbdbdb"></path><rect x="323.98" y="388.86" width="13.4" height="6.78" style="fill:#dbdbdb"></rect><path d="M341.85,395.63H327.44v-6.76h14.41Zm-13.41-1h12.41v-4.76H328.44Z" style="fill:#dbdbdb"></path><rect x="299.35" y="335.57" width="16.14" height="35.73" style="fill:#dbdbdb"></rect></g><g id="freepik--Stars--inject-335"><polygon points="182.9 224.94 185.47 230.14 191.2 230.97 187.05 235.02 188.03 240.73 182.9 238.03 177.78 240.73 178.75 235.02 174.6 230.97 180.34 230.14 182.9 224.94" style="fill:#77D0D2"></polygon><polygon points="201.94 208.28 203.79 212.18 207.92 212.8 204.93 215.83 205.64 220.11 201.94 218.09 198.23 220.11 198.94 215.83 195.95 212.8 200.09 212.18 201.94 208.28" style="fill:#77D0D2"></polygon><polygon points="187.14 183.96 188.31 186.33 190.92 186.71 189.03 188.55 189.48 191.16 187.14 189.93 184.8 191.16 185.25 188.55 183.36 186.71 185.97 186.33 187.14 183.96" style="fill:#77D0D2"></polygon><polygon points="201.94 170.04 202.82 171.84 204.81 172.12 203.37 173.52 203.71 175.5 201.94 174.56 200.16 175.5 200.5 173.52 199.06 172.12 201.05 171.84 201.94 170.04" style="fill:#77D0D2"></polygon></g></svg>