<svg xmlns="http://www.w3.org/2000/svg" xmlns:xlink="http://www.w3.org/1999/xlink" viewBox="0 0 500 500"><defs><clipPath id="freepik--clip-path--inject-335"><path d="M292.86,226.9a1.34,1.34,0,0,0,0-.2,23.11,23.11,0,0,0-1.12-7.15A83.54,83.54,0,0,0,289.7,211a20.12,20.12,0,0,0-9.12-12.11,7.53,7.53,0,0,0-.9-.56.82.82,0,0,0-.2-.12l-.21-.11c-5.7-3.14-12.11-1.67-17,.56a15.86,15.86,0,0,0-6.15,4.92,24.55,24.55,0,0,0-4.44,7.86,23.43,23.43,0,0,0-3.4,25.21,33.74,33.74,0,0,0,.29,3.62c0,.16.24.13.24,0,0-.85,0-1.69,0-2.53q.45.82,1,1.62c0,.42,0,.83,0,1.24,0,.58.86,1.21,2.32,1.84a23.44,23.44,0,0,0,35.19-.54,23.61,23.61,0,0,0,4.1-2.44c.63-.47.83-3,.65-6.54a19.31,19.31,0,0,0,.56-2.53c.28,2.63.5,5.27.71,7.91,0,.19.3.17.3,0A113.11,113.11,0,0,0,292.86,226.9Zm-7.77-23.37c-.21-.31-.44-.61-.66-.9a24.43,24.43,0,0,1,5.27,10.53c.26,1,.5,2.06.72,3.09a23.39,23.39,0,0,0-1.28-2.23h0C288,209.63,286.65,205.76,285.09,203.53Z" style="fill:none"></path></clipPath><clipPath id="freepik--clip-path-2--inject-335"><path d="M302.87,149.8a23.44,23.44,0,1,1-35.37-20.17c1.09-3.5,3.91-6.83,10.2-8.41,12.31-3.07,15,5.81,15.3,6.77a0,0,0,0,1,0,0h0a0,0,0,0,1,0,0,34.19,34.19,0,0,1,1.09,3.48A23.32,23.32,0,0,1,302.87,149.8Z" style="fill:none"></path></clipPath></defs><g id="freepik--Reviews--inject-335"><rect x="240.55" y="195.09" width="150.56" height="60.19" style="fill:#ebebeb"></rect><polygon points="240.58 255.29 240.58 267.25 251.42 255.29 240.58 255.29" style="fill:#ebebeb"></polygon><circle cx="269.43" cy="226.69" r="23.43" style="fill:#fff"></circle><polygon points="309.71 206.37 311.42 209.84 315.24 210.39 312.48 213.09 313.13 216.9 309.71 215.1 306.29 216.9 306.94 213.09 304.18 210.39 308 209.84 309.71 206.37" style="fill:#77D0D2"></polygon><polygon points="324.77 206.37 326.48 209.84 330.3 210.39 327.53 213.09 328.19 216.9 324.77 215.1 321.35 216.9 322 213.09 319.23 210.39 323.06 209.84 324.77 206.37" style="fill:#c7c7c7"></polygon><polygon points="339.82 206.37 341.53 209.84 345.36 210.39 342.59 213.09 343.24 216.9 339.82 215.1 336.4 216.9 337.06 213.09 334.29 210.39 338.11 209.84 339.82 206.37" style="fill:#c7c7c7"></polygon><polygon points="354.88 206.37 356.59 209.84 360.42 210.39 357.65 213.09 358.3 216.9 354.88 215.1 351.46 216.9 352.12 213.09 349.35 210.39 353.17 209.84 354.88 206.37" style="fill:#c7c7c7"></polygon><polygon points="369.94 206.37 371.65 209.84 375.47 210.39 372.71 213.09 373.36 216.9 369.94 215.1 366.52 216.9 367.17 213.09 364.41 210.39 368.23 209.84 369.94 206.37" style="fill:#c7c7c7"></polygon><rect x="304.18" y="225.19" width="71.44" height="1.5" style="fill:#263238"></rect><rect x="304.18" y="229.76" width="63.63" height="1.5" style="fill:#fff"></rect><rect x="304.18" y="234.33" width="52.6" height="1.5" style="fill:#fff"></rect><rect x="304.18" y="238.9" width="57.5" height="1.5" style="fill:#fff"></rect><g style="clip-path:url(#freepik--clip-path--inject-335)"><path d="M262.23,198.67c-10.85,4.88-13.19,20.17-12.48,41.93.11,3.31,28.09,9.06,41.63-1.14,2.18-1.65-.92-28.27-6.29-35.93C278.43,194,268.94,195.65,262.23,198.67Z" style="fill:#263238"></path><path d="M261.93,198.89c-5.67,2.89-9.32,8.63-11,14.65a92.21,92.21,0,0,0-2.25,13.61,53.52,53.52,0,0,0-.2,13.14.12.12,0,0,0,.24,0,113.07,113.07,0,0,1,2.55-24.52c1.41-6.75,4.88-12.79,10.84-16.44C262.38,199.17,262.18,198.77,261.93,198.89Z" style="fill:#263238"></path><path d="M289.71,211a20.12,20.12,0,0,0-13.62-14.11,0,0,0,0,0,0,.08c7.52,2.84,11.74,8.57,13.64,16.17,2.07,8.28,2.91,16.68,3.59,25.15a.15.15,0,0,0,.3,0A103.06,103.06,0,0,0,289.71,211Z" style="fill:#263238"></path><path d="M254.18,248.75l.09.07c4.91,3.35,14.61,9.23,19.79,7.36a11.66,11.66,0,0,0,6.6-6.85,53.61,53.61,0,0,0-6.41-4.45C266.6,239.79,259.7,242.84,254.18,248.75Z" style="fill:#a6a6a6"></path><path d="M261.57,245.86c.35,1.13,6.34,8.23,11.58,7.63,1.71-.19,1.05-9.56,1.05-9.56l.11-.7,1.52-9.84L264,226.84l-1.71-.86s-.24,2.72-.5,6.11c0,.16,0,.32,0,.48s0,.38-.05.56c0,.5-.09,1-.12,1.53s-.06.78-.07,1.19,0,.82-.07,1.23A64.1,64.1,0,0,0,261.57,245.86Z" style="fill:#f7a9a0"></path><path d="M261.74,232.09a20,20,0,0,0,12.57,11.14l1.52-9.84L264,226.84l-1.71-.86S262,228.7,261.74,232.09Z" style="fill:#263238"></path><path d="M288,217c2.74,17.26-7.29,20.85-11,21.44-3.37.53-14.28,1.35-18.79-15.53s2-23,9.64-24.67S285.25,199.76,288,217Z" style="fill:#f7a9a0"></path><path d="M285,216a11.7,11.7,0,0,1-1.15.35,1.88,1.88,0,0,1-1.25.14.62.62,0,0,1-.37-.66,1.55,1.55,0,0,1,1.16-1.05,2.24,2.24,0,0,1,1.63,0A.67.67,0,0,1,285,216Z" style="fill:#263238"></path><path d="M272.3,216.51a11.89,11.89,0,0,0,1.2.12,1.91,1.91,0,0,0,1.25-.1.64.64,0,0,0,.23-.73,1.52,1.52,0,0,0-1.34-.8,2.3,2.3,0,0,0-1.6.32A.67.67,0,0,0,272.3,216.51Z" style="fill:#263238"></path><path d="M275.08,220.51s-.09.07-.08.11c.17,1.18.17,2.56-.86,3.07,0,0,0,.08,0,.07C275.44,223.43,275.43,221.6,275.08,220.51Z" style="fill:#263238"></path><path d="M273.89,219.39c-1.92.07-1.64,3.9.13,3.84S275.49,219.34,273.89,219.39Z" style="fill:#263238"></path><path d="M273.15,219.65c-.32.24-.62.65-1,.71s-.84-.29-1.18-.66c0,0-.06,0-.06.05,0,.74.38,1.47,1.17,1.52s1.2-.63,1.33-1.39C273.41,219.74,273.28,219.55,273.15,219.65Z" style="fill:#263238"></path><path d="M282.47,219.43s.1,0,.1.1c0,1.19.29,2.55,1.39,2.87,0,0,0,.07,0,.07C282.63,222.37,282.32,220.57,282.47,219.43Z" style="fill:#263238"></path><path d="M283.46,218.12c1.9-.26,2.29,3.56.53,3.8S281.86,218.35,283.46,218.12Z" style="fill:#263238"></path><path d="M284.28,218.29c.32.17.66.51,1,.5s.69-.46.91-.89c0,0,.06,0,.07,0,.09.73-.07,1.51-.76,1.72s-1.16-.38-1.41-1.09C284.07,218.44,284.15,218.22,284.28,218.29Z" style="fill:#263238"></path><path d="M276.32,229.57c.29.27.59.65,1,.67a3,3,0,0,0,1.27-.33,0,0,0,0,1,.05.06,1.58,1.58,0,0,1-1.49.68,1.25,1.25,0,0,1-1-1C276.19,229.56,276.28,229.53,276.32,229.57Z" style="fill:#263238"></path><path d="M280.92,224.87s.39,1.75.46,2.58a12.93,12.93,0,0,0-5.18.73c-.09,0-.27-.11-.05-.27a7.33,7.33,0,0,1,4.54-1.06c0-.23-.74-2.75-.61-2.77a7.71,7.71,0,0,1,1.93.27c-.71-3.66-2-7.19-2.66-10.85a.11.11,0,0,1,.21-.08A61,61,0,0,1,282.93,225C283,225.47,281.26,225,280.92,224.87Z" style="fill:#263238"></path><path d="M258.19,222.92c1.86-.26,6.33-5.82,5.74-14.89,0,0,0,8.18-.55,9.43s2.49-3.13,2.12-10.45a29.89,29.89,0,0,0,7.81,3.28c3.53.68,5.64.48,5.87.21s-5-1.46-6.49-2.93c0,0,9.53,3.52,13.78,3.5.49,0-.1-9.1-7-12.84s-16.51.7-19.08,3.62c0,0-3.23.73-6.39,5.86S256.17,223.21,258.19,222.92Z" style="fill:#263238"></path><path d="M262.27,224.37s-4.19-5.16-6.56-3.63,1,9.21,4,10.08a3,3,0,0,0,3.84-1.86Z" style="fill:#f7a9a0"></path><path d="M256.74,222.91a0,0,0,0,0,0,.08c2.09.68,3.29,2.49,4.18,4.39a1.62,1.62,0,0,0-2.46-.27.06.06,0,0,0,.06.1,1.84,1.84,0,0,1,2,.49,9.1,9.1,0,0,1,1.07,1.55c.11.17.43.05.35-.15l0,0C261.81,226.46,259.54,223,256.74,222.91Z" style="fill:#263238"></path></g><rect x="250.55" y="118.2" width="150.56" height="60.19" style="fill:#ebebeb"></rect><polygon points="250.58 178.39 250.58 190.35 261.42 178.39 250.58 178.39" style="fill:#ebebeb"></polygon><circle cx="279.43" cy="149.8" r="23.43" style="fill:#fff"></circle><polygon points="319.72 130.16 321.43 133.63 325.26 134.19 322.49 136.89 323.14 140.71 319.72 138.9 316.29 140.71 316.95 136.89 314.18 134.19 318.01 133.63 319.72 130.16" style="fill:#77D0D2"></polygon><polygon points="334.81 130.16 336.52 133.63 340.35 134.19 337.58 136.89 338.23 140.71 334.81 138.9 331.38 140.71 332.03 136.89 329.26 134.19 333.09 133.63 334.81 130.16" style="fill:#77D0D2"></polygon><polygon points="349.89 130.16 351.61 133.63 355.44 134.19 352.67 136.89 353.32 140.71 349.89 138.9 346.47 140.71 347.12 136.89 344.35 134.19 348.18 133.63 349.89 130.16" style="fill:#77D0D2"></polygon><polygon points="364.98 130.16 366.69 133.63 370.52 134.19 367.75 136.89 368.41 140.71 364.98 138.9 361.55 140.71 362.21 136.89 359.44 134.19 363.27 133.63 364.98 130.16" style="fill:#c7c7c7"></polygon><polygon points="380.07 130.16 381.78 133.63 385.61 134.19 382.84 136.89 383.49 140.71 380.07 138.9 376.64 140.71 377.3 136.89 374.52 134.19 378.35 133.63 380.07 130.16" style="fill:#c7c7c7"></polygon><rect x="314.18" y="148.29" width="71.44" height="1.5" style="fill:#263238"></rect><rect x="314.18" y="152.86" width="41.77" height="1.5" style="fill:#fff"></rect><rect x="314.18" y="157.44" width="61.67" height="1.5" style="fill:#fff"></rect><rect x="314.18" y="162.01" width="56.35" height="1.5" style="fill:#fff"></rect><g style="clip-path:url(#freepik--clip-path-2--inject-335)"><path d="M286.14,165.33l-2.08,9.39L269.9,165l-3.52,5.19s9.27,12.54,19.14,12.54c5.19,0,6.2-11.89,6.2-11.89Z" style="fill:#77D0D2"></path><path d="M283.76,176c-3.8,1.18-10.86-4.28-13.82-8.89-.2-.32.06-3.82.18-8.09.06-2.59.07-5.48-.11-8.11,0-.54,1.87.32,1.87.32l3.47.59,11.46,2a42,42,0,0,0-.89,10.22,5.18,5.18,0,0,0,.19,1.08,1.68,1.68,0,0,0,0,.18C286.62,167.3,287.45,174.86,283.76,176Z" style="fill:#eb9481"></path><path d="M286.11,165.15a1.68,1.68,0,0,0,0,.18,10.4,10.4,0,0,1-1.69.21c-11.14.52-13.51-13.53-13.51-13.53l4.41-.12,11.46,2a42.08,42.08,0,0,0-.89,10.23A5.08,5.08,0,0,0,286.11,165.15Z" style="fill:#263238"></path><path d="M268.58,129.94c-2,5.79.34,22.88,4.35,26.83,5.82,5.74,15.7,6.68,20.67-.39,4.81-6.86,1.32-29.07-3.2-32.7C283.75,118.33,271.6,121.39,268.58,129.94Z" style="fill:#eb9481"></path><path d="M285,141.78c0-.05-.08.06-.07.11.19,1.15.21,2.49-.78,3,0,0,0,.08,0,.07C285.44,144.62,285.39,142.83,285,141.78Z" style="fill:#263238"></path><path d="M283.83,140.71c-1.87.11-1.52,3.84.22,3.74S285.4,140.62,283.83,140.71Z" style="fill:#263238"></path><path d="M291.73,141.33s.1,0,.1.1c.07,1.16.35,2.47,1.44,2.76a0,0,0,0,1,0,.06C292,144.19,291.62,142.44,291.73,141.33Z" style="fill:#263238"></path><path d="M292.65,140c1.85-.32,2.35,3.4.64,3.69S291.1,140.29,292.65,140Z" style="fill:#263238"></path><path d="M282.2,139.15c.49-.18.92-.43,1.39-.65a2.42,2.42,0,0,0,1.3-.93.8.8,0,0,0-.21-.95,2,2,0,0,0-2,0,2.89,2.89,0,0,0-1.54,1.4A.85.85,0,0,0,282.2,139.15Z" style="fill:#263238"></path><path d="M293.92,138c-.53,0-1-.16-1.52-.24a2.47,2.47,0,0,1-1.51-.55.8.8,0,0,1,0-1,2,2,0,0,1,1.91-.55,2.88,2.88,0,0,1,1.86.93A.84.84,0,0,1,293.92,138Z" style="fill:#263238"></path><path d="M285,152.61c.3.25.61.59,1,.59a3,3,0,0,0,1.22-.41,0,0,0,0,1,.06.06,1.56,1.56,0,0,1-1.41.76,1.23,1.23,0,0,1-1-.93C284.84,152.61,284.92,152.58,285,152.61Z" style="fill:#263238"></path><path d="M285.67,149.54c1.18,1,5.13,1,5.14.82l-.32-2.77c.34.14,2.07.73,2,.26a59.82,59.82,0,0,0-2.66-11.77.11.11,0,0,0-.21,0c.43,3.7,1.5,7.31,2,11a7.13,7.13,0,0,0-1.91-.39c-.13.05.46,2.59.45,3a12,12,0,0,1-4.24-.57C285.46,149,285.36,149.28,285.67,149.54Z" style="fill:#263238"></path><path d="M270.66,143.74c1.46-.37,2.83-5.16,2.88-9.8,0-3,1.23-6.75,4.56-7.87,2.21-.75,6.06,1.07,8.27.53s2.61-1.79,3.91-1.76,2.75,3.24,2.75,3.24-2.32-10.11-15.33-6.86c-13.7,3.43-10.94,15.16-9.62,18.92C269.09,143.05,270.66,143.74,270.66,143.74Z" style="fill:#263238"></path><path d="M271.62,143.91s-3.71-5.57-6.23-4.26.18,9.33,3.08,10.48a3,3,0,0,0,4-1.51Z" style="fill:#eb9481"></path><path d="M266.22,142a0,0,0,0,0,0,.08c2,.88,3.07,2.8,3.78,4.79a1.65,1.65,0,0,0-2.45-.51.07.07,0,0,0,.06.11,1.81,1.81,0,0,1,2,.69,7.87,7.87,0,0,1,.93,1.65c.09.18.43.09.36-.12v-.05C271,146,269,142.32,266.22,142Z" style="fill:#263238"></path></g><rect x="260.55" y="41.3" width="150.56" height="60.19" style="fill:#ebebeb"></rect><polygon points="260.58 101.49 260.58 113.46 271.42 101.49 260.58 101.49" style="fill:#ebebeb"></polygon><circle cx="289.43" cy="72.9" r="23.43" style="fill:#fff"></circle><polygon points="329.72 54.06 331.43 57.53 335.26 58.09 332.49 60.79 333.14 64.61 329.72 62.81 326.29 64.61 326.95 60.79 324.18 58.09 328.01 57.53 329.72 54.06" style="fill:#77D0D2"></polygon><polygon points="344.81 54.06 346.52 57.53 350.35 58.09 347.58 60.79 348.23 64.61 344.81 62.81 341.38 64.61 342.03 60.79 339.26 58.09 343.09 57.53 344.81 54.06" style="fill:#77D0D2"></polygon><polygon points="359.89 54.06 361.61 57.53 365.44 58.09 362.67 60.79 363.32 64.61 359.89 62.81 356.47 64.61 357.12 60.79 354.35 58.09 358.18 57.53 359.89 54.06" style="fill:#77D0D2"></polygon><polygon points="374.98 54.06 376.69 57.53 380.52 58.09 377.75 60.79 378.41 64.61 374.98 62.81 371.55 64.61 372.21 60.79 369.44 58.09 373.27 57.53 374.98 54.06" style="fill:#77D0D2"></polygon><polygon points="390.07 54.06 391.78 57.53 395.61 58.09 392.84 60.79 393.49 64.61 390.07 62.81 386.64 64.61 387.3 60.79 384.52 58.09 388.35 57.53 390.07 54.06" style="fill:#77D0D2"></polygon><rect x="324.18" y="71.4" width="71.44" height="1.5" style="fill:#263238"></rect><rect x="324.18" y="75.97" width="53.15" height="1.5" style="fill:#fff"></rect><rect x="324.18" y="80.54" width="63.63" height="1.5" style="fill:#fff"></rect><rect x="324.18" y="85.11" width="27.3" height="1.5" style="fill:#fff"></rect><path d="M314,90.74h-2c-.2-2.55-1.82-6.45-1.41-4.48a19.3,19.3,0,0,1,.26,4.48H277c-.39-3.84,1.32-10.15,1.32-10.15-2,3.17-2.71,7.67-3,10.15h-3.19a23.75,23.75,0,0,1,.48-6.21A20.42,20.42,0,0,0,271,90.74h-3.64a23.85,23.85,0,0,1,4.23-13.46c2.46-3.67-.58-5.81-.52-13,.06-9.51,6.59-13.16,7.67-14.16,14.77-13.68,28.17-1,29.6,8.05,1.39,8.84-1.15,10,3,18C314.37,82.28,314,90.74,314,90.74Z" style="fill:#263238"></path><path d="M274.18,95.71l.09.06c4.91,3.35,14.61,9.23,19.79,7.36a11.65,11.65,0,0,0,6.6-6.84,52.7,52.7,0,0,0-6.41-4.46C286.6,86.75,279.7,89.79,274.18,95.71Z" style="fill:#455a64"></path><path d="M281.57,92.81c.35,1.13,6.34,8.23,11.58,7.63,1.71-.19,1.05-9.56,1.05-9.56l.11-.7,1.52-9.84L284,73.79l-1.71-.85s-.24,2.71-.5,6.1c0,.16,0,.32,0,.49s0,.37-.05.55c0,.5-.09,1-.12,1.53s-.06.78-.07,1.19,0,.82-.07,1.23A64.1,64.1,0,0,0,281.57,92.81Z" style="fill:#dd6a57"></path><path d="M281.74,79a20,20,0,0,0,12.57,11.14l1.52-9.84L284,73.79l-1.71-.85S282,75.65,281.74,79Z" style="fill:#263238"></path><path d="M308,64c2.74,17.26-7.29,20.85-11,21.44-3.37.53-15,1.92-19.46-15s2.65-23.61,10.31-25.24S305.25,46.71,308,64Z" style="fill:#dd6a57"></path><path d="M278.94,71.65c4.32-.52,4.47-14,4.47-15.59.06,1,.36,6.53.8,6.72a4.4,4.4,0,0,0,1.34-.37h0a12.91,12.91,0,0,1,0-2c0-.31.17.65.44,1.82l.78-.29a15.74,15.74,0,0,1,.07-4.2c.08-.53.41,1.79,1.08,3.78A52.8,52.8,0,0,1,299.1,58.6c1.08-.13,2-.19,2.84-.22-.13-1.62-.46-3.33-.31-3a15.71,15.71,0,0,1,.93,3h1.24c-.08-2.29-1.47-5.85-1.06-5.33a16.16,16.16,0,0,1,2.68,5.45c1.59.18,2,.45,2.05,0a19.13,19.13,0,0,0-6.78-11.35c-5.85-4.65-16.76-5-22.2,3.33,0,0-4.75,3.69-5.1,9S276.44,71.94,278.94,71.65Z" style="fill:#263238"></path><path d="M280.48,71.33s-4.19-5.17-6.57-3.64,1,9.21,4,10.08a2.94,2.94,0,0,0,3.83-1.86Z" style="fill:#dd6a57"></path><path d="M275,69.87c-.05,0-.05.06,0,.07,2.09.68,3.29,2.49,4.18,4.39a1.62,1.62,0,0,0-2.46-.27.06.06,0,0,0,.06.1,1.84,1.84,0,0,1,2,.49,9.1,9.1,0,0,1,1.07,1.55c.11.18.43.06.34-.15l0,0C280,73.41,277.75,69.93,275,69.87Z" style="fill:#263238"></path><path d="M300.78,74a4.77,4.77,0,0,1-1.61,1.86,2.2,2.2,0,0,1-1.29.35c-1-.06-1.19-.92-1.17-1.7a5.2,5.2,0,0,1,.2-1.22A6.35,6.35,0,0,0,300.78,74Z" style="fill:#fff"></path><path d="M304.39,61.84c-.41,0-.79-.09-1.2-.14a1.92,1.92,0,0,1-1.19-.38.62.62,0,0,1-.07-.76,1.56,1.56,0,0,1,1.48-.49,2.29,2.29,0,0,1,1.49.67A.66.66,0,0,1,304.39,61.84Z" style="fill:#263238"></path><path d="M292.38,63.27a9.5,9.5,0,0,0,1.15-.35,1.94,1.94,0,0,0,1.11-.58.63.63,0,0,0-.07-.76,1.52,1.52,0,0,0-1.54-.22,2.26,2.26,0,0,0-1.35.92A.66.66,0,0,0,292.38,63.27Z" style="fill:#263238"></path><path d="M295.08,67.46s-.09.07-.08.11c.17,1.18.17,2.56-.86,3.07,0,0,0,.08,0,.07C295.44,70.38,295.43,68.55,295.08,67.46Z" style="fill:#263238"></path><path d="M293.89,66.34c-1.92.07-1.64,3.9.13,3.84S295.49,66.29,293.89,66.34Z" style="fill:#263238"></path><path d="M293.15,66.6c-.32.24-.62.65-1,.72s-.84-.3-1.18-.66c0,0-.06,0-.06,0,0,.74.38,1.47,1.17,1.53s1.2-.64,1.33-1.39C293.41,66.7,293.28,66.5,293.15,66.6Z" style="fill:#263238"></path><path d="M302.47,66.38s.1.05.1.1c0,1.19.29,2.55,1.39,2.87,0,0,0,.07,0,.07C302.63,69.32,302.32,67.52,302.47,66.38Z" style="fill:#263238"></path><path d="M303.46,65.08c1.9-.27,2.29,3.55.53,3.8S301.86,65.3,303.46,65.08Z" style="fill:#263238"></path><path d="M304.28,65.24c.32.18.66.51,1,.5s.69-.46.91-.89c0,0,.06,0,.07,0,.09.73-.07,1.51-.76,1.73s-1.16-.39-1.41-1.1C304.07,65.39,304.15,65.18,304.28,65.24Z" style="fill:#263238"></path><path d="M296.32,76.52c.29.27.59.65,1,.67a3,3,0,0,0,1.27-.33,0,0,0,0,1,.05.06,1.58,1.58,0,0,1-1.49.68,1.25,1.25,0,0,1-1-1C296.19,76.51,296.28,76.48,296.32,76.52Z" style="fill:#263238"></path><path d="M300.92,71.82s.39,1.75.46,2.58c0,.08-.19.14-.47.18,0,0,0,0,0,0a4,4,0,0,1-4-1.16c-.06-.07,0-.17.12-.12a6,6,0,0,0,3.71.73c0-.24-.77-3-.64-3a7.32,7.32,0,0,1,1.93.28c-.71-3.67-2-7.2-2.66-10.86a.11.11,0,0,1,.21-.07A60.72,60.72,0,0,1,302.93,72C303,72.42,301.26,71.93,300.92,71.82Z" style="fill:#263238"></path></g></svg>